<svg width="35" height="30" viewBox="0 0 35 30" fill="none" xmlns="http://www.w3.org/2000/svg">
<g opacity="0.7">
<path opacity="0.03" d="M2.03121 18.0931L6.9017 16.0403C6.92907 16.0291 7.95667 15.5972 7.98707 15.5905C8.86267 15.2387 9.94804 15.0517 11.0304 15.0695C11.2553 15.074 11.4742 15.0896 11.6871 15.1074C12.3225 15.1653 13.0339 15.3412 13.5143 15.5438L23.2096 19.4423L32.8746 23.3298C33.5861 23.6304 34.1789 24.1469 34.3248 24.6546C34.3522 24.7525 34.3765 24.8505 34.3856 24.9529C34.4464 25.681 33.8506 26.3801 32.7378 26.8521L27.8673 28.9049C27.84 28.9161 26.8124 29.348 26.7819 29.3547C25.9064 29.7065 24.821 29.8935 23.7387 29.8757C23.5137 29.8712 23.2948 29.8556 23.082 29.8378C22.4465 29.7799 21.7351 29.604 21.2548 29.4014L11.5594 25.5029L1.8944 21.6154C1.18298 21.3148 0.590124 20.7983 0.444191 20.2906C0.416829 20.1927 0.392508 20.0947 0.383387 19.9945C0.322582 19.2665 0.918472 18.5651 2.03121 18.0953V18.0931Z" fill="black"/>
<path opacity="0.05" d="M2.0647 18.1618L6.86527 16.1491C6.92 16.1268 7.87768 15.7283 7.93848 15.7149C8.81712 15.3787 9.89336 15.2095 10.9423 15.2452C11.1642 15.2518 11.377 15.2741 11.5868 15.2964C12.1584 15.3542 12.9427 15.5635 13.3745 15.7461L22.9391 19.5935L32.446 23.4164C33.0875 23.688 33.7716 24.2268 33.9266 24.6788C33.957 24.7723 33.9935 24.8658 34.0087 24.9615C34.1303 25.6629 33.58 26.3598 32.4673 26.8318L27.6667 28.8445C27.612 28.8668 26.6543 29.2653 26.5905 29.2787C25.7118 29.6149 24.6356 29.7819 23.5867 29.7485C23.3648 29.7396 23.1519 29.7195 22.9422 29.6973C22.3706 29.6394 21.5862 29.4301 21.1545 29.2475L11.5898 25.4002L2.08295 21.5773C1.44145 21.3057 0.754354 20.7668 0.602341 20.3149C0.571938 20.2214 0.535454 20.1278 0.520252 20.0321C0.398642 19.3308 0.948926 18.6339 2.06166 18.1641L2.0647 18.1618Z" fill="black"/>
<path opacity="0.08" d="M2.10119 18.2332L6.83184 16.2583C6.91088 16.2249 7.80168 15.8598 7.89593 15.8397C8.77456 15.5213 9.84169 15.3699 10.8602 15.4234C11.0791 15.4345 11.2858 15.4635 11.4895 15.4879C11.9972 15.5458 12.8516 15.7885 13.2377 15.9511L22.6716 19.745L32.0173 23.5033C32.5859 23.7438 33.3703 24.3048 33.5284 24.7034C33.5648 24.7924 33.6104 24.8793 33.6348 24.9706C33.8202 25.6474 33.3095 26.3399 32.1998 26.8096L27.4691 28.7845C27.3901 28.8179 26.4993 29.1831 26.405 29.2031C25.5264 29.5215 24.4593 29.6707 23.4408 29.6195C23.2249 29.6083 23.0151 29.5794 22.8114 29.5549C22.3037 29.497 21.4494 29.2543 21.0633 29.0918L11.6294 25.2979L2.28361 21.5395C1.71508 21.2991 0.930694 20.738 0.772601 20.3395C0.736118 20.2504 0.690512 20.1636 0.66619 20.0723C0.480734 19.3954 0.991498 18.703 2.10119 18.2332Z" fill="black"/>
<path opacity="0.11" d="M2.1347 18.3043L6.79845 16.3673C6.90486 16.3227 7.72574 15.991 7.85039 15.9643C8.72902 15.6637 9.78703 15.5301 10.7782 15.5991C10.991 15.6147 11.1947 15.6503 11.3923 15.6748C11.8331 15.7305 12.7634 16.011 13.1009 16.1535L22.4041 19.8962L31.5918 23.5922C32.0904 23.8037 32.9781 24.3871 33.1332 24.7299C33.1727 24.8168 33.2305 24.8969 33.2639 24.9838C33.5132 25.6339 33.042 26.3241 31.9353 26.7939L27.2716 28.7309C27.1652 28.7755 26.3443 29.1072 26.2196 29.1339C25.341 29.4345 24.283 29.5659 23.2919 29.4991C23.079 29.4835 22.8753 29.4479 22.6777 29.4234C22.2369 29.3677 21.3066 29.0872 20.9691 28.9447L11.6659 25.202L2.47825 21.506C1.97965 21.2945 1.09189 20.7111 0.936836 20.366C0.897312 20.2792 0.839549 20.199 0.806107 20.1122C0.556805 19.4621 1.02804 18.7719 2.1347 18.3021V18.3043Z" fill="black"/>
<path opacity="0.14" d="M2.17114 18.3759L6.76497 16.4767C6.89874 16.421 7.64665 16.1226 7.80778 16.0892C8.68641 15.8065 9.73834 15.6907 10.696 15.7775C10.9058 15.7976 11.1034 15.8399 11.295 15.8666C11.6719 15.92 12.6752 16.2362 12.9641 16.3587L22.1396 20.0479L31.1691 23.6793C31.5978 23.8597 32.6649 24.4497 32.7409 24.757C32.8048 24.8327 32.8534 24.9128 32.893 24.9952C33.2061 25.6208 32.7774 26.3066 31.6677 26.7742L27.0739 28.6734C26.9401 28.729 26.1892 29.0274 26.0311 29.0608C25.1525 29.3435 24.1036 29.4571 23.1428 29.3725C22.9331 29.3524 22.7354 29.3101 22.5439 29.2834C22.1669 29.23 21.1636 28.9138 20.8748 28.7914L11.6993 25.1021L2.66974 21.4707C2.24106 21.2903 1.17393 20.7003 1.09793 20.393C1.03408 20.3173 0.985436 20.2372 0.945912 20.1548C0.632766 19.5292 1.06144 18.8434 2.17114 18.3759Z" fill="black"/>
<path opacity="0.16" d="M2.20453 18.4468L6.72844 16.5854C6.88958 16.5164 7.56755 16.2537 7.75909 16.2136C8.64076 15.9464 9.68054 15.8484 10.6078 15.9553C10.8146 15.9776 11.003 16.0266 11.1915 16.0577C11.5047 16.1067 12.5809 16.463 12.8211 16.5631L21.8659 20.2012L30.7343 23.7681C31.09 23.9195 32.2727 24.5273 32.3365 24.7833C32.4065 24.8546 32.4642 24.9303 32.5129 25.006C32.8929 25.6049 32.5007 26.2884 31.3941 26.756L26.8702 28.6174C26.709 28.6864 26.031 28.9491 25.8395 28.9892C24.9578 29.2564 23.9181 29.3499 22.9908 29.2475C22.7871 29.223 22.5956 29.1762 22.4071 29.145C22.0939 29.0961 21.0177 28.7398 20.7775 28.6396L11.7327 25.0015L2.86427 21.4347C2.50856 21.2833 1.3259 20.6755 1.26206 20.4194C1.19213 20.3482 1.13437 20.2725 1.08572 20.1968C0.705689 19.5979 1.09788 18.9143 2.20453 18.4468Z" fill="black"/>
<path opacity="0.19" d="M2.23795 18.516L6.69497 16.6947C6.88346 16.6146 7.49152 16.3852 7.71346 16.3385C8.59513 16.0891 9.62578 16.0112 10.5227 16.1314C10.7233 16.1581 10.9088 16.2138 11.0942 16.245C11.3435 16.2873 12.4927 16.6836 12.6843 16.766L21.5983 20.3506L30.3087 23.8529C30.5944 23.9731 31.8896 24.601 31.9413 24.8058C32.0203 24.8726 32.0842 24.9438 32.1389 25.0151C32.5889 25.5895 32.2301 26.2686 31.1265 26.7362L26.6695 28.5574C26.481 28.6376 25.8729 28.8669 25.651 28.9137C24.7693 29.163 23.7387 29.2387 22.8418 29.1207C22.6411 29.0918 22.4557 29.0384 22.2702 29.0072C22.0209 28.9649 20.8717 28.5686 20.6802 28.4862L11.7661 24.9015L3.05578 21.3993C2.76999 21.2791 1.47484 20.6512 1.42316 20.4463C1.34411 20.3795 1.28026 20.3083 1.22554 20.2371C0.775581 19.6626 1.13433 18.9835 2.23795 18.516Z" fill="black"/>
<path opacity="0.22" d="M2.27437 18.5866L6.66146 16.8032C6.87732 16.7119 7.41545 16.5137 7.67083 16.4625C8.55251 16.231 9.57707 16.1708 10.4405 16.3089C10.6381 16.3401 10.8145 16.4024 10.9969 16.4358C11.1823 16.4714 12.4015 16.9078 12.5474 16.9702L21.3307 20.5036L29.8799 23.9413C30.0927 24.0326 31.5034 24.6783 31.5429 24.8319C31.6281 24.8942 31.701 24.9588 31.7649 25.0256C32.2817 25.5711 31.9625 26.2502 30.8589 26.7155L26.4718 28.4989C26.2559 28.5902 25.7178 28.7884 25.4624 28.8396C24.5807 29.0711 23.5592 29.129 22.6928 28.9932C22.4951 28.962 22.3188 28.8997 22.1364 28.8663C21.9509 28.8307 20.7318 28.3943 20.5858 28.3319L11.8025 24.7985L3.25334 21.3608C3.04052 21.2695 1.62984 20.6238 1.59031 20.4702C1.50519 20.4079 1.43222 20.3433 1.36837 20.2765C0.851529 19.731 1.17076 19.0519 2.27437 18.5866Z" fill="black"/>
<path opacity="0.25" d="M2.30785 18.658L6.62502 16.9124C6.8652 16.81 7.33644 16.6453 7.62223 16.5874C8.50694 16.3736 9.51935 16.3313 10.3524 16.4849C10.547 16.5206 10.7172 16.5874 10.8935 16.6252C11.0182 16.6497 12.3073 17.1329 12.4046 17.1729L21.0571 20.6529L29.4482 24.0283C29.5911 24.0884 31.1143 24.7541 31.1417 24.8565C31.2359 24.9122 31.315 24.9745 31.3879 25.0347C31.9777 25.5534 31.6889 26.2303 30.5883 26.6956L26.2712 28.4412C26.031 28.5436 25.5598 28.7084 25.274 28.7663C24.3893 28.98 23.3768 29.0201 22.5438 28.8687C22.3523 28.833 22.179 28.7663 22.0026 28.7284C21.878 28.7039 20.5889 28.2208 20.4916 28.1807L11.8391 24.7007L3.44795 21.3253C3.30506 21.2652 1.78189 20.5995 1.75452 20.4971C1.66028 20.4414 1.58123 20.3791 1.50826 20.319C0.918454 19.8002 1.20728 19.1233 2.30785 18.658Z" fill="black"/>
<path opacity="0.27" d="M2.34432 18.7295L6.5946 17.0218C6.86214 16.9082 7.26346 16.7769 7.57964 16.7123C8.46436 16.5164 9.46764 16.4941 10.2733 16.6633C10.4618 16.7034 10.6381 16.7546 10.7993 16.8147C10.8631 16.8192 12.2221 17.3557 12.2708 17.3758L20.7956 20.8046L29.0287 24.1154C29.0986 24.1465 30.7373 24.8301 30.7495 24.8813C30.8528 24.9325 30.941 24.9881 31.017 25.046C31.6767 25.5359 31.4244 26.2127 30.3238 26.678L26.0735 28.3858C25.806 28.4993 25.4047 28.6307 25.0885 28.6952C24.2038 28.8912 23.2005 28.9134 22.3948 28.7442C22.2063 28.7041 22.03 28.6529 21.8689 28.5928C21.805 28.5884 20.446 28.0518 20.3974 28.0318L11.8725 24.603L3.63947 21.2922C3.56954 21.261 1.93084 20.5752 1.91564 20.5263C1.81227 20.475 1.7241 20.4194 1.64809 20.3615C0.988358 19.8717 1.2407 19.1948 2.34128 18.7295H2.34432Z" fill="black"/>
<path opacity="0.3" d="M21.732 28.4523L11.9059 24.5003L2.07978 20.5483C1.01873 20.0985 1.1525 19.3148 2.37773 18.7983L6.55808 17.1284C7.78331 16.6096 9.63787 16.554 10.6989 17.0037L20.525 20.9557L30.3512 24.9077C31.4122 25.3575 31.2784 26.1412 30.0532 26.6578L25.8729 28.3276C24.6476 28.8464 22.7931 28.9021 21.732 28.4523Z" fill="black"/>
</g>
<path d="M31.2299 16.5362L30.3604 16.2134L30.3847 17.3088L31.2481 16.9192C31.4457 16.8301 31.4336 16.6164 31.2268 16.5384L31.2299 16.5362Z" fill="url(#paint0_linear_1_4932)"/>
<path d="M7.77439 0.541322C6.07489 -0.177833 3.3265 -0.180058 1.63611 0.532418C0.00349194 1.22263 -0.0269102 2.32919 1.50842 3.05058L7.77743 17.8745L28.2232 26.2929C29.269 26.736 30.5794 26.1838 30.5794 25.2999V11.509C30.5794 10.4648 29.8163 9.50071 28.5819 8.97971L7.77743 0.539097L7.77439 0.541322Z" fill="url(#paint1_linear_1_4932)"/>
<path style="mix-blend-mode:color-dodge" d="M10.4224 16.8104L9.42215 16.374C9.31879 16.3295 9.24886 16.2916 9.2063 16.2627V2.50073L28.1562 10.1198C28.746 10.3669 29.1139 10.8323 29.1139 11.3332V24.4851L10.4254 16.8104H10.4224Z" fill="url(#paint2_radial_1_4932)"/>
<path d="M7.7744 0.541322C6.07489 -0.177833 3.3265 -0.180058 1.63611 0.532418C0.00349191 1.22263 -0.0269102 2.32919 1.50842 3.05058L7.77743 17.8745L28.515 26.4732C29.5609 26.9163 30.8712 26.3641 30.8712 25.4802V11.6894C30.8712 10.6451 30.1081 9.68106 28.8738 9.16006L7.77743 0.539097L7.7744 0.541322Z" fill="#FF63CE"/>
<path d="M7.79552 0.810854C6.09601 0.0916978 3.34762 0.0894728 1.65724 0.801949C0.0246204 1.49216 0.757322 2.98613 2.29265 3.70974L7.79552 18.1463L28.2413 26.5646C29.2871 27.0077 30.5975 26.4555 30.5975 25.5716V11.7808C30.5975 10.7365 29.8344 9.77247 28.6 9.25147L7.79552 0.810854Z" fill="url(#paint3_linear_1_4932)"/>
<path style="mix-blend-mode:multiply" d="M7.79553 0.810854C6.09603 0.0916978 3.34764 0.0894728 1.65725 0.801949C0.0246327 1.49216 0.799897 2.8659 2.33523 3.58951L7.79553 18.1463L28.2413 26.5646C29.2871 27.0077 30.5975 26.4555 30.5975 25.5716V11.7808C30.5975 10.7365 29.8344 9.77247 28.6 9.25147L7.79553 0.810854Z" fill="url(#paint4_radial_1_4932)"/>
<g style="mix-blend-mode:multiply" opacity="0.3">
<g style="mix-blend-mode:multiply" opacity="0.3">
<path d="M29.0287 26.5532C28.7946 26.5532 28.5697 26.5087 28.3599 26.4196L8.07831 18.0681C8.02662 18.0458 7.9871 18.0102 7.96886 17.9657L2.53591 3.48236L2.46295 3.44673C1.55999 3.02147 0.964099 2.36689 0.982341 1.8214C0.991462 1.57203 1.13435 1.21802 1.77889 0.946388C2.55719 0.616868 3.60304 0.436523 4.71578 0.436523C5.82851 0.436523 6.89564 0.621319 7.68915 0.955292L28.4967 9.39591C29.6581 9.88351 30.3786 10.7964 30.3786 11.7783V25.5691C30.3786 25.8408 30.2327 26.0901 29.9712 26.2749C29.7189 26.4508 29.3784 26.551 29.0379 26.551L29.0287 26.5532ZM8.38233 17.8098L28.5849 26.128C28.9345 26.2771 29.3662 26.2304 29.6489 26.0345C29.8222 25.9142 29.9165 25.7472 29.9165 25.5691V11.7783C29.9165 10.9166 29.2841 10.1151 28.2687 9.68758L7.46113 1.24697C6.73451 0.93971 5.75858 0.770497 4.71274 0.770497C3.66689 0.770497 2.71529 0.935256 2.00387 1.23583C1.62992 1.39391 1.44446 1.58762 1.43534 1.8303C1.42318 2.25779 1.9461 2.80773 2.70921 3.1662L2.85514 3.23522C2.90378 3.25748 2.93723 3.29088 2.95243 3.33096L8.38537 17.8098H8.38233Z" fill="#B086CC"/>
</g>
</g>
<g style="mix-blend-mode:screen">
<g style="mix-blend-mode:screen">
<path d="M29.0286 26.4421C28.9526 26.4421 28.8766 26.4376 28.8036 26.4265C28.7611 26.4198 28.7367 26.3909 28.7428 26.3619C28.7519 26.333 28.7884 26.3129 28.831 26.3174C28.9678 26.3374 29.1137 26.3374 29.2505 26.3129C29.2901 26.3063 29.3326 26.3241 29.3418 26.3552C29.3509 26.3842 29.3266 26.4154 29.284 26.422C29.1989 26.4354 29.1107 26.4443 29.0256 26.4443L29.0286 26.4421ZM28.3993 26.2996C28.3993 26.2996 28.375 26.2974 28.3628 26.2929L27.9645 26.1281C27.928 26.1126 27.9159 26.0792 27.9341 26.0524C27.9554 26.0257 28.001 26.0168 28.0375 26.0302L28.4358 26.1949C28.4722 26.2105 28.4844 26.2439 28.4662 26.2706C28.451 26.2885 28.4266 26.2996 28.3993 26.2996ZM29.6853 26.2862C29.661 26.2862 29.6397 26.2773 29.6245 26.264C29.6002 26.2395 29.6063 26.2038 29.6427 26.186C29.6823 26.166 29.7218 26.1415 29.7583 26.117C29.8252 26.0703 29.8829 26.0168 29.9285 25.9589C29.9498 25.9322 29.9954 25.9233 30.0319 25.9389C30.0684 25.9545 30.0805 25.9879 30.0593 26.0146C30.0045 26.0814 29.9407 26.1415 29.8616 26.1972C29.8191 26.2261 29.7765 26.2528 29.7309 26.2773C29.7188 26.284 29.7005 26.2884 29.6853 26.2884V26.2862ZM27.6058 25.9723C27.6058 25.9723 27.5814 25.9701 27.5693 25.9656L27.171 25.8008C27.1345 25.7853 27.1224 25.7519 27.1406 25.7251C27.1619 25.6984 27.2075 25.6895 27.244 25.7029L27.6423 25.8676C27.6787 25.8832 27.6909 25.9166 27.6727 25.9433C27.6575 25.9612 27.6331 25.9723 27.6058 25.9723ZM30.1383 25.7274H30.1292C30.0866 25.7229 30.0593 25.6962 30.0623 25.665C30.0684 25.6339 30.0714 25.6005 30.0714 25.5693V25.3377C30.0714 25.3066 30.1049 25.2821 30.1474 25.2821C30.19 25.2821 30.2234 25.3066 30.2234 25.3377V25.5693C30.2234 25.6071 30.2204 25.6428 30.2143 25.6784C30.2082 25.7073 30.1778 25.7274 30.1383 25.7274ZM26.8123 25.645C26.8123 25.645 26.7879 25.6428 26.7758 25.6383L26.3775 25.4758C26.341 25.4602 26.3289 25.4268 26.3471 25.4001C26.3684 25.3734 26.414 25.3645 26.4505 25.3778L26.8487 25.5404C26.8852 25.5559 26.8974 25.5893 26.8791 25.6161C26.8639 25.6339 26.8396 25.645 26.8123 25.645ZM26.0188 25.3177C26.0188 25.3177 25.9944 25.3155 25.9823 25.311L25.584 25.1463C25.5475 25.1307 25.5354 25.0973 25.5536 25.0706C25.5749 25.0438 25.6205 25.0349 25.657 25.0483L26.0552 25.2131C26.0917 25.2286 26.1039 25.262 26.0856 25.2888C26.0704 25.3066 26.0461 25.3177 26.0188 25.3177ZM30.1474 25.0594C30.1049 25.0594 30.0714 25.0349 30.0714 25.0038V24.6698C30.0714 24.6386 30.1049 24.6141 30.1474 24.6141C30.19 24.6141 30.2234 24.6386 30.2234 24.6698V25.0038C30.2234 25.0349 30.19 25.0594 30.1474 25.0594ZM25.2222 24.9904C25.2222 24.9904 25.1979 24.9882 25.1857 24.9837L24.7874 24.819C24.751 24.8034 24.7388 24.77 24.757 24.7433C24.7783 24.7166 24.8239 24.7076 24.8604 24.721L25.2587 24.8858C25.2952 24.9014 25.3073 24.9347 25.2891 24.9615C25.2739 24.9793 25.2496 24.9904 25.2222 24.9904ZM24.4257 24.6631C24.4257 24.6631 24.4013 24.6609 24.3892 24.6564L23.9909 24.4917C23.9544 24.4761 23.9423 24.4427 23.9605 24.416C23.9818 24.3893 24.0274 24.3804 24.0639 24.3937L24.4621 24.5585C24.4986 24.5741 24.5108 24.6075 24.4925 24.6342C24.4773 24.652 24.453 24.6631 24.4257 24.6631ZM30.1474 24.3915C30.1049 24.3915 30.0714 24.367 30.0714 24.3358V24.0018C30.0714 23.9707 30.1049 23.9462 30.1474 23.9462C30.19 23.9462 30.2234 23.9707 30.2234 24.0018V24.3358C30.2234 24.367 30.19 24.3915 30.1474 24.3915ZM23.6322 24.3358C23.6322 24.3358 23.6078 24.3336 23.5957 24.3291L23.1974 24.1644C23.1609 24.1488 23.1487 24.1154 23.17 24.0887C23.1913 24.062 23.2369 24.0531 23.2734 24.0686L23.6717 24.2334C23.7082 24.249 23.7203 24.2824 23.699 24.3091C23.6838 24.3269 23.6595 24.338 23.6322 24.338V24.3358ZM22.8386 24.0085C22.8386 24.0085 22.8143 24.0063 22.8022 24.0018L22.4039 23.8371C22.3674 23.8215 22.3552 23.7881 22.3735 23.7614C22.3948 23.7347 22.4404 23.7258 22.4769 23.7391L22.8751 23.9039C22.9116 23.9195 22.9238 23.9529 22.9055 23.9796C22.8903 23.9974 22.866 24.0085 22.8386 24.0085ZM30.1474 23.7258C30.1049 23.7258 30.0714 23.7013 30.0714 23.6701V23.3361C30.0714 23.305 30.1049 23.2805 30.1474 23.2805C30.19 23.2805 30.2234 23.305 30.2234 23.3361V23.6701C30.2234 23.7013 30.19 23.7258 30.1474 23.7258ZM22.0421 23.6812C22.0421 23.6812 22.0178 23.679 22.0056 23.6746L21.6073 23.5098C21.5709 23.4942 21.5587 23.4608 21.5769 23.4341C21.5982 23.4074 21.6438 23.3985 21.6803 23.4118L22.0786 23.5766C22.1151 23.5922 22.1272 23.6256 22.109 23.6523C22.0938 23.6701 22.0695 23.6812 22.0421 23.6812ZM21.2455 23.3539C21.2455 23.3539 21.2212 23.3517 21.2091 23.3473L20.8108 23.1825C20.7743 23.1669 20.7621 23.1335 20.7804 23.1068C20.8017 23.0801 20.8473 23.0712 20.8838 23.0845L21.282 23.2493C21.3185 23.2649 21.3307 23.2983 21.3124 23.325C21.2972 23.3428 21.2729 23.3539 21.2455 23.3539ZM30.1474 23.0578C30.1049 23.0578 30.0714 23.0333 30.0714 23.0022V22.6682C30.0714 22.637 30.1049 22.6125 30.1474 22.6125C30.19 22.6125 30.2234 22.637 30.2234 22.6682V23.0022C30.2234 23.0333 30.19 23.0578 30.1474 23.0578ZM20.452 23.0266C20.452 23.0266 20.4277 23.0244 20.4156 23.02L20.0173 22.8574C19.9808 22.8418 19.9686 22.8084 19.9869 22.7817C20.0082 22.755 20.0538 22.7461 20.0903 22.7595L20.4885 22.922C20.525 22.9376 20.5372 22.971 20.5189 22.9977C20.5037 23.0155 20.4794 23.0266 20.452 23.0266ZM19.6555 22.6994C19.6555 22.6994 19.6312 22.6971 19.619 22.6927L19.2207 22.5279C19.1843 22.5123 19.1721 22.4789 19.1903 22.4522C19.2116 22.4255 19.2572 22.4166 19.2937 22.4299L19.692 22.5947C19.7285 22.6103 19.7406 22.6437 19.7224 22.6704C19.7072 22.6882 19.6829 22.6994 19.6555 22.6994ZM30.1444 22.3899C30.1018 22.3899 30.0684 22.3654 30.0684 22.3342V22.0002C30.0684 21.9691 30.1018 21.9446 30.1444 21.9446C30.1869 21.9446 30.2204 21.9691 30.2204 22.0002V22.3342C30.2204 22.3654 30.1869 22.3899 30.1444 22.3899ZM18.8589 22.3721C18.8589 22.3721 18.8346 22.3698 18.8225 22.3654L18.4242 22.2006C18.3877 22.185 18.3755 22.1516 18.3938 22.1249C18.4151 22.0982 18.4607 22.0893 18.4972 22.1027L18.8954 22.2674C18.9319 22.283 18.9441 22.3164 18.9258 22.3431C18.9106 22.3609 18.8863 22.3721 18.8589 22.3721ZM18.0624 22.0448C18.0624 22.0448 18.0381 22.0425 18.0259 22.0381L17.6276 21.8756C17.5912 21.86 17.579 21.8266 17.5972 21.7999C17.6185 21.7731 17.6641 21.7642 17.7006 21.7776L18.0989 21.9401C18.1354 21.9557 18.1475 21.9891 18.1293 22.0158C18.1141 22.0336 18.0898 22.0448 18.0624 22.0448ZM30.1444 21.7219C30.1018 21.7219 30.0684 21.6974 30.0684 21.6663V21.3323C30.0684 21.3011 30.1018 21.2766 30.1444 21.2766C30.1869 21.2766 30.2204 21.3011 30.2204 21.3323V21.6663C30.2204 21.6974 30.1869 21.7219 30.1444 21.7219ZM17.2689 21.7175C17.2689 21.7175 17.2446 21.7152 17.2324 21.7108L16.8341 21.546C16.7976 21.5304 16.7855 21.497 16.8037 21.4703C16.825 21.4436 16.8706 21.4347 16.9071 21.4481L17.3054 21.6128C17.3419 21.6284 17.354 21.6618 17.3358 21.6885C17.3206 21.7063 17.2963 21.7175 17.2689 21.7175ZM16.4723 21.3902C16.4723 21.3902 16.448 21.3879 16.4359 21.3835L16.0376 21.2187C16.0011 21.2032 15.9889 21.1698 16.0072 21.143C16.0285 21.1163 16.0741 21.1074 16.1105 21.1208L16.5088 21.2855C16.5453 21.3011 16.5575 21.3345 16.5392 21.3612C16.524 21.379 16.4997 21.3902 16.4723 21.3902ZM15.6758 21.0629C15.6758 21.0629 15.6515 21.0607 15.6393 21.0562L15.241 20.8914C15.2046 20.8759 15.1924 20.8425 15.2106 20.8157C15.2319 20.789 15.2775 20.7801 15.314 20.7935L15.7123 20.9582C15.7488 20.9738 15.7609 21.0072 15.7427 21.0339C15.7275 21.0518 15.7032 21.0629 15.6758 21.0629ZM30.1413 21.054C30.0988 21.054 30.0653 21.0295 30.0653 20.9983V20.6643C30.0653 20.6332 30.0988 20.6087 30.1413 20.6087C30.1839 20.6087 30.2174 20.6332 30.2174 20.6643V20.9983C30.2174 21.0295 30.1839 21.054 30.1413 21.054ZM14.8792 20.7356C14.8792 20.7356 14.8549 20.7334 14.8428 20.7289L14.4445 20.5641C14.408 20.5486 14.3958 20.5152 14.4171 20.4884C14.4384 20.4617 14.484 20.4528 14.5205 20.4684L14.9188 20.6332C14.9553 20.6488 14.9674 20.6822 14.9461 20.7089C14.9309 20.7267 14.9066 20.7378 14.8792 20.7378V20.7356ZM14.0857 20.4083C14.0857 20.4083 14.0614 20.4061 14.0493 20.4016L13.651 20.2369C13.6145 20.2213 13.6023 20.1879 13.6206 20.1612C13.6419 20.1344 13.6875 20.1255 13.724 20.1389L14.1222 20.3036C14.1587 20.3192 14.1709 20.3526 14.1526 20.3794C14.1374 20.3972 14.1131 20.4083 14.0857 20.4083ZM30.1413 20.386C30.0988 20.386 30.0653 20.3615 30.0653 20.3304V19.9964C30.0653 19.9652 30.0988 19.9407 30.1413 19.9407C30.1839 19.9407 30.2174 19.9652 30.2174 19.9964V20.3304C30.2174 20.3615 30.1839 20.386 30.1413 20.386ZM13.2922 20.081C13.2922 20.081 13.2679 20.0788 13.2557 20.0743L12.8575 19.9096C12.821 19.894 12.8088 19.8606 12.8271 19.8339C12.8484 19.8071 12.894 19.7982 12.9304 19.8116L13.3287 19.9764C13.3652 19.9919 13.3774 20.0253 13.3591 20.0521C13.3439 20.0699 13.3196 20.081 13.2922 20.081ZM12.4957 19.7537C12.4957 19.7537 12.4714 19.7515 12.4592 19.747L12.0609 19.5823C12.0244 19.5667 12.0123 19.5333 12.0305 19.5066C12.0518 19.4798 12.0974 19.4709 12.1339 19.4843L12.5322 19.6491C12.5686 19.6646 12.5808 19.698 12.5626 19.7248C12.5474 19.7426 12.523 19.7537 12.4957 19.7537ZM30.1413 19.7181C30.0988 19.7181 30.0653 19.6936 30.0653 19.6624V19.3284C30.0653 19.2973 30.0988 19.2728 30.1413 19.2728C30.1839 19.2728 30.2174 19.2973 30.2174 19.3284V19.6624C30.2174 19.6936 30.1839 19.7181 30.1413 19.7181ZM11.7022 19.4264C11.7022 19.4264 11.6779 19.4242 11.6657 19.4197L11.2674 19.2572C11.2309 19.2416 11.2188 19.2082 11.237 19.1815C11.2583 19.1548 11.3039 19.1459 11.3404 19.1592L11.7387 19.3218C11.7751 19.3374 11.7873 19.3708 11.7691 19.3975C11.7539 19.4153 11.7295 19.4264 11.7022 19.4264ZM10.9056 19.0991C10.9056 19.0991 10.8813 19.0969 10.8691 19.0924L10.4709 18.9277C10.4344 18.9121 10.4222 18.8787 10.4405 18.852C10.4617 18.8253 10.5074 18.8164 10.5438 18.8297L10.9421 18.9945C10.9786 19.0101 10.9908 19.0435 10.9725 19.0702C10.9573 19.088 10.933 19.0991 10.9056 19.0991ZM30.1413 19.0501C30.0988 19.0501 30.0653 19.0256 30.0653 18.9945V18.6605C30.0653 18.6293 30.0988 18.6048 30.1413 18.6048C30.1839 18.6048 30.2174 18.6293 30.2174 18.6605V18.9945C30.2174 19.0256 30.1839 19.0501 30.1413 19.0501ZM10.1121 18.7718C10.1121 18.7718 10.0878 18.7696 10.0756 18.7651L9.67737 18.6004C9.64088 18.5848 9.62872 18.5514 9.64696 18.5247C9.66825 18.498 9.71385 18.4891 9.75033 18.5024L10.1486 18.6672C10.1851 18.6828 10.1973 18.7162 10.179 18.7429C10.1638 18.7607 10.1395 18.7718 10.1121 18.7718ZM9.31558 18.4445C9.31558 18.4445 9.29125 18.4423 9.27909 18.4379L8.88081 18.2731C8.84433 18.2575 8.83218 18.2241 8.85042 18.1974C8.8717 18.1707 8.9173 18.1618 8.95378 18.1751L9.35206 18.3399C9.38854 18.3555 9.4007 18.3889 9.38246 18.4156C9.36726 18.4334 9.34294 18.4445 9.31558 18.4445ZM30.1413 18.3822C30.0988 18.3822 30.0653 18.3577 30.0653 18.3265V17.9926C30.0653 17.9614 30.0988 17.9369 30.1413 17.9369C30.1839 17.9369 30.2174 17.9614 30.2174 17.9926V18.3265C30.2174 18.3577 30.1839 18.3822 30.1413 18.3822ZM8.52206 18.1172C8.52206 18.1172 8.49774 18.115 8.48558 18.1106L8.15115 17.9725C8.11467 17.9569 8.10251 17.9235 8.12075 17.8968C8.14203 17.8701 8.18764 17.8612 8.22412 17.8745L8.55855 18.0126C8.59503 18.0282 8.60719 18.0616 8.58895 18.0883C8.57375 18.1061 8.54943 18.1172 8.52206 18.1172ZM30.1413 17.7142C30.0988 17.7142 30.0653 17.6898 30.0653 17.6586V17.3246C30.0653 17.2934 30.0988 17.2689 30.1413 17.2689C30.1839 17.2689 30.2174 17.2934 30.2174 17.3246V17.6586C30.2174 17.6898 30.1839 17.7142 30.1413 17.7142ZM30.1413 17.0463C30.0988 17.0463 30.0653 17.0218 30.0653 16.9906V16.6567C30.0653 16.6255 30.0988 16.601 30.1413 16.601C30.1839 16.601 30.2174 16.6255 30.2174 16.6567V16.9906C30.2174 17.0218 30.1839 17.0463 30.1413 17.0463ZM30.1413 16.3783C30.0988 16.3783 30.0653 16.3539 30.0653 16.3227V15.9887C30.0653 15.9575 30.0988 15.9331 30.1413 15.9331C30.1839 15.9331 30.2174 15.9575 30.2174 15.9887V16.3227C30.2174 16.3539 30.1839 16.3783 30.1413 16.3783ZM30.1413 15.7104C30.0988 15.7104 30.0653 15.6859 30.0653 15.6547V15.3208C30.0653 15.2896 30.0988 15.2651 30.1413 15.2651C30.1839 15.2651 30.2174 15.2896 30.2174 15.3208V15.6547C30.2174 15.6859 30.1839 15.7104 30.1413 15.7104ZM30.1413 15.0425C30.0988 15.0425 30.0653 15.018 30.0653 14.9868V14.6528C30.0653 14.6217 30.0988 14.5972 30.1413 14.5972C30.1839 14.5972 30.2174 14.6217 30.2174 14.6528V14.9868C30.2174 15.018 30.1839 15.0425 30.1413 15.0425ZM30.1413 14.3745C30.0988 14.3745 30.0653 14.35 30.0653 14.3188V13.9849C30.0653 13.9537 30.0988 13.9292 30.1413 13.9292C30.1839 13.9292 30.2174 13.9537 30.2174 13.9849V14.3188C30.2174 14.35 30.1839 14.3745 30.1413 14.3745ZM30.1413 13.7066C30.0988 13.7066 30.0653 13.6821 30.0653 13.6509V13.3169C30.0653 13.2858 30.0988 13.2613 30.1413 13.2613C30.1839 13.2613 30.2174 13.2858 30.2174 13.3169V13.6509C30.2174 13.6821 30.1839 13.7066 30.1413 13.7066ZM30.1413 13.0386C30.0988 13.0386 30.0653 13.0141 30.0653 12.983V12.649C30.0653 12.6178 30.0988 12.5933 30.1413 12.5933C30.1839 12.5933 30.2174 12.6178 30.2174 12.649V12.983C30.2174 13.0141 30.1839 13.0386 30.1413 13.0386ZM30.1413 12.3707C30.0988 12.3707 30.0653 12.3462 30.0653 12.315V11.981C30.0653 11.9499 30.0988 11.9254 30.1413 11.9254C30.1839 11.9254 30.2174 11.9499 30.2174 11.981V12.315C30.2174 12.3462 30.1839 12.3707 30.1413 12.3707ZM30.1383 11.7027C30.0988 11.7027 30.0653 11.6805 30.0623 11.6493C30.0532 11.5402 30.038 11.4311 30.0106 11.3242C30.0045 11.2931 30.0319 11.2641 30.0714 11.2597C30.1109 11.253 30.1535 11.273 30.1596 11.3042C30.187 11.4155 30.2052 11.5291 30.2143 11.6426C30.2143 11.6738 30.1839 11.6983 30.1413 11.7005H30.1383V11.7027ZM29.9741 11.0481C29.9407 11.0481 29.9133 11.0326 29.9012 11.0103C29.8556 10.9056 29.8008 10.8054 29.737 10.7075C29.7187 10.6808 29.737 10.6474 29.7735 10.634C29.81 10.6229 29.8556 10.634 29.8738 10.6607C29.9407 10.7631 29.9985 10.87 30.0441 10.9769C30.0562 11.0058 30.0349 11.037 29.9954 11.0459C29.9863 11.0459 29.9802 11.0481 29.9711 11.0481H29.9741ZM29.588 10.4448C29.5637 10.4448 29.5394 10.4359 29.5242 10.418C29.4451 10.3268 29.357 10.2377 29.2597 10.1553C29.2323 10.1308 29.2354 10.0974 29.2688 10.0774C29.3022 10.0573 29.3478 10.0596 29.3752 10.0841C29.4755 10.1709 29.5667 10.2622 29.6519 10.3579C29.6731 10.3846 29.664 10.418 29.6275 10.4359C29.6154 10.4425 29.6002 10.4448 29.588 10.4448ZM29.0043 9.93489C28.986 9.93489 28.9678 9.93044 28.9526 9.91931C28.8432 9.84583 28.7276 9.77681 28.606 9.71447C28.5726 9.69666 28.5634 9.66103 28.5878 9.63654C28.6121 9.61205 28.6577 9.60537 28.6942 9.62319C28.8219 9.68775 28.9435 9.76122 29.056 9.83693C29.0864 9.85696 29.0894 9.89259 29.059 9.91485C29.0438 9.92599 29.0225 9.93267 29.0043 9.93267V9.93489ZM28.2594 9.55194C28.2594 9.55194 28.2351 9.55194 28.2229 9.54526L27.8247 9.38272C27.7882 9.36714 27.776 9.33374 27.7943 9.30702C27.8156 9.28031 27.8612 9.26917 27.8976 9.28476L28.2959 9.44729C28.3324 9.46288 28.3446 9.49628 28.3263 9.52299C28.3111 9.54081 28.2868 9.55194 28.2594 9.55194ZM27.4629 9.2291C27.4629 9.2291 27.4386 9.2291 27.4264 9.22242L27.0281 9.05988C26.9916 9.0443 26.9795 9.0109 26.9977 8.98418C27.019 8.95747 27.0646 8.94856 27.1011 8.96192L27.4994 9.12445C27.5358 9.14004 27.548 9.17343 27.5298 9.20015C27.5146 9.21796 27.4902 9.2291 27.4629 9.2291ZM26.6663 8.90625C26.6663 8.90625 26.642 8.90626 26.6298 8.89958L26.2316 8.73704C26.1951 8.72146 26.1829 8.68806 26.2012 8.66134C26.2224 8.63462 26.2681 8.62349 26.3045 8.63908L26.7028 8.80161C26.7393 8.81719 26.7515 8.85059 26.7332 8.87731C26.718 8.89512 26.6937 8.90625 26.6663 8.90625ZM25.8698 8.58342C25.8698 8.58342 25.8455 8.58119 25.8333 8.57674L25.435 8.4142C25.3985 8.39861 25.3864 8.36522 25.4046 8.3385C25.4259 8.31178 25.4715 8.30288 25.508 8.31624L25.9063 8.47877C25.9427 8.49436 25.9549 8.52775 25.9367 8.55447C25.9215 8.57228 25.8971 8.58342 25.8698 8.58342ZM25.0732 8.26057C25.0732 8.26057 25.0489 8.25835 25.0368 8.25389L24.6385 8.09136C24.602 8.07577 24.5898 8.04238 24.6081 8.01566C24.6294 7.98894 24.675 7.98003 24.7114 7.99339L25.1097 8.15593C25.1462 8.17151 25.1584 8.20491 25.1401 8.23163C25.1249 8.24944 25.1006 8.26057 25.0732 8.26057ZM24.2767 7.93773C24.2767 7.93773 24.2524 7.9355 24.2402 7.93105L23.8419 7.76852C23.8054 7.75293 23.7933 7.71954 23.8115 7.69282C23.8328 7.6661 23.8784 7.65719 23.9149 7.67055L24.3132 7.83309C24.3497 7.84867 24.3618 7.88207 24.3436 7.90879C24.3284 7.9266 24.3041 7.93773 24.2767 7.93773ZM23.4801 7.61489C23.4801 7.61489 23.4558 7.61266 23.4437 7.60821L23.0454 7.44568C23.0089 7.43009 22.9967 7.3967 23.015 7.36998C23.0363 7.34326 23.0819 7.33435 23.1183 7.34771L23.5166 7.51025C23.5531 7.52583 23.5653 7.55923 23.547 7.58595C23.5318 7.60376 23.5075 7.61489 23.4801 7.61489ZM22.6836 7.29205C22.6836 7.29205 22.6593 7.28982 22.6471 7.28537L22.2488 7.12284C22.2123 7.10725 22.2002 7.07385 22.2184 7.04714C22.2397 7.02042 22.2853 7.01151 22.3218 7.02487L22.7201 7.18741C22.7566 7.20299 22.7687 7.23639 22.7505 7.26311C22.7353 7.28092 22.711 7.29205 22.6836 7.29205ZM21.887 6.96921C21.887 6.96921 21.8627 6.96698 21.8506 6.96253L21.4523 6.8C21.4158 6.78441 21.4036 6.75101 21.4219 6.7243C21.4432 6.69758 21.4888 6.68867 21.5253 6.70203L21.9235 6.86457C21.96 6.88015 21.9722 6.91355 21.9539 6.94027C21.9387 6.95808 21.9144 6.96921 21.887 6.96921ZM21.0905 6.64637C21.0905 6.64637 21.0662 6.64414 21.054 6.63969L20.6557 6.47716C20.6193 6.46157 20.6071 6.42817 20.6253 6.40146C20.6466 6.37474 20.6922 6.36583 20.7287 6.37919L21.127 6.54173C21.1635 6.55731 21.1756 6.59071 21.1574 6.61742C21.1422 6.63524 21.1179 6.64637 21.0905 6.64637ZM20.2939 6.32353C20.2939 6.32353 20.2696 6.3213 20.2575 6.31685L19.8592 6.15431C19.8227 6.13873 19.8105 6.10533 19.8288 6.07862C19.8501 6.0519 19.8957 6.04299 19.9322 6.05635L20.3304 6.21888C20.3669 6.23447 20.3791 6.26787 20.3608 6.29459C20.3456 6.3124 20.3213 6.32353 20.2939 6.32353ZM19.4974 6.00069C19.4974 6.00069 19.4731 5.99846 19.4609 5.99401L19.0626 5.83147C19.0262 5.81589 19.014 5.78249 19.0322 5.75577C19.0535 5.72906 19.0991 5.72015 19.1356 5.73351L19.5339 5.89604C19.5704 5.91163 19.5825 5.94502 19.5643 5.97174C19.5491 5.98955 19.5248 6.00069 19.4974 6.00069ZM18.7009 5.67785C18.7009 5.67785 18.6765 5.67562 18.6644 5.67117L18.2661 5.50864C18.2296 5.49305 18.2175 5.45965 18.2357 5.43293C18.257 5.40621 18.3026 5.39731 18.3391 5.41067L18.7373 5.5732C18.7738 5.58879 18.786 5.62218 18.7677 5.6489C18.7525 5.66671 18.7282 5.67785 18.7009 5.67785ZM17.9043 5.35501C17.9043 5.35501 17.88 5.35278 17.8678 5.34833L17.4695 5.18579C17.4331 5.17021 17.4209 5.13681 17.4391 5.11009C17.4604 5.08337 17.506 5.07447 17.5425 5.08783L17.9408 5.25036C17.9773 5.26595 17.9894 5.29934 17.9712 5.32606C17.956 5.34387 17.9317 5.35501 17.9043 5.35501ZM17.1078 5.03217C17.1078 5.03217 17.0834 5.02994 17.0713 5.02548L16.673 4.86295C16.6365 4.84737 16.6244 4.81397 16.6426 4.78725C16.6639 4.76053 16.7095 4.75163 16.746 4.76499L17.1442 4.92752C17.1807 4.94311 17.1929 4.9765 17.1746 5.00322C17.1594 5.02103 17.1351 5.03217 17.1078 5.03217ZM16.3112 4.70932C16.3112 4.70932 16.2869 4.7071 16.2747 4.70264L15.8765 4.54011C15.84 4.52453 15.8278 4.49113 15.846 4.46441C15.8673 4.43769 15.9129 4.42879 15.9494 4.44214L16.3477 4.60468C16.3842 4.62026 16.3963 4.65366 16.3781 4.68038C16.3629 4.69819 16.3386 4.70932 16.3112 4.70932ZM15.5147 4.38648C15.5147 4.38648 15.4903 4.38426 15.4782 4.3798L15.0799 4.21727C15.0434 4.20169 15.0313 4.16829 15.0495 4.14157C15.0708 4.11485 15.1164 4.10595 15.1529 4.1193L15.5511 4.28184C15.5876 4.29742 15.5998 4.33082 15.5815 4.35754C15.5663 4.37535 15.542 4.38648 15.5147 4.38648ZM14.7181 4.06364C14.7181 4.06364 14.6938 4.06142 14.6816 4.05696L14.2834 3.89443C14.2469 3.87885 14.2347 3.84545 14.253 3.81873C14.2742 3.79201 14.3198 3.78311 14.3563 3.79646L14.7546 3.959C14.7911 3.97458 14.8032 4.00798 14.785 4.0347C14.7698 4.05251 14.7455 4.06364 14.7181 4.06364ZM13.9216 3.7408C13.9216 3.7408 13.8972 3.73858 13.8851 3.73412L13.4868 3.57159C13.4503 3.556 13.4382 3.52261 13.4564 3.49589C13.4777 3.46917 13.5233 3.46027 13.5598 3.47362L13.958 3.63616C13.9945 3.65174 14.0067 3.68514 13.9885 3.71186C13.9733 3.72967 13.9489 3.7408 13.9216 3.7408ZM2.17401 3.47362C2.17401 3.47362 2.14664 3.4714 2.13448 3.46472C2.00071 3.40015 1.87606 3.32667 1.76965 3.24429C1.73925 3.22203 1.74229 3.18641 1.76965 3.16637C1.80005 3.14633 1.8487 3.14633 1.87606 3.16637C1.97639 3.24207 2.08888 3.31109 2.21353 3.36898C2.25001 3.38456 2.25913 3.42019 2.23785 3.4469C2.22265 3.46249 2.19833 3.4714 2.17401 3.4714V3.47362ZM13.122 3.41796C13.122 3.41796 13.0977 3.41573 13.0855 3.41128L12.6872 3.24875C12.6507 3.23316 12.6386 3.19976 12.6568 3.17305C12.6781 3.14633 12.7237 3.13742 12.7602 3.15078L13.1585 3.31332C13.1949 3.3289 13.2071 3.3623 13.1889 3.38902C13.1737 3.40683 13.1493 3.41796 13.122 3.41796ZM12.3254 3.09512C12.3254 3.09512 12.3011 3.09289 12.2889 3.08844L11.8907 2.92591C11.8542 2.91032 11.842 2.87692 11.8603 2.85021C11.8816 2.82349 11.9272 2.81458 11.9636 2.82794L12.3619 2.99047C12.3984 3.00606 12.4106 3.03946 12.3923 3.06618C12.3771 3.08399 12.3528 3.09512 12.3254 3.09512ZM1.55075 2.99716C1.52339 2.99716 1.49907 2.98825 1.48387 2.97044C1.40786 2.8747 1.34402 2.76783 1.29537 2.65427C1.28321 2.62533 1.30449 2.59416 1.34401 2.58303C1.38354 2.57412 1.4261 2.58971 1.4413 2.61865C1.48691 2.7233 1.54771 2.82349 1.61764 2.91255C1.63892 2.93927 1.62676 2.97266 1.59028 2.98825C1.57812 2.9927 1.56595 2.99493 1.55379 2.99493L1.55075 2.99716ZM11.5289 2.77005C11.5289 2.77005 11.5046 2.76783 11.4924 2.76337L11.0941 2.60084C11.0576 2.58525 11.0455 2.55186 11.0637 2.52514C11.085 2.49842 11.1306 2.48952 11.1671 2.50288L11.5654 2.66541C11.6018 2.68099 11.614 2.71439 11.5958 2.74111C11.5806 2.75892 11.5562 2.77005 11.5289 2.77005ZM10.7323 2.44721C10.7323 2.44721 10.708 2.44499 10.6958 2.44053L10.2976 2.278C10.2611 2.26241 10.2489 2.22902 10.2672 2.2023C10.2885 2.17558 10.3341 2.16667 10.3705 2.18003L10.7688 2.34257C10.8053 2.35815 10.8175 2.39155 10.7992 2.41827C10.784 2.43608 10.7597 2.44721 10.7323 2.44721ZM1.26801 2.36706C1.23152 2.36706 1.19808 2.34702 1.192 2.3203C1.17072 2.21343 1.15856 2.09765 1.15552 1.97965C1.15552 1.94848 1.18896 1.92399 1.23152 1.92399C1.27409 1.92399 1.30753 1.94848 1.30753 1.97965C1.30753 2.0932 1.32273 2.2023 1.34097 2.30472C1.34705 2.33589 1.31969 2.36261 1.27713 2.36706C1.27409 2.36706 1.27105 2.36706 1.26497 2.36706H1.26801ZM9.93578 2.12437C9.93578 2.12437 9.91146 2.12214 9.8993 2.11769L9.50103 1.95516C9.46454 1.93957 9.45238 1.90618 9.47062 1.87946C9.4919 1.85274 9.53751 1.84383 9.57399 1.85719L9.97227 2.01972C10.0088 2.03531 10.0209 2.06871 10.0027 2.09543C9.98747 2.11324 9.96314 2.12437 9.93578 2.12437ZM9.13924 1.80153C9.13924 1.80153 9.11492 1.7993 9.10275 1.79485L8.70448 1.63232C8.668 1.61673 8.65584 1.58334 8.67408 1.55662C8.69536 1.5299 8.74096 1.52099 8.77744 1.53435L9.17572 1.69688C9.2122 1.71247 9.22436 1.74587 9.20612 1.77259C9.19092 1.7904 9.1666 1.80153 9.13924 1.80153ZM1.27409 1.70579C1.27409 1.70579 1.25889 1.70579 1.25281 1.70579C1.21328 1.69689 1.18896 1.66572 1.20112 1.63677C1.24673 1.52545 1.32577 1.4208 1.43522 1.32506C1.46258 1.3028 1.51123 1.29834 1.54163 1.31838C1.57203 1.33842 1.57811 1.37405 1.55075 1.39631C1.45346 1.47869 1.38658 1.56775 1.34706 1.66571C1.33793 1.6902 1.30753 1.70579 1.27409 1.70579ZM8.33965 1.47869C8.33965 1.47869 8.31533 1.47646 8.30316 1.47201L7.90489 1.30948C7.86841 1.29389 7.85625 1.26049 7.87449 1.23377C7.89577 1.20706 7.94138 1.19815 7.97786 1.21151L8.37613 1.37404C8.41262 1.38963 8.42478 1.42303 8.40654 1.44974C8.39134 1.46756 8.36701 1.47869 8.33965 1.47869ZM1.83958 1.20038C1.81525 1.20038 1.79093 1.19147 1.77573 1.17366C1.75445 1.14694 1.76357 1.11354 1.80005 1.09796C1.82437 1.08683 1.85174 1.07569 1.87606 1.06456C1.98247 1.02003 2.09496 0.977731 2.21049 0.937654C2.24697 0.924295 2.29258 0.937653 2.31082 0.964371C2.32906 0.991089 2.31082 1.02449 2.27434 1.03785C2.16185 1.0757 2.05543 1.11577 1.95206 1.1603C1.92774 1.17144 1.90342 1.18034 1.8791 1.19147C1.86694 1.19815 1.85174 1.20038 1.83958 1.20038ZM7.5431 1.15362C7.5431 1.15362 7.51878 1.15139 7.50662 1.14694C7.37893 1.09573 7.24516 1.04675 7.10531 1.00222C7.06578 0.991088 7.04754 0.95769 7.06578 0.928746C7.08098 0.899802 7.12659 0.886442 7.16611 0.899801C7.31204 0.94433 7.45189 0.995543 7.58262 1.04898C7.61911 1.06456 7.63127 1.09796 7.61303 1.12468C7.59783 1.14249 7.57351 1.15362 7.54614 1.15362H7.5431ZM2.66653 0.919842C2.63612 0.919842 2.60572 0.906483 2.59356 0.881992C2.5814 0.853047 2.59964 0.821875 2.63917 0.810742C2.77902 0.775119 2.92799 0.741721 3.08304 0.712776C3.12256 0.703871 3.16513 0.723911 3.17425 0.752855C3.18337 0.781799 3.15905 0.812967 3.11953 0.819647C2.97055 0.846365 2.82766 0.879764 2.68781 0.915388C2.67869 0.915388 2.67261 0.917613 2.66349 0.917613L2.66653 0.919842ZM6.70703 0.893121C6.70703 0.893121 6.69183 0.893123 6.68271 0.890896C6.54286 0.857499 6.39692 0.828555 6.24795 0.804063C6.20843 0.797384 6.18106 0.766212 6.19019 0.737268C6.19931 0.708324 6.23883 0.688285 6.28139 0.694964C6.43341 0.721682 6.58238 0.750628 6.72831 0.784026C6.76784 0.792932 6.78912 0.824102 6.77696 0.853046C6.76784 0.877538 6.73743 0.890896 6.70399 0.890896L6.70703 0.893121ZM3.5482 0.75508C3.51172 0.75508 3.48131 0.73504 3.47219 0.708323C3.46611 0.677152 3.49348 0.648209 3.533 0.643756C3.68197 0.623717 3.83703 0.608131 3.98904 0.596998C4.0316 0.596998 4.06809 0.617037 4.07417 0.645981C4.07721 0.677152 4.04681 0.703871 4.00728 0.706097C3.85527 0.71723 3.7063 0.732817 3.56036 0.752855C3.55732 0.752855 3.55124 0.752855 3.5482 0.752855V0.75508ZM5.81927 0.741722C5.81927 0.741722 5.81015 0.741722 5.80711 0.741722C5.66118 0.72391 5.51221 0.710549 5.3602 0.701643C5.31763 0.699417 5.28723 0.672701 5.29027 0.641531C5.29331 0.61036 5.32979 0.588092 5.37235 0.590319C5.52741 0.599225 5.68246 0.614812 5.83144 0.630397C5.874 0.63485 5.90136 0.663793 5.89528 0.694964C5.8892 0.721682 5.85576 0.741722 5.81927 0.741722ZM4.4542 0.68606C4.41468 0.68606 4.38123 0.661567 4.37819 0.632623C4.37819 0.601452 4.40859 0.576962 4.45116 0.574735C4.60317 0.570282 4.75822 0.57028 4.91328 0.572507C4.95584 0.572507 4.98929 0.599227 4.98625 0.630397C4.98625 0.661568 4.9528 0.683831 4.91024 0.683831C4.76127 0.681605 4.60925 0.683833 4.46028 0.68606H4.4542Z" fill="#FF63CE"/>
</g>
</g>
<path d="M1.90957 2.93463C1.13127 2.60288 0.489771 2.00173 0.422885 1.57202V18.6202C0.349919 19.1279 0.991413 19.8225 1.90957 20.2122V20.2233L22.7657 28.822C23.8116 29.2651 25.122 28.7129 25.122 27.829V14.0381C25.122 12.9939 24.3588 12.0298 23.1215 11.5088L1.90957 2.93463Z" fill="#FF63CE"/>
<path style="mix-blend-mode:color-dodge" d="M1.66029 6.11865C1.66029 6.11865 -0.00272685 8.3919 1.5326 9.11551L7.80162 16.7635L28.2474 25.1818C29.2932 25.6249 30.6036 25.0728 30.6036 24.1888V17.5739L1.66333 6.12088L1.66029 6.11865Z" fill="url(#paint5_radial_1_4932)"/>
<path d="M1.66019 6.11865C1.66019 6.11865 0.790678 7.30537 0.887966 8.23827C0.967013 7.37217 1.66019 6.31458 1.66019 6.31458L30.6004 17.7676V17.5717L1.66019 6.11865Z" fill="#FF63CE"/>
<path style="mix-blend-mode:color-dodge" d="M1.66029 9.26245C1.66029 9.26245 -0.00272685 11.5357 1.5326 12.2593L7.80162 17.8723L28.2474 26.2906C29.2932 26.7337 30.6036 26.1815 30.6036 25.2976V20.7177L1.66333 9.26468L1.66029 9.26245Z" fill="url(#paint6_radial_1_4932)"/>
<path d="M24.5748 8.22499L7.0051 1.01562C5.82852 0.516886 3.92228 0.51466 2.75178 1.00894C1.6208 1.48764 1.59952 2.25355 2.66361 2.75451L7.0051 12.6846L23.1975 19.4153L24.5717 8.22499H24.5748Z" fill="url(#paint7_linear_1_4932)"/>
<path d="M14.3504 4.05923L7.0051 1.01562C5.82852 0.516886 3.92228 0.51466 2.75178 1.00894C1.6208 1.48764 1.59952 2.25355 2.66361 2.75451L7.0051 12.6846L14.3504 15.8129V4.05923Z" fill="url(#paint8_linear_1_4932)"/>
<path d="M24.9396 8.82443L7.21797 1.46365C6.26333 1.05843 4.71887 1.05843 3.76727 1.4592C2.84911 1.84661 2.83088 2.4678 3.69431 2.87525L7.21797 10.7503L24.888 18.031L24.9396 8.82443Z" fill="url(#paint9_linear_1_4932)"/>
<path d="M15.0649 4.75907L7.21797 1.4661C6.26333 1.06088 4.71887 1.06087 3.76727 1.46164C2.84911 1.84905 2.83088 2.47024 3.69431 2.87769L7.21797 10.7528L15.0618 14.1148V4.7613L15.0649 4.75907Z" fill="url(#paint10_linear_1_4932)"/>
<path d="M26.5599 9.93685L7.43367 1.90145C6.50031 1.50737 4.99538 1.50514 4.0681 1.897C3.17123 2.27551 3.15603 2.88111 3.99818 3.27743L7.43671 10.961L26.5113 18.9185L26.5599 9.93462V9.93685Z" fill="url(#paint11_linear_1_4932)"/>
<path d="M15.089 5.11428L7.43367 1.90145C6.50031 1.50737 4.99538 1.50514 4.0681 1.897C3.17123 2.27551 3.15603 2.88111 3.99818 3.27743L7.43671 10.961L15.0921 14.2407V5.11428H15.089Z" fill="url(#paint12_linear_1_4932)"/>
<path d="M30.6095 12.7158L6.27834 2.61646C5.54868 2.30698 4.36602 2.30698 3.64244 2.61201C2.94014 2.90813 2.92798 3.3846 3.58771 3.69408L6.28138 7.4613L30.6126 17.6119V12.7136L30.6095 12.7158Z" fill="url(#paint13_linear_1_4932)"/>
<path d="M6.27846 2.61646C5.54879 2.30698 4.36613 2.30698 3.64255 2.61201C3.21083 2.79458 3.04058 3.04395 3.12875 3.28218C3.18043 3.11965 3.34765 2.96157 3.64255 2.83466C4.36917 2.5274 5.54879 2.52963 6.27846 2.83911L30.6096 12.9385V12.7158L6.27846 2.61646Z" fill="#FF63CE"/>
<path d="M29.43 17.1486L13.7271 10.556V7.33868C13.7271 6.91787 14.3503 6.65292 14.8489 6.86443L28.3051 12.5531C29.0013 12.847 29.43 13.3903 29.43 13.9781V17.1486Z" fill="url(#paint14_linear_1_4932)"/>
<path style="mix-blend-mode:color-dodge" d="M28.3052 12.5532L14.849 6.86449C14.4903 6.71309 14.0677 6.80883 13.8579 7.03148C14.0829 6.9157 14.3869 6.88898 14.6575 7.00253L28.1137 12.6912C28.8099 12.9851 29.2386 13.5284 29.2386 14.1162V17.0663L29.4271 17.1464V13.9759C29.4271 13.3881 28.9984 12.8448 28.3022 12.5509L28.3052 12.5532Z" fill="url(#paint15_radial_1_4932)"/>
<g style="mix-blend-mode:multiply">
<path d="M27.7184 14.9579L24.5049 13.5997C24.0762 13.4172 23.7266 12.9296 23.7266 12.5088C23.7266 12.088 24.0762 11.8965 24.5049 12.0768L27.7184 13.435C28.1471 13.6176 28.4967 14.1052 28.4967 14.526C28.4967 14.9468 28.1471 15.1382 27.7184 14.9579Z" fill="#F7AA90"/>
</g>
<path d="M28.5941 19.9872L12.8911 13.3946V10.1773C12.8911 9.75649 13.5144 9.49154 14.013 9.70306L27.4692 15.3917C28.1654 15.6856 28.5941 16.2289 28.5941 16.8167V19.9872Z" fill="url(#paint16_linear_1_4932)"/>
<path style="mix-blend-mode:color-dodge" d="M27.469 15.3923L14.0128 9.7036C13.6541 9.5522 13.2315 9.64794 13.0217 9.87059C13.2467 9.75481 13.5507 9.72809 13.8213 9.84164L27.2775 15.5303C27.9737 15.8242 28.4024 16.3675 28.4024 16.9553V19.9054L28.5909 19.9855V16.815C28.5909 16.2272 28.1622 15.6839 27.466 15.3901L27.469 15.3923Z" fill="url(#paint17_radial_1_4932)"/>
<g style="mix-blend-mode:multiply">
<path d="M26.8825 17.7965L23.6689 16.4384C23.2403 16.2558 22.8906 15.7682 22.8906 15.3474C22.8906 14.9266 23.2403 14.7351 23.6689 14.9155L26.8825 16.2736C27.3112 16.4562 27.6608 16.9438 27.6608 17.3646C27.6608 17.7854 27.3112 17.9769 26.8825 17.7965Z" fill="#819EC7"/>
</g>
<path d="M23.7691 18.7653V11.9033L3.6487 3.72764C3.31427 3.58515 3.14098 3.40257 3.11057 3.21777V9.90837C3.08017 10.1266 3.25346 10.3492 3.6487 10.5162V10.5207L23.7691 18.7653Z" fill="url(#paint18_linear_1_4932)"/>
<path d="M18.1751 18.1417V8.79264L3.7764 2.91694C3.33861 2.73214 3.11059 2.49168 3.0741 2.25122V11.3754C3.03154 11.6604 3.25956 11.952 3.7764 12.1702V12.1769L18.1751 18.1417Z" fill="url(#paint19_linear_1_4932)"/>
<path d="M17.6734 20.5842V8.83723L2.76088 2.8079C2.21972 2.57857 1.94001 2.28468 1.89441 1.98633V13.4572C1.84273 13.809 2.12547 14.1674 2.76088 14.4369V14.4458L17.6734 20.5864V20.5842Z" fill="url(#paint20_linear_1_4932)"/>
<path style="mix-blend-mode:multiply" d="M23.8118 11.4801L2.59989 2.90593C1.82158 2.57418 1.41419 2.15115 1.35034 1.72144V3.45142C1.40811 3.48259 1.46587 3.51376 1.52972 3.54493L7.79873 18.1462L25.8123 25.5404V14.0117C25.8123 12.9674 25.0492 12.0034 23.8118 11.4824V11.4801Z" fill="url(#paint21_radial_1_4932)"/>
<path d="M1.90957 2.93463C1.13127 2.60288 0.489771 2.00173 0.422885 1.57202V18.6202C0.349919 19.1279 0.991413 19.8225 1.90957 20.2122V20.2233L22.7657 28.822C23.8116 29.2651 25.122 28.7129 25.122 27.829V14.0381C25.122 12.9939 24.3588 12.0298 23.1215 11.5088L1.90957 2.93463Z" fill="url(#paint22_linear_1_4932)"/>
<path style="mix-blend-mode:color-dodge" d="M1.90957 2.93463C1.13127 2.60288 0.489771 2.00173 0.422885 1.57202V18.6202C0.349919 19.1279 0.991413 19.8225 1.90957 20.2122V20.2233L22.7657 28.822C23.8116 29.2651 25.122 28.7129 25.122 27.829V14.0381C25.122 12.9939 24.3588 12.0298 23.1215 11.5088L1.90957 2.93463Z" fill="url(#paint23_radial_1_4932)"/>
<path d="M1.65121 3.1259C0.8729 2.79415 0.465505 2.37112 0.40166 1.94141V18.9896C0.328694 19.4973 0.733048 20.0138 1.65121 20.4035V20.4146L22.5074 29.0133C23.5532 29.4564 24.8636 28.9042 24.8636 28.0203V14.2294C24.8636 13.1852 24.1005 12.2211 22.8631 11.7001L1.65121 3.1259Z" fill="url(#paint24_linear_1_4932)"/>
<g style="mix-blend-mode:multiply" opacity="0.3">
<g style="mix-blend-mode:multiply" opacity="0.3">
<path d="M23.2918 29.0025C23.0577 29.0025 22.8327 28.958 22.6229 28.8689L1.95218 20.3459L1.75456 20.2524C1.20428 20.0186 0.833366 19.7269 0.690473 19.4086C0.65095 19.3217 0.714796 19.226 0.833366 19.197C0.954976 19.1681 1.08267 19.2149 1.12219 19.3017C1.23164 19.5399 1.53262 19.7715 1.99474 19.9674L2.18932 20.0587L22.8479 28.5772C23.1975 28.7264 23.6292 28.6797 23.912 28.4837C24.0853 28.3635 24.1795 28.1965 24.1795 28.0184V14.2275C24.1795 13.3636 23.5471 12.5643 22.5287 12.1368L1.31068 3.56042C1.08875 3.4669 0.88809 3.36448 0.708714 3.25316C0.611426 3.19304 0.599266 3.0884 0.681353 3.01715C0.76344 2.9459 0.906331 2.937 1.00362 2.99711C1.16171 3.09508 1.34109 3.18636 1.53567 3.26874L22.7506 11.8452C23.912 12.3328 24.6325 13.2456 24.6325 14.2275V28.0184C24.6325 28.29 24.4866 28.5394 24.2251 28.7242C23.9728 28.9001 23.6323 29.0025 23.2887 29.0025H23.2918Z" fill="#B086CC"/>
</g>
</g>
<g style="mix-blend-mode:screen">
<g style="mix-blend-mode:screen">
<path d="M23.2431 28.8915H23.2401C23.0789 28.887 22.9208 28.8558 22.7719 28.8024C22.7354 28.789 22.7202 28.7557 22.7384 28.7289C22.7567 28.7022 22.8023 28.6911 22.8388 28.7044C22.9695 28.7512 23.1063 28.7779 23.2461 28.7824C23.2887 28.7824 23.3222 28.8091 23.3191 28.8403C23.3191 28.8692 23.2826 28.8937 23.2431 28.8937V28.8915ZM23.69 28.838C23.6596 28.838 23.6323 28.8247 23.6201 28.8024C23.6049 28.7735 23.6231 28.7423 23.6627 28.7312C23.7934 28.6933 23.915 28.6376 24.0153 28.5664C24.0457 28.5441 24.0944 28.5441 24.1248 28.5664C24.1552 28.5887 24.1552 28.6221 24.1248 28.6443C24.1248 28.6443 24.1157 28.651 24.1126 28.651C24.0032 28.7289 23.8664 28.7913 23.7174 28.8336C23.7083 28.8358 23.6992 28.838 23.69 28.838ZM22.407 28.6465C22.407 28.6465 22.3827 28.6443 22.3706 28.6399L21.9723 28.4751C21.9358 28.4595 21.9236 28.4261 21.9449 28.3994C21.9662 28.3727 22.0118 28.3638 22.0483 28.3794L22.4466 28.5441C22.483 28.5597 22.4952 28.5931 22.4739 28.6198C22.4587 28.6376 22.4344 28.6488 22.407 28.6488V28.6465ZM24.3254 28.3861C24.3254 28.3861 24.3072 28.3861 24.2981 28.3816C24.2586 28.3705 24.2403 28.3371 24.2555 28.3081C24.3042 28.2168 24.3315 28.1211 24.3315 28.0209V28.0031C24.3315 27.9719 24.365 27.9474 24.4075 27.9474C24.4501 27.9474 24.4835 27.9719 24.4835 28.0031V28.0209C24.4835 28.1367 24.4531 28.2458 24.3984 28.3504C24.3862 28.3727 24.3589 28.3861 24.3285 28.3861H24.3254ZM21.6135 28.3193C21.6135 28.3193 21.5892 28.317 21.577 28.3126L21.1788 28.1478C21.1423 28.1322 21.1301 28.0988 21.1484 28.0721C21.1697 28.0454 21.2153 28.0365 21.2517 28.0499L21.65 28.2146C21.6865 28.2302 21.6987 28.2636 21.6804 28.2903C21.6652 28.3081 21.6409 28.3193 21.6135 28.3193ZM20.82 27.992C20.82 27.992 20.7957 27.9897 20.7835 27.9853L20.3853 27.8205C20.3488 27.8049 20.3366 27.7715 20.3579 27.7448C20.3792 27.7181 20.4248 27.7092 20.4613 27.7248L20.8596 27.8895C20.896 27.9051 20.9082 27.9385 20.8869 27.9652C20.8717 27.9831 20.8474 27.9942 20.82 27.9942V27.992ZM24.4075 27.7248C24.365 27.7248 24.3315 27.7003 24.3315 27.6691V27.3352C24.3315 27.304 24.365 27.2795 24.4075 27.2795C24.4501 27.2795 24.4835 27.304 24.4835 27.3352V27.6691C24.4835 27.7003 24.4501 27.7248 24.4075 27.7248ZM20.0235 27.6624C20.0235 27.6624 19.9991 27.6602 19.987 27.6558L19.5887 27.491C19.5522 27.4754 19.5401 27.442 19.5614 27.4153C19.5826 27.3886 19.6282 27.3797 19.6647 27.3953L20.063 27.56C20.0995 27.5756 20.1116 27.609 20.0904 27.6357C20.0752 27.6535 20.0508 27.6647 20.0235 27.6647V27.6624ZM19.23 27.3352C19.23 27.3352 19.2056 27.3329 19.1935 27.3285L18.7952 27.1637C18.7587 27.1481 18.7466 27.1147 18.7678 27.088C18.7891 27.0613 18.8347 27.0524 18.8712 27.068L19.2695 27.2327C19.306 27.2483 19.3181 27.2817 19.2969 27.3084C19.2817 27.3262 19.2573 27.3374 19.23 27.3374V27.3352ZM24.4075 27.0568C24.365 27.0568 24.3315 27.0324 24.3315 27.0012V26.6672C24.3315 26.636 24.365 26.6115 24.4075 26.6115C24.4501 26.6115 24.4835 26.636 24.4835 26.6672V27.0012C24.4835 27.0324 24.4501 27.0568 24.4075 27.0568ZM18.4334 27.0079C18.4334 27.0079 18.4091 27.0056 18.3969 27.0012L17.9987 26.8364C17.9622 26.8208 17.95 26.7874 17.9713 26.7607C17.9926 26.734 18.0382 26.7251 18.0747 26.7407L18.4729 26.9054C18.5094 26.921 18.5216 26.9544 18.5003 26.9811C18.4851 26.999 18.4608 27.0101 18.4334 27.0101V27.0079ZM17.6399 26.6806C17.6399 26.6806 17.6156 26.6783 17.6034 26.6739L17.2052 26.5091C17.1687 26.4935 17.1565 26.4601 17.1778 26.4334C17.1991 26.4067 17.2447 26.3978 17.2812 26.4134L17.6794 26.5781C17.7159 26.5937 17.7281 26.6271 17.7068 26.6538C17.6916 26.6717 17.6673 26.6828 17.6399 26.6828V26.6806ZM24.4075 26.3889C24.365 26.3889 24.3315 26.3644 24.3315 26.3332V25.9993C24.3315 25.9681 24.365 25.9436 24.4075 25.9436C24.4501 25.9436 24.4835 25.9681 24.4835 25.9993V26.3332C24.4835 26.3644 24.4501 26.3889 24.4075 26.3889ZM16.8464 26.3533C16.8464 26.3533 16.8221 26.351 16.8099 26.3466L16.4116 26.1818C16.3752 26.1662 16.363 26.1328 16.3843 26.1061C16.4056 26.0794 16.4512 26.0705 16.4877 26.0861L16.8859 26.2509C16.9224 26.2664 16.9346 26.2998 16.9133 26.3266C16.8981 26.3444 16.8738 26.3555 16.8464 26.3555V26.3533ZM16.0529 26.026C16.0529 26.026 16.0286 26.0238 16.0164 26.0193L15.6181 25.8545C15.5817 25.839 15.5695 25.8056 15.5908 25.7788C15.6121 25.7521 15.6577 25.7432 15.6941 25.7588L16.0924 25.9236C16.1289 25.9391 16.1411 25.9725 16.1198 25.9993C16.1046 26.0171 16.0803 26.0282 16.0529 26.0282V26.026ZM24.4106 25.7232C24.368 25.7232 24.3346 25.6987 24.3346 25.6675V25.3335C24.3346 25.3024 24.368 25.2779 24.4106 25.2779C24.4531 25.2779 24.4866 25.3024 24.4866 25.3335V25.6675C24.4866 25.6987 24.4531 25.7232 24.4106 25.7232ZM15.2594 25.6987C15.2594 25.6987 15.2351 25.6965 15.2229 25.692L14.8246 25.5272C14.7881 25.5117 14.776 25.4783 14.7973 25.4515C14.8186 25.4248 14.8642 25.4159 14.9006 25.4315L15.2989 25.5963C15.3354 25.6119 15.3476 25.6452 15.3263 25.672C15.3111 25.6898 15.2867 25.7009 15.2594 25.7009V25.6987ZM14.4659 25.3714C14.4659 25.3714 14.4416 25.3692 14.4294 25.3647L14.0311 25.2C13.9946 25.1844 13.9825 25.151 14.0038 25.1243C14.025 25.0975 14.0706 25.0886 14.1071 25.1042L14.5054 25.269C14.5419 25.2846 14.5541 25.318 14.5328 25.3447C14.5176 25.3625 14.4932 25.3736 14.4659 25.3736V25.3714ZM24.4136 25.0552C24.371 25.0552 24.3376 25.0307 24.3376 24.9996V24.6656C24.3376 24.6344 24.371 24.6099 24.4136 24.6099C24.4562 24.6099 24.4896 24.6344 24.4896 24.6656V24.9996C24.4896 25.0307 24.4562 25.0552 24.4136 25.0552ZM13.6724 25.0441C13.6724 25.0441 13.6481 25.0419 13.6359 25.0374L13.2376 24.8727C13.2011 24.8571 13.189 24.8237 13.2072 24.797C13.2285 24.7702 13.2741 24.7613 13.3106 24.7747L13.7089 24.9394C13.7453 24.955 13.7575 24.9884 13.7393 25.0151C13.7241 25.033 13.6997 25.0441 13.6724 25.0441ZM12.8789 24.7168C12.8789 24.7168 12.8545 24.7146 12.8424 24.7101L12.4441 24.5454C12.4076 24.5298 12.3955 24.4964 12.4167 24.4697C12.438 24.4429 12.4836 24.434 12.5201 24.4496L12.9184 24.6144C12.9549 24.63 12.967 24.6634 12.9458 24.6901C12.9306 24.7079 12.9062 24.719 12.8789 24.719V24.7168ZM12.0854 24.3895C12.0854 24.3895 12.061 24.3873 12.0489 24.3828L11.6506 24.2181C11.6141 24.2025 11.602 24.1691 11.6232 24.1424C11.6445 24.1156 11.6901 24.1067 11.7266 24.1223L12.1249 24.2871C12.1614 24.3027 12.1735 24.3361 12.1522 24.3628C12.137 24.3806 12.1127 24.3917 12.0854 24.3917V24.3895ZM24.4166 24.3895C24.3741 24.3895 24.3406 24.365 24.3406 24.3338V23.9999C24.3406 23.9687 24.3741 23.9442 24.4166 23.9442C24.4592 23.9442 24.4927 23.9687 24.4927 23.9999V24.3338C24.4927 24.365 24.4592 24.3895 24.4166 24.3895ZM11.2919 24.0622C11.2919 24.0622 11.2675 24.06 11.2554 24.0555L10.8571 23.8908C10.8206 23.8752 10.8084 23.8418 10.8297 23.8151C10.851 23.7884 10.8966 23.7794 10.9331 23.795L11.3314 23.9598C11.3679 23.9754 11.38 24.0088 11.3587 24.0355C11.3435 24.0533 11.3192 24.0644 11.2919 24.0644V24.0622ZM10.4983 23.7349C10.4983 23.7349 10.474 23.7327 10.4619 23.7282L10.0636 23.5635C10.0271 23.5479 10.0149 23.5145 10.0362 23.4878C10.0575 23.4611 10.1031 23.4522 10.1396 23.4677L10.5379 23.6325C10.5743 23.6481 10.5865 23.6815 10.5652 23.7082C10.55 23.726 10.5257 23.7371 10.4983 23.7371V23.7349ZM24.4197 23.7216C24.3771 23.7216 24.3437 23.6971 24.3437 23.6659V23.3319C24.3437 23.3008 24.3771 23.2763 24.4197 23.2763C24.4623 23.2763 24.4957 23.3008 24.4957 23.3319V23.6659C24.4957 23.6971 24.4623 23.7216 24.4197 23.7216ZM9.70484 23.4076C9.70484 23.4076 9.68052 23.4054 9.66836 23.4009L9.27007 23.2362C9.23359 23.2206 9.22143 23.1872 9.24271 23.1605C9.26399 23.1338 9.3096 23.1249 9.34608 23.1404L9.74436 23.3052C9.78085 23.3208 9.79301 23.3542 9.77172 23.3809C9.75652 23.3987 9.7322 23.4099 9.70484 23.4099V23.4076ZM8.91133 23.0803C8.91133 23.0803 8.887 23.0781 8.87484 23.0737L8.47657 22.9089C8.44009 22.8933 8.42792 22.8599 8.44617 22.8332C8.46745 22.8065 8.51306 22.7976 8.54954 22.8109L8.94781 22.9757C8.98429 22.9913 8.99645 23.0247 8.97821 23.0514C8.96301 23.0692 8.93869 23.0803 8.91133 23.0803ZM24.4227 23.0536C24.3802 23.0536 24.3467 23.0291 24.3467 22.9979V22.664C24.3467 22.6328 24.3802 22.6083 24.4227 22.6083C24.4653 22.6083 24.4987 22.6328 24.4987 22.664V22.9979C24.4987 23.0291 24.4653 23.0536 24.4227 23.0536ZM8.11782 22.753C8.11782 22.753 8.0935 22.7508 8.08134 22.7464L7.68306 22.5816C7.64658 22.566 7.63442 22.5326 7.65266 22.5059C7.67394 22.4792 7.71955 22.4703 7.75603 22.4836L8.1543 22.6484C8.19079 22.664 8.20295 22.6974 8.1847 22.7241C8.1695 22.7419 8.14518 22.753 8.11782 22.753ZM7.32431 22.4257C7.32431 22.4257 7.29999 22.4235 7.28783 22.4191L6.88955 22.2543C6.85307 22.2387 6.84091 22.2053 6.86219 22.1786C6.88348 22.1519 6.92908 22.143 6.96556 22.1586L7.36383 22.3233C7.40032 22.3389 7.41248 22.3723 7.3912 22.399C7.37599 22.4168 7.35168 22.428 7.32431 22.428V22.4257ZM24.4227 22.3879C24.3802 22.3879 24.3467 22.3634 24.3467 22.3322V21.9983C24.3467 21.9671 24.3802 21.9426 24.4227 21.9426C24.4653 21.9426 24.4987 21.9671 24.4987 21.9983V22.3322C24.4987 22.3634 24.4653 22.3879 24.4227 22.3879ZM6.52776 22.0984C6.52776 22.0984 6.50344 22.0962 6.49128 22.0918L6.09301 21.927C6.05653 21.9114 6.04437 21.878 6.06565 21.8513C6.08693 21.8246 6.13253 21.8157 6.16901 21.8313L6.56729 21.996C6.60377 22.0116 6.61593 22.045 6.59465 22.0717C6.57945 22.0895 6.55513 22.1007 6.52776 22.1007V22.0984ZM5.73426 21.7712C5.73426 21.7712 5.70993 21.7689 5.69777 21.7645L5.2995 21.5997C5.26302 21.5841 5.25086 21.5507 5.27214 21.524C5.29342 21.4973 5.33902 21.4884 5.37551 21.504L5.77378 21.6687C5.81026 21.6843 5.82242 21.7177 5.80114 21.7444C5.78594 21.7623 5.76162 21.7734 5.73426 21.7734V21.7712ZM24.4227 21.7199C24.3802 21.7199 24.3467 21.6955 24.3467 21.6643V21.3303C24.3467 21.2991 24.3802 21.2747 24.4227 21.2747C24.4653 21.2747 24.4987 21.2991 24.4987 21.3303V21.6643C24.4987 21.6955 24.4653 21.7199 24.4227 21.7199ZM4.93771 21.4439C4.93771 21.4439 4.91339 21.4416 4.90123 21.4372L4.50295 21.2724C4.46647 21.2568 4.45431 21.2234 4.47559 21.1967C4.49687 21.17 4.54247 21.1611 4.57896 21.1767L4.97723 21.3414C5.01372 21.357 5.02588 21.3904 5.00459 21.4171C4.98939 21.435 4.96507 21.4461 4.93771 21.4461V21.4439ZM4.1442 21.1166C4.1442 21.1166 4.11988 21.1143 4.10772 21.1099L3.70945 20.9451C3.67296 20.9295 3.6608 20.8961 3.68208 20.8694C3.70336 20.8427 3.74897 20.8338 3.78545 20.8494L4.18373 21.0142C4.22021 21.0297 4.23237 21.0631 4.21109 21.0899C4.19589 21.1077 4.17156 21.1188 4.1442 21.1188V21.1166ZM24.4227 21.052C24.3802 21.052 24.3467 21.0275 24.3467 20.9963V20.6624C24.3467 20.6312 24.3802 20.6067 24.4227 20.6067C24.4653 20.6067 24.4987 20.6312 24.4987 20.6624V20.9963C24.4987 21.0275 24.4653 21.052 24.4227 21.052ZM3.35069 20.787C3.35069 20.787 3.32637 20.7848 3.31421 20.7804L2.91594 20.6156C2.87946 20.6 2.86729 20.5666 2.88553 20.5399C2.90682 20.5132 2.95242 20.5043 2.9889 20.5176L3.38717 20.6824C3.42366 20.698 3.43582 20.7314 3.41758 20.7581C3.40238 20.7759 3.37806 20.787 3.35069 20.787ZM2.55719 20.4598C2.55719 20.4598 2.53286 20.4575 2.5207 20.4531L2.12243 20.2883C2.08595 20.2727 2.07378 20.2393 2.09506 20.2126C2.11635 20.1859 2.16195 20.177 2.19844 20.1926L2.59671 20.3573C2.63319 20.3729 2.64535 20.4063 2.62407 20.433C2.60887 20.4508 2.58455 20.462 2.55719 20.462V20.4598ZM24.4258 20.3841C24.3832 20.3841 24.3498 20.3596 24.3498 20.3284V19.9944C24.3498 19.9632 24.3832 19.9388 24.4258 19.9388C24.4683 19.9388 24.5018 19.9632 24.5018 19.9944V20.3284C24.5018 20.3596 24.4683 20.3841 24.4258 20.3841ZM1.7728 20.1213C1.7728 20.1213 1.74544 20.1191 1.73328 20.1124C1.59343 20.0479 1.46877 19.9788 1.35932 19.9076C1.32892 19.8875 1.32588 19.8519 1.35325 19.8297C1.38061 19.8074 1.42925 19.8052 1.45965 19.8252C1.56302 19.892 1.68463 19.9588 1.81536 20.0189C1.85184 20.0345 1.86097 20.0701 1.83968 20.0946C1.82448 20.1124 1.80016 20.1213 1.77584 20.1213H1.7728ZM24.4258 19.7161C24.3832 19.7161 24.3498 19.6916 24.3498 19.6604V19.3265C24.3498 19.2953 24.3832 19.2708 24.4258 19.2708C24.4683 19.2708 24.5018 19.2953 24.5018 19.3265V19.6604C24.5018 19.6916 24.4683 19.7161 24.4258 19.7161ZM1.10394 19.6738C1.07962 19.6738 1.0553 19.6649 1.04009 19.6493C0.958007 19.5625 0.894162 19.4734 0.854638 19.3821C0.842477 19.3532 0.86376 19.322 0.903284 19.3109C0.945847 19.302 0.985373 19.3176 1.00057 19.3465C1.03706 19.4267 1.09178 19.5068 1.16779 19.5847C1.19211 19.6092 1.18299 19.6449 1.14954 19.6627C1.13738 19.6694 1.12218 19.6716 1.10698 19.6716L1.10394 19.6738ZM24.4258 19.0482C24.3832 19.0482 24.3498 19.0237 24.3498 18.9925V18.6585C24.3498 18.6274 24.3832 18.6029 24.4258 18.6029C24.4683 18.6029 24.5018 18.6274 24.5018 18.6585V18.9925C24.5018 19.0237 24.4683 19.0482 24.4258 19.0482ZM24.4258 18.3802C24.3832 18.3802 24.3498 18.3557 24.3498 18.3246V17.9906C24.3498 17.9594 24.3832 17.9349 24.4258 17.9349C24.4683 17.9349 24.5018 17.9594 24.5018 17.9906V18.3246C24.5018 18.3557 24.4683 18.3802 24.4258 18.3802ZM24.4258 17.7123C24.3832 17.7123 24.3498 17.6878 24.3498 17.6566V17.3226C24.3498 17.2915 24.3832 17.267 24.4258 17.267C24.4683 17.267 24.5018 17.2915 24.5018 17.3226V17.6566C24.5018 17.6878 24.4683 17.7123 24.4258 17.7123ZM24.4258 17.0443C24.3832 17.0443 24.3498 17.0198 24.3498 16.9887V16.6547C24.3498 16.6235 24.3832 16.599 24.4258 16.599C24.4683 16.599 24.5018 16.6235 24.5018 16.6547V16.9887C24.5018 17.0198 24.4683 17.0443 24.4258 17.0443ZM24.4258 16.3764C24.3832 16.3764 24.3498 16.3519 24.3498 16.3207V15.9867C24.3498 15.9556 24.3832 15.9311 24.4258 15.9311C24.4683 15.9311 24.5018 15.9556 24.5018 15.9867V16.3207C24.5018 16.3519 24.4683 16.3764 24.4258 16.3764ZM24.4258 15.7084C24.3832 15.7084 24.3498 15.6839 24.3498 15.6528V15.3188C24.3498 15.2876 24.3832 15.2631 24.4258 15.2631C24.4683 15.2631 24.5018 15.2876 24.5018 15.3188V15.6528C24.5018 15.6839 24.4683 15.7084 24.4258 15.7084ZM24.4258 15.0405C24.3832 15.0405 24.3498 15.016 24.3498 14.9848V14.6508C24.3498 14.6197 24.3832 14.5952 24.4258 14.5952C24.4683 14.5952 24.5018 14.6197 24.5018 14.6508V14.9848C24.5018 15.016 24.4683 15.0405 24.4258 15.0405ZM24.4258 14.3725C24.3832 14.3725 24.3498 14.348 24.3498 14.3169V14.2367C24.3498 14.1543 24.3437 14.072 24.3315 13.9896C24.3285 13.9584 24.3589 13.9317 24.3984 13.9295C24.4379 13.925 24.4775 13.9495 24.4805 13.9784C24.4927 14.0653 24.4987 14.1521 24.4987 14.2367V14.3169C24.4987 14.348 24.4653 14.3725 24.4227 14.3725H24.4258ZM24.3346 13.709C24.3011 13.709 24.2677 13.6912 24.2616 13.6667C24.2282 13.5599 24.1856 13.4552 24.1339 13.355C24.1187 13.3261 24.14 13.2949 24.1795 13.2838C24.219 13.2727 24.2616 13.2882 24.2768 13.3172C24.3315 13.4241 24.3771 13.5332 24.4106 13.6445C24.4197 13.6734 24.3954 13.7046 24.3528 13.7113C24.3467 13.7113 24.3406 13.7113 24.3346 13.7113V13.709ZM24.0153 13.0856C23.988 13.0856 23.9606 13.0745 23.9485 13.0567C23.8785 12.9609 23.7995 12.8674 23.7143 12.7784C23.69 12.7539 23.6991 12.7183 23.7326 12.7004C23.766 12.6826 23.8147 12.6893 23.839 12.7138C23.9272 12.8051 24.0093 12.9031 24.0822 13.0032C24.1005 13.03 24.0883 13.0634 24.0518 13.0789C24.0397 13.0834 24.0275 13.0856 24.0153 13.0856ZM23.4894 12.5424C23.4681 12.5424 23.4499 12.5357 23.4347 12.5246C23.3343 12.4444 23.2249 12.3687 23.1124 12.2997C23.0789 12.2796 23.0759 12.244 23.1033 12.2217C23.1306 12.1973 23.1793 12.195 23.2097 12.2151C23.3282 12.2885 23.4407 12.3665 23.5471 12.4511C23.5745 12.4733 23.5745 12.509 23.5441 12.529C23.5289 12.5379 23.5107 12.5446 23.4924 12.5446L23.4894 12.5424ZM22.7931 12.1149C22.7931 12.1149 22.7658 12.1126 22.7536 12.106C22.7111 12.0859 22.6685 12.0681 22.6229 12.0481L22.3584 11.9412C22.3219 11.9256 22.3097 11.8922 22.328 11.8655C22.3493 11.8388 22.3949 11.8277 22.4314 11.8432L22.6959 11.9501C22.7415 11.9702 22.7871 11.9902 22.8327 12.0102C22.8692 12.0258 22.8783 12.0614 22.857 12.0859C22.8418 12.1037 22.8175 12.1126 22.7931 12.1126V12.1149ZM21.9966 11.7876C21.9966 11.7876 21.9723 11.7876 21.9601 11.7809L21.5618 11.6206C21.5254 11.605 21.5132 11.5716 21.5314 11.5449C21.5527 11.5182 21.5983 11.507 21.6348 11.5226L22.0331 11.6829C22.0696 11.6985 22.0817 11.7319 22.0635 11.7586C22.0483 11.7765 22.024 11.7876 21.9966 11.7876ZM21.197 11.4647C21.197 11.4647 21.1727 11.4647 21.1605 11.4581L20.7623 11.2955C20.7258 11.2799 20.7136 11.2465 20.7319 11.2198C20.7531 11.1931 20.7987 11.182 20.8352 11.1976L21.2335 11.3601C21.27 11.3757 21.2821 11.4091 21.2639 11.4358C21.2487 11.4536 21.2244 11.4647 21.197 11.4647ZM20.3974 11.1419C20.3974 11.1419 20.3731 11.1419 20.3609 11.1352L19.9627 10.9749C19.9262 10.9593 19.914 10.9259 19.9323 10.8992C19.9535 10.8725 19.9991 10.8636 20.0356 10.877L20.4339 11.0373C20.4704 11.0528 20.4826 11.0862 20.4643 11.113C20.4491 11.1308 20.4248 11.1419 20.3974 11.1419ZM19.5978 10.8191C19.5978 10.8191 19.5735 10.8191 19.5614 10.8124L19.1631 10.6521C19.1266 10.6365 19.1144 10.6031 19.1327 10.5764C19.154 10.5497 19.1996 10.5385 19.2361 10.5541L19.6343 10.7144C19.6708 10.73 19.683 10.7634 19.6647 10.7901C19.6495 10.8079 19.6252 10.8191 19.5978 10.8191ZM18.7983 10.4962C18.7983 10.4962 18.7739 10.4962 18.7618 10.4895L18.3635 10.3292C18.327 10.3136 18.3149 10.2803 18.3331 10.2535C18.3544 10.2268 18.4 10.2179 18.4365 10.2313L18.8347 10.3916C18.8712 10.4072 18.8834 10.4406 18.8651 10.4673C18.8499 10.4851 18.8256 10.4962 18.7983 10.4962ZM17.9987 10.1734C17.9987 10.1734 17.9743 10.1734 17.9622 10.1667L17.5639 10.0064C17.5274 9.99081 17.5153 9.95741 17.5335 9.93069C17.5517 9.90398 17.6004 9.89284 17.6369 9.90843L18.0351 10.0687C18.0716 10.0843 18.0838 10.1177 18.0655 10.1444C18.0503 10.1622 18.026 10.1734 17.9987 10.1734ZM17.1991 9.85054C17.1991 9.85054 17.1748 9.85054 17.1626 9.84386L16.7643 9.68133C16.7278 9.66574 16.7157 9.63234 16.7339 9.60563C16.7552 9.57891 16.8008 9.57 16.8373 9.58336L17.2356 9.7459C17.272 9.76148 17.2842 9.79488 17.266 9.8216C17.2508 9.83941 17.2264 9.85054 17.1991 9.85054ZM16.3995 9.5277C16.3995 9.5277 16.3752 9.5277 16.363 9.52102L15.9647 9.36071C15.9282 9.34513 15.9161 9.31173 15.9343 9.28501C15.9556 9.25829 16.0012 9.24716 16.0377 9.26275L16.436 9.42305C16.4724 9.43864 16.4846 9.47204 16.4664 9.49875C16.4512 9.51657 16.4268 9.5277 16.3995 9.5277ZM15.5999 9.20486C15.5999 9.20486 15.5756 9.20486 15.5634 9.19818L15.1651 9.03565C15.1287 9.02006 15.1165 8.98666 15.1347 8.95995C15.156 8.93323 15.2016 8.92209 15.2381 8.93768L15.6364 9.10021C15.6729 9.1158 15.685 9.1492 15.6668 9.17591C15.6516 9.19373 15.6273 9.20486 15.5999 9.20486ZM14.8003 8.88202C14.8003 8.88202 14.776 8.88202 14.7638 8.87534L14.3656 8.71503C14.3291 8.69944 14.3169 8.66605 14.3351 8.63933C14.3564 8.61261 14.402 8.60371 14.4385 8.61706L14.8368 8.77737C14.8733 8.79296 14.8854 8.82635 14.8672 8.85307C14.852 8.87088 14.8277 8.88202 14.8003 8.88202ZM14.0007 8.55918C14.0007 8.55918 13.9764 8.55918 13.9642 8.5525L13.566 8.38996C13.5295 8.37438 13.5173 8.34098 13.5356 8.31426C13.5568 8.28754 13.6025 8.27864 13.6389 8.292L14.0372 8.45453C14.0737 8.47012 14.0859 8.50351 14.0676 8.53023C14.0524 8.54804 14.0281 8.55918 14.0007 8.55918ZM13.2011 8.23634C13.2011 8.23634 13.1768 8.23634 13.1647 8.22966L12.7664 8.06712C12.7299 8.05154 12.7177 8.01814 12.736 7.99142C12.7573 7.9647 12.8029 7.95357 12.8393 7.96916L13.2376 8.13169C13.2741 8.14728 13.2863 8.18067 13.268 8.20739C13.2528 8.2252 13.2285 8.23634 13.2011 8.23634ZM12.4015 7.91349C12.4015 7.91349 12.3772 7.91349 12.3651 7.90681L11.9668 7.74651C11.9303 7.73092 11.9181 7.69752 11.9364 7.67081C11.9577 7.64409 12.0033 7.63296 12.0398 7.64854L12.438 7.80885C12.4745 7.82443 12.4867 7.85783 12.4684 7.88455C12.4532 7.90236 12.4289 7.91349 12.4015 7.91349ZM11.602 7.59065C11.602 7.59065 11.5776 7.59065 11.5655 7.58397L11.1672 7.42367C11.1307 7.40808 11.1186 7.37468 11.1368 7.34797C11.1581 7.32125 11.2037 7.31011 11.2402 7.3257L11.6384 7.48601C11.6749 7.50159 11.6871 7.53499 11.6688 7.56171C11.6536 7.57952 11.6293 7.59065 11.602 7.59065ZM10.8024 7.26781C10.8024 7.26781 10.778 7.26781 10.7659 7.26113L10.3676 7.10083C10.3311 7.08524 10.319 7.05184 10.3372 7.02513C10.3585 6.99841 10.4041 6.98727 10.4406 7.00286L10.8388 7.16317C10.8753 7.17875 10.8875 7.21215 10.8693 7.23887C10.8541 7.25668 10.8297 7.26781 10.8024 7.26781ZM10.0028 6.94497C10.0028 6.94497 9.97846 6.94497 9.9663 6.93829L9.56802 6.77576C9.53154 6.76017 9.51938 6.72678 9.53762 6.70006C9.5589 6.67334 9.6045 6.66221 9.64099 6.67779L10.0393 6.84033C10.0758 6.85591 10.0879 6.88931 10.0697 6.91603C10.0545 6.93384 10.0301 6.94497 10.0028 6.94497ZM9.2032 6.62213C9.2032 6.62213 9.17887 6.62213 9.16671 6.61545L8.76843 6.45292C8.73195 6.43733 8.71979 6.40394 8.73803 6.37722C8.75931 6.3505 8.80492 6.34159 8.8414 6.35495L9.23968 6.51749C9.27616 6.53307 9.28831 6.56647 9.27007 6.59319C9.25487 6.611 9.23056 6.62213 9.2032 6.62213ZM8.4036 6.29929C8.4036 6.29929 8.37928 6.29929 8.36712 6.29261L7.96885 6.13008C7.93236 6.11449 7.9202 6.0811 7.93844 6.05438C7.95972 6.02766 8.00533 6.01653 8.04182 6.03211L8.44009 6.19464C8.47657 6.21023 8.48873 6.24363 8.47049 6.27035C8.45529 6.28816 8.43096 6.29929 8.4036 6.29929ZM7.60402 5.97645C7.60402 5.97645 7.57969 5.97645 7.56753 5.96977L7.16926 5.80946C7.13277 5.79388 7.12062 5.76048 7.13886 5.73376C7.16014 5.70704 7.20574 5.69591 7.24223 5.7115L7.6405 5.8718C7.67698 5.88739 7.68915 5.92079 7.6709 5.94751C7.6557 5.96532 7.63138 5.97645 7.60402 5.97645ZM6.80443 5.65361C6.80443 5.65361 6.78011 5.65361 6.76795 5.64693L6.36967 5.48662C6.33319 5.47104 6.32103 5.43764 6.33927 5.41092C6.36055 5.3842 6.40615 5.3753 6.44264 5.38866L6.84091 5.54896C6.87739 5.56455 6.88956 5.59795 6.87131 5.62466C6.85611 5.64248 6.83179 5.65361 6.80443 5.65361ZM6.00484 5.33077C6.00484 5.33077 5.98052 5.33077 5.96836 5.32409L5.57008 5.16378C5.5336 5.1482 5.52144 5.1148 5.53968 5.08808C5.56096 5.06136 5.60656 5.05023 5.64305 5.06582L6.04132 5.22612C6.07781 5.24171 6.08997 5.27511 6.07172 5.30182C6.05652 5.31964 6.0322 5.33077 6.00484 5.33077ZM5.20525 5.00793C5.20525 5.00793 5.18093 5.00793 5.16877 5.00125L4.77049 4.83871C4.73401 4.82313 4.72185 4.78973 4.74009 4.76301C4.76138 4.7363 4.80698 4.72516 4.84346 4.74075L5.24173 4.90328C5.27822 4.91887 5.29038 4.95227 5.27214 4.97898C5.25694 4.9968 5.23262 5.00793 5.20525 5.00793ZM4.40566 4.68508C4.40566 4.68508 4.38134 4.68509 4.36918 4.67841L3.9709 4.51587C3.93442 4.50029 3.92226 4.46689 3.9405 4.44017C3.96179 4.41346 4.00739 4.40232 4.04387 4.41791L4.44215 4.58044C4.47863 4.59603 4.49079 4.62943 4.47255 4.65614C4.45735 4.67395 4.43303 4.68508 4.40566 4.68508ZM3.60607 4.36224C3.60607 4.36224 3.58175 4.36225 3.56959 4.35557L3.17132 4.19303C3.13484 4.17745 3.12267 4.14405 3.14091 4.11733C3.1622 4.09062 3.2078 4.08171 3.24428 4.09507L3.64256 4.2576C3.67904 4.27319 3.6912 4.30658 3.67296 4.3333C3.65776 4.35111 3.63344 4.36224 3.60607 4.36224ZM2.80649 4.0394C2.80649 4.0394 2.78216 4.0394 2.77 4.03273L2.37173 3.87019C2.33525 3.85461 2.32309 3.82121 2.34133 3.79449C2.36261 3.76777 2.40821 3.75664 2.4447 3.77223L2.84297 3.93476C2.87945 3.95034 2.89162 3.98374 2.87337 4.01046C2.85817 4.02827 2.83385 4.0394 2.80649 4.0394ZM2.0069 3.71656C2.0069 3.71656 1.98258 3.71656 1.97042 3.70989L1.57214 3.54958C1.53566 3.53399 1.5235 3.5006 1.54174 3.47388C1.56302 3.44716 1.60862 3.43603 1.64511 3.45161L2.04338 3.61192C2.07986 3.6275 2.09203 3.6609 2.07379 3.68762C2.05858 3.70543 2.03426 3.71656 2.0069 3.71656ZM1.21339 3.38705C1.21339 3.38705 1.18603 3.38482 1.17083 3.37814C1.03706 3.31357 0.912407 3.24677 0.796877 3.17553C0.763434 3.15549 0.760395 3.11987 0.787757 3.0976C0.815119 3.07534 0.863761 3.07088 0.894163 3.09092C1.00361 3.15994 1.12523 3.22451 1.25292 3.28685C1.2894 3.30466 1.29852 3.33806 1.2742 3.36478C1.25899 3.38036 1.23467 3.38927 1.21035 3.38927L1.21339 3.38705Z" fill="#FF63CE"/>
</g>
</g>
<path style="mix-blend-mode:color-dodge" d="M23.0546 28.5037C22.8904 28.5037 22.7323 28.4726 22.5833 28.408L2.31695 20.052L2.08893 19.9473C1.43831 19.6712 1.10692 19.3284 1.15556 18.9833V3.57373C1.26197 3.62717 1.37143 3.6806 1.49 3.72958L22.3431 12.1591C23.3616 12.5866 24.0001 13.3948 24.0001 14.2609V27.8113C24.0001 28.0562 23.845 28.2165 23.7143 28.3078C23.5349 28.4325 23.2947 28.5037 23.0546 28.5037Z" fill="url(#paint25_radial_1_4932)"/>
<path style="mix-blend-mode:multiply" d="M17.9986 19.059C17.9986 17.9458 19.6343 17.2422 20.9629 17.7832L24.1917 19.1013C24.6933 19.3062 25.2983 19.3151 25.8121 19.128L31.4001 17.073V20.4528C31.4001 20.7244 31.1964 20.976 30.8711 21.1052L25.7543 23.1469C25.2436 23.3495 24.6295 23.3539 24.1156 23.1558L20.1055 21.6128C18.8104 21.1141 17.9956 20.13 17.9956 19.0568L17.9986 19.059Z" fill="url(#paint26_radial_1_4932)"/>
<path d="M17.9986 18.6984C17.9986 17.5852 19.6343 16.8816 20.9629 17.4227L24.1917 18.7407C24.6933 18.9456 25.2983 18.9545 25.8121 18.7675L31.4001 16.7124V20.0922C31.4001 20.3638 31.1964 20.6154 30.8711 20.7446L25.7543 22.7863C25.2436 22.9889 24.6295 22.9933 24.1156 22.7952L20.1055 21.2522C18.8104 20.7535 17.9956 19.7694 17.9956 18.6962L17.9986 18.6984Z" fill="url(#paint27_linear_1_4932)"/>
<path style="mix-blend-mode:color-dodge" d="M24.9242 22.4966C24.7418 22.4966 24.5594 22.4677 24.3982 22.4098L20.3881 21.0027C19.2876 20.6175 18.6035 19.8605 18.6035 19.03C18.6035 18.4578 19.3241 18.1038 19.9899 18.1038C20.224 18.1038 20.4489 18.1439 20.6618 18.224L23.8905 19.4263C24.2402 19.5555 24.6323 19.6245 25.0337 19.6245C25.3955 19.6245 25.7572 19.5666 26.0826 19.4597L30.7919 17.8789V20.3036C30.7919 20.4037 30.7098 20.495 30.5791 20.5418L25.4623 22.4031C25.2982 22.4632 25.1097 22.4944 24.9212 22.4944L24.9242 22.4966Z" fill="url(#paint28_radial_1_4932)"/>
<g style="mix-blend-mode:multiply" opacity="0.3">
<g style="mix-blend-mode:multiply" opacity="0.3">
<path d="M24.9245 22.7755C24.6813 22.7755 24.4411 22.7332 24.2283 22.6553L20.2182 21.1858C18.9899 20.7361 18.2268 19.8544 18.2268 18.8859C18.2268 18.12 19.145 17.6457 19.9932 17.6457C20.2911 17.6457 20.5769 17.6992 20.8475 17.8038L24.0763 19.0595C24.6326 19.2755 25.3471 19.2889 25.9187 19.0885L31.1783 17.2494C31.2938 17.2093 31.4276 17.245 31.4823 17.3273C31.5371 17.4097 31.4884 17.5099 31.3759 17.55L26.1163 19.3891C25.417 19.634 24.5475 19.6184 23.8634 19.3534L20.6347 18.0977C20.434 18.0198 20.2182 17.9797 19.9962 17.9797C19.3669 17.9797 18.6859 18.327 18.6859 18.8859C18.6859 19.7275 19.3517 20.4934 20.4249 20.8875L24.435 22.357C24.7421 22.4705 25.1312 22.4683 25.4353 22.3525L31.0445 20.2195C31.157 20.1772 31.2938 20.2084 31.3516 20.2908C31.4094 20.3732 31.3668 20.4734 31.2543 20.5157L25.645 22.6486C25.4261 22.7332 25.1768 22.7755 24.9275 22.7755H24.9245Z" fill="#B086CC"/>
</g>
</g>
<g style="mix-blend-mode:screen">
<g style="mix-blend-mode:screen">
<path d="M24.9394 22.6633H24.9242C24.7692 22.6633 24.6141 22.6455 24.4652 22.6076C24.4256 22.5987 24.4043 22.5653 24.4165 22.5364C24.4287 22.5074 24.4743 22.4919 24.5138 22.5008C24.6445 22.5342 24.7844 22.5497 24.9242 22.5497C24.9668 22.5497 25.0063 22.5742 25.0063 22.6054C25.0063 22.6366 24.979 22.6611 24.9364 22.6611L24.9394 22.6633ZM25.3864 22.6032C25.3559 22.6032 25.3256 22.5898 25.3164 22.5676C25.3012 22.5386 25.3225 22.5074 25.362 22.4963C25.4107 22.4829 25.4593 22.4674 25.5049 22.4495L25.7633 22.3516C25.7998 22.3382 25.8454 22.3471 25.8667 22.3761C25.885 22.4028 25.8728 22.4362 25.8333 22.4518L25.5748 22.5497C25.5232 22.5698 25.4684 22.5876 25.4137 22.6009C25.4046 22.6032 25.3955 22.6054 25.3864 22.6054V22.6032ZM24.079 22.4696C24.079 22.4696 24.0547 22.4696 24.0456 22.4629L23.6382 22.3137C23.6017 22.3004 23.5865 22.267 23.6048 22.2403C23.623 22.2135 23.6686 22.2024 23.7051 22.2158L24.1125 22.3649C24.149 22.3783 24.1642 22.4117 24.1459 22.4384C24.1338 22.4585 24.1064 22.4696 24.079 22.4696ZM26.2011 22.3026C26.1738 22.3026 26.1464 22.2915 26.1343 22.2737C26.116 22.2469 26.1282 22.2135 26.1677 22.198L26.5721 22.0443C26.6085 22.031 26.6541 22.0399 26.6754 22.0688C26.6937 22.0955 26.6815 22.1289 26.642 22.1445L26.2376 22.2981C26.2376 22.2981 26.2133 22.3048 26.2011 22.3048V22.3026ZM23.2643 22.169C23.2643 22.169 23.2399 22.169 23.2308 22.1623L22.8234 22.0132C22.7869 21.9998 22.7717 21.9664 22.79 21.9397C22.8082 21.913 22.8538 21.9018 22.8903 21.9152L23.2977 22.0644C23.3342 22.0777 23.3494 22.1111 23.3311 22.1378C23.319 22.1579 23.2916 22.169 23.2643 22.169ZM27.0098 21.9931C26.9825 21.9931 26.9551 21.982 26.943 21.9642C26.9247 21.9375 26.9369 21.9041 26.9764 21.8885L27.3808 21.7348C27.4172 21.7215 27.4628 21.7304 27.4841 21.7593C27.5024 21.7861 27.4902 21.8195 27.4507 21.835L27.0463 21.9887C27.0463 21.9887 27.022 21.9953 27.0098 21.9953V21.9931ZM22.4464 21.8684C22.4464 21.8684 22.4221 21.8684 22.413 21.8618L22.0056 21.7126C21.9691 21.6992 21.9539 21.6658 21.9721 21.6391C21.9904 21.6124 22.039 21.6013 22.0755 21.6146L22.4829 21.7638C22.5194 21.7771 22.5346 21.8105 22.5163 21.8373C22.5042 21.8573 22.4768 21.8684 22.4495 21.8684H22.4464ZM27.8186 21.6859C27.7912 21.6859 27.7638 21.6747 27.7517 21.6569C27.7334 21.6302 27.7456 21.5968 27.7851 21.5812L28.1895 21.4276C28.226 21.4142 28.2716 21.4231 28.2928 21.4521C28.3111 21.4788 28.2989 21.5122 28.2594 21.5278L27.855 21.6814C27.855 21.6814 27.8307 21.6881 27.8186 21.6881V21.6859ZM21.6316 21.5701C21.6316 21.5701 21.6073 21.5701 21.5982 21.5634L21.1908 21.4142C21.1543 21.4009 21.1391 21.3675 21.1573 21.3385C21.1756 21.3118 21.2212 21.3007 21.2607 21.314L21.6681 21.4632C21.7046 21.4766 21.7198 21.51 21.7016 21.5389C21.6894 21.559 21.662 21.5701 21.6347 21.5701H21.6316ZM28.6303 21.3786C28.603 21.3786 28.5756 21.3675 28.5634 21.3497C28.5452 21.3229 28.5573 21.2895 28.5969 21.274L29.0012 21.1203C29.0377 21.107 29.0833 21.1159 29.1046 21.1448C29.1228 21.1715 29.1107 21.2049 29.0711 21.2205L28.6668 21.3742C28.6668 21.3742 28.6425 21.3808 28.6303 21.3808V21.3786ZM20.8168 21.2717C20.8168 21.2717 20.7925 21.2717 20.7834 21.2651L20.376 21.1159C20.3395 21.1025 20.3243 21.0691 20.3426 21.0402C20.3608 21.0135 20.4064 21.0023 20.4429 21.0157L20.8503 21.1649C20.8868 21.1782 20.902 21.2116 20.8837 21.2383C20.8716 21.2584 20.8442 21.2695 20.8168 21.2695V21.2717ZM29.439 21.0714C29.4117 21.0714 29.3843 21.0602 29.3721 21.0424C29.3539 21.0157 29.3661 20.9823 29.4056 20.9667L29.8099 20.8131C29.8464 20.7997 29.892 20.8086 29.9133 20.8376C29.9315 20.8643 29.9194 20.8977 29.8799 20.9133L29.4755 21.0669C29.4755 21.0669 29.4512 21.0736 29.439 21.0736V21.0714ZM20.0081 20.9623C20.0081 20.9623 19.9808 20.96 19.9686 20.9533C19.8379 20.8932 19.7132 20.8264 19.5916 20.753C19.5582 20.7329 19.5551 20.6973 19.5825 20.675C19.6099 20.6505 19.6585 20.6483 19.6889 20.6684C19.8044 20.7374 19.923 20.8019 20.0507 20.8598C20.0872 20.8754 20.0963 20.911 20.075 20.9355C20.0598 20.9533 20.0355 20.9623 20.0112 20.9623H20.0081ZM30.2477 20.7641C30.2204 20.7641 30.193 20.753 30.1808 20.7352C30.1626 20.7084 30.1748 20.675 30.2143 20.6595L30.6186 20.5058C30.6551 20.4925 30.7007 20.5014 30.722 20.5303C30.7403 20.557 30.7281 20.5904 30.6886 20.606L30.2842 20.7596C30.2842 20.7596 30.2599 20.7663 30.2477 20.7663V20.7641ZM19.3089 20.537C19.2876 20.537 19.2694 20.5303 19.2542 20.5192C19.1477 20.4346 19.0504 20.3455 18.9623 20.252C18.938 20.2275 18.9471 20.1919 18.9805 20.1741C19.014 20.1563 19.0626 20.1629 19.0869 20.1874C19.169 20.2765 19.2633 20.3611 19.3636 20.4413C19.391 20.4635 19.391 20.4991 19.3575 20.5192C19.3423 20.5281 19.3241 20.5348 19.3058 20.5348L19.3089 20.537ZM18.792 19.9893C18.7647 19.9893 18.7373 19.9781 18.7251 19.9581C18.6552 19.8557 18.5944 19.751 18.5458 19.6419C18.5336 19.613 18.5549 19.5818 18.5944 19.5707C18.6339 19.5618 18.6765 19.5774 18.6917 19.6063C18.7373 19.7087 18.7951 19.8089 18.862 19.9069C18.8802 19.9336 18.865 19.967 18.8285 19.9804C18.8163 19.9848 18.8072 19.9871 18.7951 19.9871L18.792 19.9893ZM25.0337 19.4549C24.9425 19.4549 24.8482 19.4505 24.7601 19.4438C24.7175 19.4393 24.6871 19.4126 24.6932 19.3814C24.6993 19.3503 24.7297 19.328 24.7783 19.3325C24.9212 19.3436 25.0702 19.3458 25.2191 19.3369C25.2678 19.3347 25.2982 19.357 25.3012 19.3881C25.3043 19.4193 25.2739 19.446 25.2313 19.4482C25.1644 19.4527 25.1006 19.4549 25.0337 19.4549ZM25.6721 19.3881C25.6387 19.3881 25.6083 19.3725 25.5992 19.348C25.587 19.3191 25.6113 19.2879 25.6509 19.279C25.7633 19.2545 25.8758 19.2234 25.9822 19.1877L26.0643 19.1588C26.1008 19.1454 26.1464 19.1588 26.1647 19.1855C26.1829 19.2122 26.1647 19.2456 26.1282 19.259L26.0461 19.2879C25.9336 19.328 25.815 19.3614 25.6934 19.3859C25.6873 19.3859 25.6782 19.3859 25.6721 19.3859V19.3881ZM24.3253 19.3725C24.3253 19.3725 24.3101 19.3725 24.301 19.3703C24.1733 19.3391 24.0486 19.3013 23.9301 19.2545L23.8693 19.2323C23.8328 19.2189 23.8176 19.1833 23.8389 19.1566C23.8571 19.1299 23.9057 19.1187 23.9422 19.1343L24.003 19.1566C24.1125 19.1989 24.228 19.2345 24.3496 19.2634C24.3891 19.2724 24.4104 19.3035 24.3983 19.3347C24.3861 19.3592 24.3587 19.3725 24.3253 19.3725ZM18.5062 19.3592C18.4698 19.3592 18.4394 19.3391 18.4302 19.3124C18.4029 19.2011 18.3846 19.0853 18.3816 18.9718C18.3816 18.9406 18.412 18.9161 18.4546 18.9139C18.4971 18.9139 18.5306 18.9362 18.5336 18.9673C18.5397 19.0742 18.5549 19.1833 18.5823 19.2902C18.5883 19.3213 18.561 19.3503 18.5215 19.3547C18.5154 19.3547 18.5123 19.3547 18.5093 19.3547L18.5062 19.3592ZM26.5082 19.1232C26.4808 19.1232 26.4535 19.112 26.4383 19.092C26.42 19.0653 26.4383 19.0319 26.4748 19.0185L26.8852 18.8738C26.9217 18.8605 26.9673 18.8738 26.9855 18.9005C27.0038 18.9272 26.9855 18.9606 26.949 18.974L26.5386 19.1187C26.5386 19.1187 26.5173 19.1232 26.5052 19.1232H26.5082ZM23.5075 19.0831C23.5075 19.0831 23.4832 19.0831 23.471 19.0764L23.0666 18.9206C23.0301 18.9072 23.015 18.8716 23.0362 18.8449C23.0545 18.8181 23.1031 18.807 23.1396 18.8226L23.544 18.9785C23.5804 18.9918 23.5956 19.0274 23.5744 19.0542C23.5622 19.072 23.5348 19.0831 23.5075 19.0831ZM27.3321 18.8337C27.3048 18.8337 27.2774 18.8226 27.2622 18.8026C27.244 18.7758 27.2622 18.7424 27.2987 18.7291L27.7091 18.5844C27.7486 18.571 27.7912 18.5844 27.8094 18.6111C27.8277 18.6378 27.8094 18.6712 27.773 18.6846L27.3625 18.8293C27.3625 18.8293 27.3412 18.8337 27.3291 18.8337H27.3321ZM22.7018 18.7692C22.7018 18.7692 22.6775 18.7692 22.6653 18.7625L22.261 18.6066C22.2245 18.5933 22.2093 18.5576 22.2306 18.5309C22.2488 18.5042 22.2974 18.4931 22.3339 18.5087L22.7383 18.6645C22.7748 18.6779 22.79 18.7135 22.7687 18.7402C22.7565 18.7603 22.7292 18.7692 22.7018 18.7692ZM18.4941 18.6957C18.4941 18.6957 18.4819 18.6957 18.4758 18.6957C18.4363 18.689 18.409 18.6578 18.4181 18.6289C18.4546 18.5153 18.5184 18.4062 18.6066 18.3061C18.6309 18.2793 18.6765 18.2727 18.713 18.2882C18.7495 18.3038 18.7586 18.3395 18.7373 18.3662C18.6583 18.4552 18.6035 18.5532 18.5701 18.6556C18.561 18.6823 18.5306 18.6979 18.4971 18.6979L18.4941 18.6957ZM28.153 18.5465C28.1256 18.5465 28.0983 18.5354 28.0831 18.5153C28.0648 18.4886 28.0831 18.4552 28.1195 18.4419L28.53 18.2971C28.5665 18.2838 28.6121 18.2971 28.6303 18.3239C28.6486 18.3506 28.6303 18.384 28.5938 18.3973L28.1834 18.5421C28.1834 18.5421 28.1621 18.5465 28.1499 18.5465H28.153ZM21.8931 18.4575C21.8931 18.4575 21.8688 18.4575 21.8566 18.4508L21.4523 18.2949C21.4158 18.2816 21.4006 18.2459 21.4219 18.2192C21.4431 18.1925 21.4887 18.1814 21.5252 18.197L21.9296 18.3528C21.9661 18.3662 21.9813 18.4018 21.96 18.4285C21.9478 18.4463 21.9205 18.4575 21.8931 18.4575ZM28.9739 18.2593C28.9465 18.2593 28.9191 18.2482 28.9039 18.2281C28.8857 18.2014 28.9039 18.168 28.9404 18.1547L29.3509 18.0099C29.3873 17.9966 29.4329 18.0099 29.4512 18.0366C29.4694 18.0634 29.4512 18.0968 29.4147 18.1101L29.0043 18.2548C29.0043 18.2548 28.983 18.2593 28.9708 18.2593H28.9739ZM21.0874 18.1435C21.0874 18.1435 21.0631 18.1435 21.0509 18.1368L20.7013 18.001C20.6831 17.9943 20.6679 17.9877 20.6496 17.981C20.6131 17.9676 20.5949 17.9342 20.6132 17.9075C20.6314 17.8808 20.677 17.8674 20.7135 17.8808C20.7317 17.8875 20.753 17.8942 20.7712 17.9031L21.1178 18.0389C21.1543 18.0522 21.1695 18.0879 21.1482 18.1146C21.1361 18.1346 21.1087 18.1435 21.0813 18.1435H21.0874ZM18.9714 18.1435C18.9501 18.1435 18.9288 18.1368 18.9136 18.1235C18.8863 18.099 18.8924 18.0656 18.9228 18.0456C19.0444 17.9721 19.1812 17.9097 19.3302 17.863C19.3697 17.8518 19.4122 17.863 19.4305 17.8919C19.4457 17.9209 19.4305 17.952 19.391 17.9654C19.2572 18.0077 19.1325 18.0634 19.02 18.1302C19.0048 18.1391 18.9896 18.1435 18.9714 18.1435ZM29.7978 17.9721C29.7704 17.9721 29.743 17.9609 29.7278 17.9409C29.7096 17.9142 29.7278 17.8808 29.7643 17.8674L30.1748 17.7227C30.2112 17.7094 30.2569 17.7227 30.2751 17.7494C30.2933 17.7761 30.2751 17.8095 30.2386 17.8229L29.8282 17.9676C29.8282 17.9676 29.8069 17.9721 29.7947 17.9721H29.7978ZM20.2514 17.8875C20.2514 17.8875 20.2422 17.8875 20.2392 17.8875C20.1601 17.8786 20.075 17.8719 19.9929 17.8719C19.9321 17.8719 19.8683 17.8741 19.8075 17.8808C19.7619 17.8808 19.7284 17.863 19.7223 17.8318C19.7163 17.8006 19.7467 17.7739 19.7892 17.7695C19.8561 17.7628 19.926 17.7606 19.9929 17.7606C20.0841 17.7606 20.1753 17.765 20.2635 17.7761C20.3061 17.7806 20.3334 17.8095 20.3274 17.8407C20.3213 17.8674 20.2878 17.8875 20.2514 17.8875ZM30.6217 17.6849C30.5943 17.6849 30.5669 17.6737 30.5517 17.6537C30.5335 17.627 30.5518 17.5936 30.5882 17.5802L30.9105 17.4667C30.947 17.4533 30.9926 17.4667 31.0108 17.4934C31.0291 17.5201 31.0108 17.5535 30.9743 17.5669L30.6521 17.6804C30.6521 17.6804 30.6308 17.6849 30.6186 17.6849H30.6217Z" fill="#FF63CE"/>
</g>
</g>
<path style="mix-blend-mode:color-dodge" d="M18.0231 18.883C18.0231 17.7698 19.6588 17.0662 20.9874 17.6072L24.2131 18.9253C24.7147 19.1302 25.3197 19.1391 25.8335 18.952L31.3972 16.9059V16.71L25.8092 18.765C25.2954 18.952 24.6904 18.9431 24.1887 18.7383L20.963 17.4202C19.6344 16.8769 17.9988 17.5805 17.9988 18.6938C17.9988 18.8207 18.0109 18.9454 18.0322 19.0678C18.0261 19.0055 18.0231 18.9409 18.0231 18.8786V18.883Z" fill="url(#paint29_radial_1_4932)"/>
<path style="mix-blend-mode:screen" d="M2.08599 17.8498C2.72068 17.8498 3.2352 14.323 3.2352 9.97253C3.2352 5.62201 2.72068 2.09521 2.08599 2.09521C1.45129 2.09521 0.936768 5.62201 0.936768 9.97253C0.936768 14.323 1.45129 17.8498 2.08599 17.8498Z" fill="url(#paint30_radial_1_4932)"/>
<path style="mix-blend-mode:multiply" d="M21.969 20.1769C21.969 20.8337 21.3336 21.0986 20.5523 20.7691C19.7709 20.4374 19.1355 19.6358 19.1355 18.979C19.1355 18.3222 19.7709 18.0572 20.5523 18.3868C21.3336 18.7185 21.969 19.52 21.969 20.1769Z" fill="url(#paint31_radial_1_4932)"/>
<path d="M21.7077 19.8584C21.7077 20.1367 21.577 20.3348 21.3611 20.4306C21.355 20.4328 21.0814 20.5664 21.0753 20.5686C20.8534 20.6599 20.9963 20.4528 20.6588 20.3103C19.9778 20.0231 19.4275 19.3262 19.4275 18.7562C19.4275 18.4735 19.0718 18.4713 19.2907 18.3777C19.2968 18.3755 19.6129 18.2375 19.619 18.2352C19.841 18.1462 20.145 18.164 20.4794 18.3043C21.1604 18.5915 21.7107 19.2884 21.7107 19.8584H21.7077Z" fill="url(#paint32_linear_1_4932)"/>
<path d="M21.3884 20.0051C21.3884 20.5773 20.8381 20.8067 20.1571 20.5194C19.4761 20.2322 18.9258 19.5353 18.9258 18.9653C18.9258 18.3954 19.4761 18.1638 20.1571 18.451C20.8381 18.7382 21.3884 19.4351 21.3884 20.0051Z" fill="url(#paint33_linear_1_4932)"/>
<path style="mix-blend-mode:color-dodge" d="M20.2361 18.413C19.8835 18.2639 19.5673 18.2572 19.3423 18.3618C19.546 18.324 19.7922 18.3552 20.0598 18.4687C20.7408 18.7559 21.2911 19.4528 21.2911 20.0228C21.2911 20.2967 21.1604 20.4904 20.9536 20.5883C21.2637 20.5327 21.4674 20.3145 21.4674 19.9671C21.4674 19.3949 20.9171 18.7003 20.2361 18.413Z" fill="url(#paint34_radial_1_4932)"/>
<path style="mix-blend-mode:multiply" opacity="0.3" d="M20.2059 19.3994H19.7864V27.9447H20.2059V19.3994Z" fill="url(#paint35_radial_1_4932)"/>
<path d="M13.7099 17.5303L18.1884 12.1657L15.69 11.5935L11.2116 16.9581L9.43367 16.5498L8.55249 21.9229L15.4878 17.9386L13.7099 17.5303Z" fill="url(#paint36_linear_1_4932)"/>
<defs>
<linearGradient id="paint0_linear_1_4932" x1="30.8954" y1="17.0194" x2="30.256" y2="12.9837" gradientUnits="userSpaceOnUse">
<stop offset="0.04" stop-color="#9F19AB"/>
<stop offset="0.24" stop-color="#AE24B0"/>
<stop offset="0.65" stop-color="#D643BF"/>
<stop offset="1" stop-color="#FF63CE"/>
</linearGradient>
<linearGradient id="paint1_linear_1_4932" x1="0.44433" y1="13.2256" x2="34.6016" y2="13.2256" gradientUnits="userSpaceOnUse">
<stop stop-color="#B82CB4"/>
<stop offset="0.06" stop-color="#DD49C1"/>
<stop offset="0.07" stop-color="#E953C6"/>
<stop offset="0.13" stop-color="#C436B8"/>
<stop offset="0.29" stop-color="#B82CB4"/>
<stop offset="0.67" stop-color="#D644BF"/>
<stop offset="1" stop-color="#EC55C7"/>
</linearGradient>
<radialGradient id="paint2_radial_1_4932" cx="0" cy="0" r="1" gradientUnits="userSpaceOnUse" gradientTransform="translate(26.0068 6.27908) scale(18.5182 13.5615)">
<stop stop-color="#551841"/>
<stop offset="0.05" stop-color="#4A1438"/>
<stop offset="0.18" stop-color="#2F0D24"/>
<stop offset="0.33" stop-color="#1A0714"/>
<stop offset="0.5" stop-color="#0B0308"/>
<stop offset="0.7" stop-color="#020002"/>
<stop offset="1"/>
</radialGradient>
<linearGradient id="paint3_linear_1_4932" x1="0.793806" y1="13.4952" x2="34.5802" y2="13.4952" gradientUnits="userSpaceOnUse">
<stop stop-color="#B82CB4"/>
<stop offset="0.06" stop-color="#DD49C1"/>
<stop offset="0.07" stop-color="#E953C6"/>
<stop offset="0.13" stop-color="#C436B8"/>
<stop offset="0.29" stop-color="#B82CB4"/>
<stop offset="0.67" stop-color="#D644BF"/>
<stop offset="1" stop-color="#EC55C7"/>
</linearGradient>
<radialGradient id="paint4_radial_1_4932" cx="0" cy="0" r="1" gradientUnits="userSpaceOnUse" gradientTransform="translate(9.89331 15.45) scale(30.0986 22.0422)">
<stop stop-color="#8770B8"/>
<stop offset="1" stop-color="white"/>
</radialGradient>
<radialGradient id="paint5_radial_1_4932" cx="0" cy="0" r="1" gradientUnits="userSpaceOnUse" gradientTransform="translate(26.4658 14.1429) scale(13.5048 9.89006)">
<stop stop-color="#551841"/>
<stop offset="0.05" stop-color="#4A1438"/>
<stop offset="0.18" stop-color="#2F0D24"/>
<stop offset="0.33" stop-color="#1A0714"/>
<stop offset="0.5" stop-color="#0B0308"/>
<stop offset="0.7" stop-color="#020002"/>
<stop offset="1"/>
</radialGradient>
<radialGradient id="paint6_radial_1_4932" cx="0" cy="0" r="1" gradientUnits="userSpaceOnUse" gradientTransform="translate(26.4658 16.4362) scale(12.1762 8.91708)">
<stop stop-color="#551841"/>
<stop offset="0.05" stop-color="#4A1438"/>
<stop offset="0.18" stop-color="#2F0D24"/>
<stop offset="0.33" stop-color="#1A0714"/>
<stop offset="0.5" stop-color="#0B0308"/>
<stop offset="0.7" stop-color="#020002"/>
<stop offset="1"/>
</radialGradient>
<linearGradient id="paint7_linear_1_4932" x1="12.0185" y1="10.0284" x2="34.711" y2="10.0284" gradientUnits="userSpaceOnUse">
<stop stop-color="#9F79C8"/>
<stop offset="0.14" stop-color="#A47FCA"/>
<stop offset="0.33" stop-color="#B491D3"/>
<stop offset="0.55" stop-color="#CDAFE1"/>
<stop offset="0.58" stop-color="#D1B4E3"/>
<stop offset="0.76" stop-color="#DAC3E8"/>
<stop offset="1" stop-color="#EBDEF3"/>
</linearGradient>
<linearGradient id="paint8_linear_1_4932" x1="5.48193" y1="8.22722" x2="25.3987" y2="8.22722" gradientUnits="userSpaceOnUse">
<stop stop-color="#9F79C8"/>
<stop offset="0.14" stop-color="#A47FCA"/>
<stop offset="0.33" stop-color="#B491D3"/>
<stop offset="0.55" stop-color="#CDAFE1"/>
<stop offset="0.58" stop-color="#D1B4E3"/>
<stop offset="0.76" stop-color="#DAC3E8"/>
<stop offset="1" stop-color="#EBDEF3"/>
</linearGradient>
<linearGradient id="paint9_linear_1_4932" x1="8.04796" y1="9.59479" x2="29.9226" y2="9.59479" gradientUnits="userSpaceOnUse">
<stop stop-color="#9F79C8"/>
<stop offset="0.14" stop-color="#A47FCA"/>
<stop offset="0.33" stop-color="#B491D3"/>
<stop offset="0.55" stop-color="#CDAFE1"/>
<stop offset="0.58" stop-color="#D1B4E3"/>
<stop offset="0.76" stop-color="#DAC3E8"/>
<stop offset="1" stop-color="#EBDEF3"/>
</linearGradient>
<linearGradient id="paint10_linear_1_4932" x1="1.68166" y1="7.63569" x2="26.8672" y2="7.63569" gradientUnits="userSpaceOnUse">
<stop offset="0.04" stop-color="#906ABA"/>
<stop offset="0.18" stop-color="#9F79C8"/>
<stop offset="0.28" stop-color="#A47FCA"/>
<stop offset="0.41" stop-color="#B491D3"/>
<stop offset="0.56" stop-color="#CDAFE1"/>
<stop offset="0.58" stop-color="#D1B4E3"/>
<stop offset="0.76" stop-color="#DAC3E8"/>
<stop offset="1" stop-color="#EBDEF3"/>
</linearGradient>
<linearGradient id="paint11_linear_1_4932" x1="12.6781" y1="10.2619" x2="35.8571" y2="10.2619" gradientUnits="userSpaceOnUse">
<stop stop-color="#9F79C8"/>
<stop offset="0.14" stop-color="#A47FCA"/>
<stop offset="0.33" stop-color="#B491D3"/>
<stop offset="0.55" stop-color="#CDAFE1"/>
<stop offset="0.58" stop-color="#D1B4E3"/>
<stop offset="0.76" stop-color="#DAC3E8"/>
<stop offset="1" stop-color="#EBDEF3"/>
</linearGradient>
<linearGradient id="paint12_linear_1_4932" x1="2.03113" y1="7.92411" x2="26.6055" y2="7.92411" gradientUnits="userSpaceOnUse">
<stop stop-color="#9F79C8"/>
<stop offset="0.14" stop-color="#A47FCA"/>
<stop offset="0.33" stop-color="#B491D3"/>
<stop offset="0.55" stop-color="#CDAFE1"/>
<stop offset="0.58" stop-color="#D1B4E3"/>
<stop offset="0.76" stop-color="#DAC3E8"/>
<stop offset="1" stop-color="#EBDEF3"/>
</linearGradient>
<linearGradient id="paint13_linear_1_4932" x1="9.36725" y1="9.9995" x2="36.8725" y2="9.9995" gradientUnits="userSpaceOnUse">
<stop offset="0.04" stop-color="#9F19AB"/>
<stop offset="0.24" stop-color="#AE24B0"/>
<stop offset="0.65" stop-color="#D643BF"/>
<stop offset="1" stop-color="#FF63CE"/>
</linearGradient>
<linearGradient id="paint14_linear_1_4932" x1="7.33946" y1="6.57499" x2="27.5684" y2="20.4146" gradientUnits="userSpaceOnUse">
<stop offset="0.04" stop-color="#FFA98C"/>
<stop offset="0.32" stop-color="#FEB892"/>
<stop offset="0.86" stop-color="#FEE0A3"/>
<stop offset="1" stop-color="#FEECA8"/>
</linearGradient>
<radialGradient id="paint15_radial_1_4932" cx="0" cy="0" r="1" gradientUnits="userSpaceOnUse" gradientTransform="translate(23.7357 11.6626) scale(7.43647 5.44599)">
<stop stop-color="white"/>
<stop offset="1"/>
</radialGradient>
<linearGradient id="paint16_linear_1_4932" x1="6.50353" y1="9.41361" x2="26.7325" y2="23.2532" gradientUnits="userSpaceOnUse">
<stop offset="0.04" stop-color="#138BBD"/>
<stop offset="0.23" stop-color="#169AC6"/>
<stop offset="0.59" stop-color="#1EC2DF"/>
<stop offset="1" stop-color="#2AF6FF"/>
</linearGradient>
<radialGradient id="paint17_radial_1_4932" cx="0" cy="0" r="1" gradientUnits="userSpaceOnUse" gradientTransform="translate(22.8995 14.5017) scale(0.152013 0.111324)">
<stop stop-color="white"/>
<stop offset="1"/>
</radialGradient>
<linearGradient id="paint18_linear_1_4932" x1="3.13794" y1="10.9927" x2="23.7539" y2="10.9927" gradientUnits="userSpaceOnUse">
<stop offset="0.1" stop-color="#E24DC3"/>
<stop offset="0.86" stop-color="#C738B9"/>
<stop offset="0.97" stop-color="#EC55C7"/>
<stop offset="1" stop-color="#D644BF"/>
</linearGradient>
<linearGradient id="paint19_linear_1_4932" x1="3.09539" y1="10.1953" x2="18.1659" y2="10.1953" gradientUnits="userSpaceOnUse">
<stop stop-color="#B086CC"/>
<stop offset="0.03" stop-color="#C9ABDC"/>
<stop offset="0.07" stop-color="#EBDEF3"/>
<stop offset="0.13" stop-color="#B086CC"/>
<stop offset="0.29" stop-color="#8969C3"/>
<stop offset="1" stop-color="#B086CC"/>
</linearGradient>
<linearGradient id="paint20_linear_1_4932" x1="1.91569" y1="11.2841" x2="17.6642" y2="11.2841" gradientUnits="userSpaceOnUse">
<stop stop-color="#B086CC"/>
<stop offset="0.03" stop-color="#C9ABDC"/>
<stop offset="0.07" stop-color="#EBDEF3"/>
<stop offset="0.13" stop-color="#B086CC"/>
<stop offset="0.29" stop-color="#9673D6"/>
<stop offset="1" stop-color="#C19CD9"/>
</linearGradient>
<radialGradient id="paint21_radial_1_4932" cx="0" cy="0" r="1" gradientUnits="userSpaceOnUse" gradientTransform="translate(14.7032 14.6039) scale(14.3865 10.5357)">
<stop stop-color="#8770B8"/>
<stop offset="1" stop-color="white"/>
</radialGradient>
<linearGradient id="paint22_linear_1_4932" x1="22.2276" y1="25.0615" x2="8.30674" y2="0.40266" gradientUnits="userSpaceOnUse">
<stop offset="0.04" stop-color="#9F19AB"/>
<stop offset="0.24" stop-color="#AE24B0"/>
<stop offset="0.65" stop-color="#D643BF"/>
<stop offset="1" stop-color="#FF63CE"/>
</linearGradient>
<radialGradient id="paint23_radial_1_4932" cx="0" cy="0" r="1" gradientUnits="userSpaceOnUse" gradientTransform="translate(13.949 14.0827) scale(15.8732 11.6245)">
<stop stop-color="white"/>
<stop offset="1"/>
</radialGradient>
<linearGradient id="paint24_linear_1_4932" x1="24.8241" y1="15.5542" x2="0.410781" y2="15.5542" gradientUnits="userSpaceOnUse">
<stop offset="0.1" stop-color="#E24DC3"/>
<stop offset="0.86" stop-color="#C738B9"/>
<stop offset="0.97" stop-color="#EC55C7"/>
<stop offset="1" stop-color="#D644BF"/>
</linearGradient>
<radialGradient id="paint25_radial_1_4932" cx="0" cy="0" r="1" gradientUnits="userSpaceOnUse" gradientTransform="translate(20.9933 8.89281) scale(14.496 10.6159)">
<stop stop-color="#69184E"/>
<stop offset="0.11" stop-color="#4A1037"/>
<stop offset="0.24" stop-color="#2F0A23"/>
<stop offset="0.38" stop-color="#1A0613"/>
<stop offset="0.53" stop-color="#0B0208"/>
<stop offset="0.72" stop-color="#020001"/>
<stop offset="1"/>
</radialGradient>
<radialGradient id="paint26_radial_1_4932" cx="0" cy="0" r="1" gradientUnits="userSpaceOnUse" gradientTransform="translate(23.4073 19.4108) scale(5.61232 4.1101)">
<stop stop-color="#8770B8"/>
<stop offset="1" stop-color="white"/>
</radialGradient>
<linearGradient id="paint27_linear_1_4932" x1="31.7133" y1="19.8273" x2="19.4488" y2="19.8273" gradientUnits="userSpaceOnUse">
<stop stop-color="#E24DC3"/>
<stop offset="0.43" stop-color="#C738B9"/>
<stop offset="0.56" stop-color="#EC55C7"/>
<stop offset="0.8" stop-color="#DD49C1"/>
<stop offset="1" stop-color="#D644BF"/>
</linearGradient>
<radialGradient id="paint28_radial_1_4932" cx="0" cy="0" r="1" gradientUnits="userSpaceOnUse" gradientTransform="translate(23.1153 17.2301) scale(7.89555 5.89783)">
<stop stop-color="#69184E"/>
<stop offset="0.11" stop-color="#4A1037"/>
<stop offset="0.24" stop-color="#2F0A23"/>
<stop offset="0.38" stop-color="#1A0613"/>
<stop offset="0.53" stop-color="#0B0208"/>
<stop offset="0.72" stop-color="#020001"/>
<stop offset="1"/>
</radialGradient>
<radialGradient id="paint29_radial_1_4932" cx="0" cy="0" r="1" gradientUnits="userSpaceOnUse" gradientTransform="translate(24.6995 17.9011) scale(4.87658 3.57129)">
<stop stop-color="white"/>
<stop offset="1"/>
</radialGradient>
<radialGradient id="paint30_radial_1_4932" cx="0" cy="0" r="1" gradientUnits="userSpaceOnUse" gradientTransform="translate(-21.6635 9.97253) scale(1.18321 7.87732)">
<stop stop-color="#FF63CE"/>
<stop offset="0.02" stop-color="#F65FC7"/>
<stop offset="0.13" stop-color="#BD4999"/>
<stop offset="0.25" stop-color="#8B3670"/>
<stop offset="0.37" stop-color="#60254D"/>
<stop offset="0.49" stop-color="#3D1731"/>
<stop offset="0.62" stop-color="#220D1B"/>
<stop offset="0.74" stop-color="#0F050C"/>
<stop offset="0.87" stop-color="#030103"/>
<stop offset="1"/>
</radialGradient>
<radialGradient id="paint31_radial_1_4932" cx="0" cy="0" r="1" gradientUnits="userSpaceOnUse" gradientTransform="translate(20.5523 19.7917) scale(1.63262 1.19562)">
<stop stop-color="#8770B8"/>
<stop offset="1" stop-color="white"/>
</radialGradient>
<linearGradient id="paint32_linear_1_4932" x1="19.5339" y1="18.1284" x2="20.8213" y2="20.8721" gradientUnits="userSpaceOnUse">
<stop offset="0.01" stop-color="#C1A1D5"/>
<stop offset="0.05" stop-color="#C7ABD9"/>
<stop offset="0.11" stop-color="#D9C6E5"/>
<stop offset="0.2" stop-color="#F6F2F9"/>
<stop offset="0.22" stop-color="white"/>
<stop offset="0.25" stop-color="#F9F5FB"/>
<stop offset="0.3" stop-color="#E9DBF1"/>
<stop offset="0.36" stop-color="#D1B4E3"/>
<stop offset="0.43" stop-color="#B294D5"/>
<stop offset="0.49" stop-color="#9B7CCB"/>
<stop offset="0.56" stop-color="#8D6EC5"/>
<stop offset="0.61" stop-color="#8969C3"/>
<stop offset="0.76" stop-color="#9371C5"/>
<stop offset="1" stop-color="#B086CC"/>
</linearGradient>
<linearGradient id="paint33_linear_1_4932" x1="18.4059" y1="18.6069" x2="21.4253" y2="21.4283" gradientUnits="userSpaceOnUse">
<stop stop-color="#9F79C8"/>
<stop offset="0.14" stop-color="#A47FCA"/>
<stop offset="0.33" stop-color="#B491D3"/>
<stop offset="0.55" stop-color="#CDAFE1"/>
<stop offset="0.58" stop-color="#D1B4E3"/>
<stop offset="0.76" stop-color="#DAC3E8"/>
<stop offset="1" stop-color="#EBDEF3"/>
</linearGradient>
<radialGradient id="paint34_radial_1_4932" cx="0" cy="0" r="1" gradientUnits="userSpaceOnUse" gradientTransform="translate(20.4793 19.2346) scale(1.34076 0.981882)">
<stop stop-color="white"/>
<stop offset="1"/>
</radialGradient>
<radialGradient id="paint35_radial_1_4932" cx="0" cy="0" r="1" gradientUnits="userSpaceOnUse" gradientTransform="translate(20.0722 20.0273) scale(7.68867 5.63079)">
<stop stop-color="#8770B8"/>
<stop offset="1" stop-color="white"/>
</radialGradient>
<linearGradient id="paint36_linear_1_4932" x1="26.9742" y1="-0.569679" x2="3.48293" y2="14.3782" gradientUnits="userSpaceOnUse">
<stop offset="0.03" stop-color="#7C1DC9"/>
<stop offset="0.21" stop-color="#6E41D1"/>
<stop offset="0.62" stop-color="#4C9BE8"/>
<stop offset="1" stop-color="#2AF6FF"/>
</linearGradient>
</defs>
</svg>
