<svg width="33" height="28" viewBox="0 0 33 28" fill="none" xmlns="http://www.w3.org/2000/svg">
<g opacity="0.7">
<path opacity="0.03" d="M2.14294 16.8868L6.6634 14.9708C6.6888 14.9605 7.64255 14.5573 7.67077 14.5511C8.48343 14.2227 9.4908 14.0482 10.4953 14.0648C10.7042 14.069 10.9073 14.0835 11.1048 14.1001C11.6946 14.1542 12.3549 14.3183 12.8007 14.5074L21.7993 18.1461L30.7697 21.7744C31.43 22.0549 31.9802 22.537 32.1156 23.0108C32.141 23.1023 32.1636 23.1937 32.1721 23.2893C32.2285 23.9688 31.6755 24.6213 30.6427 25.0619L26.1222 26.9778C26.0968 26.9882 25.1431 27.3914 25.1149 27.3976C24.3022 27.726 23.2948 27.9005 22.2903 27.8839C22.0815 27.8797 21.8783 27.8652 21.6808 27.8486C21.091 27.7945 20.4308 27.6304 19.9849 27.4413L10.9863 23.8026L2.01597 20.1743C1.35567 19.8938 0.80543 19.4116 0.669986 18.9379C0.64459 18.8464 0.622017 18.755 0.613551 18.6615C0.557116 17.9819 1.11018 17.3274 2.14294 16.8889V16.8868Z" fill="black"/>
<path opacity="0.05" d="M2.17419 16.951L6.62975 15.0724C6.68054 15.0516 7.56939 14.6797 7.62583 14.6672C8.44131 14.3534 9.44021 14.1955 10.4137 14.2287C10.6197 14.235 10.8172 14.2557 11.0119 14.2765C11.5424 14.3305 12.2704 14.5259 12.6711 14.6963L21.5484 18.2872L30.372 21.8552C30.9674 22.1087 31.6023 22.6116 31.7462 23.0334C31.7744 23.1207 31.8083 23.208 31.8224 23.2974C31.9353 23.952 31.4245 24.6024 30.3918 25.0429L25.9362 26.9215C25.8854 26.9423 24.9966 27.3142 24.9373 27.3267C24.1218 27.6405 23.1229 27.7964 22.1494 27.7652C21.9434 27.7569 21.7459 27.7382 21.5512 27.7174C21.0207 27.6634 20.2927 27.468 19.892 27.2976L11.0148 23.7067L2.19112 20.1387C1.59573 19.8852 0.958016 19.3823 0.816928 18.9605C0.788711 18.8732 0.754849 18.7859 0.74074 18.6965C0.627869 18.042 1.13861 17.3915 2.17137 16.9531L2.17419 16.951Z" fill="black"/>
<path opacity="0.08" d="M2.20803 17.0176L6.59868 15.1744C6.67205 15.1432 7.49882 14.8024 7.5863 14.7837C8.40178 14.4865 9.39222 14.3452 10.3375 14.3951C10.5407 14.4055 10.7326 14.4325 10.9216 14.4554C11.3928 14.5094 12.1858 14.7359 12.5441 14.8876L21.3 18.4286L29.9741 21.9364C30.5018 22.1608 31.2298 22.6845 31.3765 23.0564C31.4104 23.1396 31.4527 23.2206 31.4753 23.3058C31.6474 23.9375 31.1734 24.5838 30.1434 25.0223L25.7528 26.8655C25.6794 26.8967 24.8526 27.2375 24.7652 27.2562C23.9497 27.5533 22.9592 27.6926 22.0139 27.6448C21.8136 27.6344 21.6189 27.6074 21.4298 27.5845C20.9586 27.5305 20.1657 27.304 19.8073 27.1523L11.0514 23.6113L2.37733 20.1035C1.84967 19.8791 1.12165 19.3554 0.97492 18.9834C0.941059 18.9003 0.898731 18.8193 0.876157 18.7341C0.70403 18.1023 1.17809 17.4561 2.20803 17.0176Z" fill="black"/>
<path opacity="0.11" d="M2.23888 17.0839L6.56745 15.276C6.66621 15.2345 7.42809 14.9248 7.54378 14.8999C8.35927 14.6194 9.34124 14.4947 10.2611 14.5591C10.4587 14.5737 10.6477 14.6069 10.8311 14.6298C11.2403 14.6817 12.1037 14.9435 12.417 15.0765L21.0515 18.5698L29.5789 22.0193C30.0417 22.2167 30.8656 22.7612 31.0095 23.0812C31.0462 23.1623 31.0998 23.2371 31.1309 23.3181C31.3622 23.9249 30.9249 24.5691 29.8977 25.0076L25.5692 26.8155C25.4704 26.857 24.7085 27.1667 24.5928 27.1916C23.7773 27.4721 22.7954 27.5948 21.8755 27.5324C21.678 27.5179 21.4889 27.4846 21.3055 27.4618C20.8963 27.4098 20.0329 27.148 19.7197 27.015L11.0851 23.5218L2.55774 20.0722C2.09497 19.8748 1.27101 19.3303 1.1271 19.0082C1.09042 18.9272 1.03681 18.8524 1.00577 18.7713C0.774387 18.1645 1.21176 17.5203 2.23888 17.0819V17.0839Z" fill="black"/>
<path opacity="0.14" d="M2.27269 17.1507L6.53637 15.3781C6.66052 15.3262 7.35468 15.0477 7.50423 15.0165C8.31972 14.7526 9.29604 14.6446 10.1849 14.7256C10.3796 14.7443 10.563 14.7838 10.7408 14.8087C11.0907 14.8586 12.0219 15.1537 12.2899 15.268L20.806 18.7113L29.1866 22.1006C29.5845 22.269 30.5749 22.8196 30.6455 23.1064C30.7047 23.1771 30.7499 23.2519 30.7866 23.3288C31.0772 23.9127 30.6793 24.5527 29.6494 24.9891L25.3857 26.7617C25.2616 26.8137 24.5646 27.0921 24.4178 27.1233C23.6024 27.3872 22.6288 27.4932 21.7372 27.4142C21.5425 27.3955 21.3591 27.356 21.1813 27.3311C20.8314 27.2812 19.9002 26.9861 19.6321 26.8718L11.1161 23.4285L2.73546 20.0392C2.33759 19.8709 1.34715 19.3202 1.27661 19.0334C1.21735 18.9628 1.17221 18.888 1.13552 18.8111C0.844882 18.2271 1.24275 17.5871 2.27269 17.1507Z" fill="black"/>
<path opacity="0.16" d="M2.30392 17.217L6.5027 15.4798C6.65225 15.4154 7.28151 15.1702 7.45928 15.1327C8.27759 14.8834 9.24263 14.7919 10.1033 14.8917C10.2951 14.9125 10.4701 14.9582 10.645 14.9873C10.9357 15.033 11.9346 15.3655 12.1575 15.459L20.5522 18.8545L28.7833 22.1836C29.1134 22.3249 30.2111 22.8922 30.2704 23.1312C30.3353 23.1977 30.3889 23.2683 30.434 23.339C30.7867 23.898 30.4227 24.536 29.3956 24.9723L25.1968 26.7096C25.0473 26.774 24.418 27.0192 24.2403 27.0566C23.422 27.306 22.4569 27.3933 21.5963 27.2977C21.4072 27.2748 21.2295 27.2312 21.0545 27.2021C20.7639 27.1564 19.765 26.8239 19.542 26.7304L11.1473 23.3348L2.91624 20.0058C2.5861 19.8645 1.48844 19.2972 1.42918 19.0582C1.36428 18.9917 1.31067 18.921 1.26552 18.8504C0.912799 18.2914 1.2768 17.6534 2.30392 17.217Z" fill="black"/>
<path opacity="0.19" d="M2.33494 17.2815L6.47164 15.5817C6.64659 15.5069 7.21094 15.2928 7.41693 15.2492C8.23524 15.0165 9.19182 14.9437 10.0242 15.0559C10.2105 15.0809 10.3826 15.1328 10.5547 15.1619C10.7861 15.2014 11.8527 15.5713 12.0305 15.6482L20.3039 18.9938L28.3882 22.2626C28.6535 22.3748 29.8555 22.9609 29.9035 23.152C29.9769 23.2144 30.0361 23.2809 30.0869 23.3474C30.5045 23.8835 30.1716 24.5173 29.1473 24.9537L25.0106 26.6536C24.8356 26.7284 24.2713 26.9424 24.0653 26.9861C23.247 27.2188 22.2904 27.2894 21.458 27.1793C21.2718 27.1523 21.0996 27.1024 20.9275 27.0733C20.6961 27.0339 19.6295 26.664 19.4517 26.5871L11.1783 23.2414L3.09399 19.9726C2.82875 19.8604 1.62668 19.2744 1.57871 19.0832C1.50535 19.0209 1.44609 18.9544 1.39529 18.8879C0.977674 18.3517 1.31064 17.7179 2.33494 17.2815Z" fill="black"/>
<path opacity="0.22" d="M2.36868 17.3476L6.44048 15.6831C6.64082 15.5979 7.14028 15.4129 7.3773 15.3651C8.19561 15.149 9.14654 15.0929 9.94792 15.2217C10.1313 15.2508 10.295 15.309 10.4643 15.3402C10.6364 15.3734 11.768 15.7807 11.9034 15.8389L20.0555 19.1368L27.9902 22.3453C28.1878 22.4305 29.4971 23.0331 29.5337 23.1765C29.6128 23.2347 29.6805 23.295 29.7397 23.3573C30.2194 23.8664 29.9231 24.5002 28.8988 24.9346L24.8271 26.5991C24.6267 26.6843 24.1273 26.8692 23.8902 26.917C23.0719 27.1331 22.1238 27.1872 21.3196 27.0604C21.1362 27.0313 20.9725 26.9731 20.8032 26.942C20.6311 26.9087 19.4996 26.5014 19.3641 26.4432L11.2121 23.1454L3.27729 19.9368C3.07977 19.8516 1.77047 19.249 1.73379 19.1056C1.65478 19.0474 1.58705 18.9872 1.5278 18.9248C1.0481 18.4157 1.34439 17.7819 2.36868 17.3476Z" fill="black"/>
<path opacity="0.25" d="M2.39976 17.4142L6.40665 15.785C6.62957 15.6894 7.06695 15.5357 7.33219 15.4816C8.15332 15.2821 9.09297 15.2427 9.86613 15.386C10.0467 15.4193 10.2047 15.4816 10.3684 15.517C10.4841 15.5398 11.6805 15.9908 11.7708 16.0282L19.8015 19.2762L27.5896 22.4265C27.7222 22.4826 29.1359 23.1039 29.1613 23.1995C29.2488 23.2515 29.3221 23.3097 29.3899 23.3658C29.9373 23.85 29.6692 24.4817 28.6477 24.916L24.6409 26.5452C24.4179 26.6408 23.9806 26.7946 23.7153 26.8486C22.8942 27.0481 21.9545 27.0855 21.1814 26.9442C21.0036 26.9109 20.8428 26.8486 20.6791 26.8133C20.5634 26.7904 19.367 26.3395 19.2767 26.3021L11.246 23.0541L3.45792 19.9037C3.3253 19.8476 1.91159 19.2263 1.8862 19.1307C1.79872 19.0788 1.72536 19.0206 1.65764 18.9645C1.11022 18.4803 1.37828 17.8485 2.39976 17.4142Z" fill="black"/>
<path opacity="0.27" d="M2.43362 17.4809L6.37844 15.887C6.62675 15.781 6.99922 15.6584 7.29269 15.5982C8.11382 15.4153 9.045 15.3945 9.79276 15.5524C9.96771 15.5899 10.1314 15.6376 10.2809 15.6938C10.3402 15.6979 11.6015 16.1987 11.6467 16.2174L19.5589 19.4176L27.2002 22.5077C27.2651 22.5368 28.786 23.1748 28.7973 23.2226C28.8932 23.2703 28.9751 23.3223 29.0456 23.3763C29.6579 23.8335 29.4237 24.4652 28.4023 24.8995L24.4574 26.4934C24.2091 26.5994 23.8367 26.722 23.5432 26.7823C22.7221 26.9651 21.7909 26.9859 21.0431 26.828C20.8682 26.7906 20.7045 26.7428 20.5549 26.6867C20.4957 26.6825 19.2344 26.1817 19.1892 26.163L11.277 22.9628L3.63569 19.8727C3.57079 19.8436 2.04986 19.2036 2.03575 19.1579C1.93981 19.1101 1.85798 19.0581 1.78743 19.0041C1.17511 18.5469 1.40932 17.9152 2.4308 17.4809H2.43362Z" fill="black"/>
<path opacity="0.3" d="M20.4281 26.5555L11.3082 22.867L2.18823 19.1784C1.20344 18.7587 1.3276 18.0272 2.46477 17.5451L6.34468 15.9865C7.48185 15.5023 9.20312 15.4504 10.1879 15.8702L19.3078 19.5587L28.4278 23.2473C29.4126 23.667 29.2884 24.3985 28.1512 24.8806L24.2713 26.4392C23.1341 26.9233 21.4129 26.9753 20.4281 26.5555Z" fill="black"/>
</g>
<path d="M29.2431 15.4339L28.436 15.1326L28.4586 16.155L29.26 15.7913C29.4434 15.7082 29.4321 15.5087 29.2402 15.436L29.2431 15.4339Z" fill="url(#paint0_linear_1_4856)"/>
<path d="M7.4732 0.505234C5.89584 -0.165978 3.34497 -0.168055 1.77607 0.496923C0.260787 1.14112 0.232569 2.17391 1.65756 2.8472L7.47602 16.6829L26.4523 24.54C27.423 24.9536 28.6392 24.4382 28.6392 23.6132V10.7417C28.6392 9.76713 27.9309 8.86733 26.7853 8.38107L7.47602 0.503157L7.4732 0.505234Z" fill="url(#paint1_linear_1_4856)"/>
<path style="mix-blend-mode:color-dodge" d="M9.93095 15.6897L9.00259 15.2824C8.90665 15.2408 8.84175 15.2055 8.80225 15.1784V2.33398L26.3903 9.44509C26.9377 9.67576 27.2791 10.1101 27.2791 10.5776V22.8527L9.93377 15.6897H9.93095Z" fill="url(#paint2_radial_1_4856)"/>
<path d="M7.4732 0.505234C5.89584 -0.165978 3.34497 -0.168055 1.77607 0.496923C0.260787 1.14112 0.232569 2.17391 1.65756 2.8472L7.47602 16.6829L26.7232 24.7084C27.6939 25.1219 28.9101 24.6065 28.9101 23.7815V10.9101C28.9101 9.93545 28.2018 9.03566 27.0562 8.54939L7.47602 0.503157L7.4732 0.505234Z" fill="#FF63CE"/>
<path d="M7.49305 0.756699C5.91568 0.085487 3.36482 0.0834103 1.79592 0.748388C0.280638 1.39259 0.96068 2.78696 2.38567 3.46233L7.49305 16.9364L26.4694 24.7936C27.4401 25.2071 28.6562 24.6917 28.6562 23.8668V10.9953C28.6562 10.0207 27.948 9.12088 26.8023 8.63461L7.49305 0.756699Z" fill="url(#paint3_linear_1_4856)"/>
<path style="mix-blend-mode:multiply" d="M7.49313 0.756699C5.91577 0.085487 3.36491 0.0834103 1.79601 0.748388C0.280726 1.39259 1.00027 2.67474 2.42526 3.35011L7.49313 16.9364L26.4695 24.7936C27.4401 25.2071 28.6563 24.6917 28.6563 23.8668V10.9953C28.6563 10.0207 27.9481 9.12088 26.8024 8.63461L7.49313 0.756699Z" fill="url(#paint4_radial_1_4856)"/>
<g style="mix-blend-mode:multiply" opacity="0.3">
<g style="mix-blend-mode:multiply" opacity="0.3">
<path d="M27.2003 24.7831C26.983 24.7831 26.7742 24.7415 26.5795 24.6584L7.75555 16.8636C7.70758 16.8428 7.6709 16.8096 7.65397 16.768L2.61149 3.25025L2.54376 3.217C1.7057 2.82009 1.15264 2.20914 1.16957 1.70002C1.17803 1.46728 1.31065 1.13687 1.90887 0.883344C2.63124 0.575792 3.60192 0.407471 4.63469 0.407471C5.66745 0.407471 6.65789 0.579947 7.39436 0.891655L26.7065 8.76957C27.7844 9.22466 28.4531 10.0767 28.4531 10.9931V23.8646C28.4531 24.1181 28.3177 24.3508 28.075 24.5233C27.8408 24.6875 27.5248 24.781 27.2087 24.781L27.2003 24.7831ZM8.03773 16.6225L26.7883 24.3862C27.1128 24.5254 27.5135 24.4818 27.7759 24.2989C27.9368 24.1867 28.0242 24.0308 28.0242 23.8646V10.9931C28.0242 10.1889 27.4373 9.44078 26.4948 9.04179L7.18273 1.16388C6.50833 0.877111 5.60255 0.719179 4.63186 0.719179C3.66118 0.719179 2.77797 0.872955 2.11768 1.15349C1.7706 1.30103 1.59847 1.48182 1.59001 1.70833C1.57872 2.10732 2.06406 2.6206 2.77232 2.95517L2.90777 3.01959C2.95292 3.04037 2.98396 3.07154 2.99807 3.10894L8.04055 16.6225H8.03773Z" fill="#B086CC"/>
</g>
</g>
<g style="mix-blend-mode:screen">
<g style="mix-blend-mode:screen">
<path d="M27.2002 24.6793C27.1297 24.6793 27.0591 24.6751 26.9914 24.6647C26.9519 24.6585 26.9293 24.6315 26.935 24.6045C26.9434 24.5774 26.9773 24.5587 27.0168 24.5629C27.1438 24.5816 27.2792 24.5816 27.4062 24.5587C27.4429 24.5525 27.4824 24.5691 27.4908 24.5982C27.4993 24.6252 27.4767 24.6543 27.4372 24.6606C27.3582 24.673 27.2764 24.6813 27.1974 24.6813L27.2002 24.6793ZM26.6161 24.5463C26.6161 24.5463 26.5935 24.5442 26.5822 24.54L26.2126 24.3863C26.1787 24.3717 26.1674 24.3405 26.1844 24.3156C26.2041 24.2907 26.2464 24.2823 26.2803 24.2948L26.65 24.4486C26.6838 24.4631 26.6951 24.4943 26.6782 24.5192C26.6641 24.5359 26.6415 24.5463 26.6161 24.5463ZM27.8097 24.5338C27.7871 24.5338 27.7674 24.5255 27.7533 24.513C27.7307 24.4902 27.7363 24.4569 27.7702 24.4403C27.8069 24.4216 27.8436 24.3987 27.8774 24.3759C27.9395 24.3322 27.9931 24.2824 28.0354 24.2283C28.0552 24.2034 28.0975 24.1951 28.1314 24.2096C28.1652 24.2242 28.1765 24.2553 28.1568 24.2803C28.106 24.3426 28.0467 24.3987 27.9734 24.4507C27.9339 24.4777 27.8943 24.5026 27.852 24.5255C27.8407 24.5317 27.8238 24.5359 27.8097 24.5359V24.5338ZM25.8796 24.2408C25.8796 24.2408 25.857 24.2387 25.8457 24.2346L25.4761 24.0808C25.4422 24.0662 25.431 24.0351 25.4479 24.0101C25.4676 23.9852 25.51 23.9769 25.5438 23.9893L25.9135 24.1431C25.9473 24.1577 25.9586 24.1888 25.9417 24.2138C25.9276 24.2304 25.905 24.2408 25.8796 24.2408ZM28.2301 24.0122H28.2217C28.1822 24.008 28.1568 23.9831 28.1596 23.954C28.1652 23.9249 28.1681 23.8938 28.1681 23.8647V23.6485C28.1681 23.6195 28.1991 23.5966 28.2386 23.5966C28.2781 23.5966 28.3091 23.6195 28.3091 23.6485V23.8647C28.3091 23.9 28.3063 23.9332 28.3007 23.9665C28.295 23.9935 28.2668 24.0122 28.2301 24.0122ZM25.1431 23.9353C25.1431 23.9353 25.1206 23.9332 25.1093 23.9291L24.7396 23.7774C24.7058 23.7628 24.6945 23.7317 24.7114 23.7067C24.7312 23.6818 24.7735 23.6735 24.8073 23.6859L25.177 23.8376C25.2109 23.8522 25.2221 23.8834 25.2052 23.9083C25.1911 23.9249 25.1685 23.9353 25.1431 23.9353ZM24.4067 23.6298C24.4067 23.6298 24.3841 23.6278 24.3728 23.6236L24.0031 23.4698C23.9693 23.4553 23.958 23.4241 23.9749 23.3992C23.9947 23.3742 24.037 23.3659 24.0709 23.3784L24.4405 23.5322C24.4744 23.5467 24.4857 23.5779 24.4687 23.6028C24.4546 23.6195 24.4321 23.6298 24.4067 23.6298ZM28.2386 23.3888C28.1991 23.3888 28.1681 23.3659 28.1681 23.3368V23.0251C28.1681 22.996 28.1991 22.9732 28.2386 22.9732C28.2781 22.9732 28.3091 22.996 28.3091 23.0251V23.3368C28.3091 23.3659 28.2781 23.3888 28.2386 23.3888ZM23.6674 23.3244C23.6674 23.3244 23.6448 23.3223 23.6335 23.3181L23.2638 23.1644C23.23 23.1498 23.2187 23.1186 23.2356 23.0937C23.2554 23.0688 23.2977 23.0605 23.3316 23.0729L23.7012 23.2267C23.7351 23.2412 23.7464 23.2724 23.7294 23.2974C23.7153 23.314 23.6927 23.3244 23.6674 23.3244ZM22.9281 23.0189C22.9281 23.0189 22.9055 23.0168 22.8942 23.0127L22.5245 22.8589C22.4907 22.8443 22.4794 22.8132 22.4963 22.7882C22.5161 22.7633 22.5584 22.755 22.5923 22.7674L22.9619 22.9212C22.9958 22.9358 23.0071 22.9669 22.9901 22.9919C22.976 23.0085 22.9534 23.0189 22.9281 23.0189ZM28.2386 22.7654C28.1991 22.7654 28.1681 22.7425 28.1681 22.7134V22.4017C28.1681 22.3726 28.1991 22.3498 28.2386 22.3498C28.2781 22.3498 28.3091 22.3726 28.3091 22.4017V22.7134C28.3091 22.7425 28.2781 22.7654 28.2386 22.7654ZM22.1916 22.7134C22.1916 22.7134 22.169 22.7113 22.1577 22.7072L21.7881 22.5534C21.7542 22.5389 21.7429 22.5077 21.7627 22.4828C21.7824 22.4578 21.8248 22.4495 21.8586 22.4641L22.2283 22.6178C22.2621 22.6324 22.2734 22.6635 22.2537 22.6885C22.2395 22.7051 22.217 22.7155 22.1916 22.7155V22.7134ZM21.4551 22.4079C21.4551 22.4079 21.4325 22.4059 21.4212 22.4017L21.0516 22.2479C21.0177 22.2334 21.0064 22.2022 21.0234 22.1773C21.0431 22.1523 21.0854 22.144 21.1193 22.1565L21.489 22.3103C21.5228 22.3248 21.5341 22.356 21.5172 22.3809C21.5031 22.3976 21.4805 22.4079 21.4551 22.4079ZM28.2386 22.144C28.1991 22.144 28.1681 22.1212 28.1681 22.0921V21.7804C28.1681 21.7513 28.1991 21.7284 28.2386 21.7284C28.2781 21.7284 28.3091 21.7513 28.3091 21.7804V22.0921C28.3091 22.1212 28.2781 22.144 28.2386 22.144ZM20.7158 22.1025C20.7158 22.1025 20.6932 22.1004 20.6819 22.0962L20.3123 21.9425C20.2784 21.9279 20.2671 21.8967 20.2841 21.8718C20.3038 21.8469 20.3461 21.8386 20.38 21.851L20.7497 22.0048C20.7835 22.0193 20.7948 22.0505 20.7779 22.0755C20.7638 22.0921 20.7412 22.1025 20.7158 22.1025ZM19.9765 21.797C19.9765 21.797 19.9539 21.7949 19.9426 21.7908L19.573 21.637C19.5391 21.6224 19.5278 21.5913 19.5448 21.5663C19.5645 21.5414 19.6068 21.5331 19.6407 21.5455L20.0104 21.6993C20.0442 21.7139 20.0555 21.745 20.0386 21.77C20.0245 21.7866 20.0019 21.797 19.9765 21.797ZM28.2386 21.5206C28.1991 21.5206 28.1681 21.4978 28.1681 21.4687V21.157C28.1681 21.1279 28.1991 21.105 28.2386 21.105C28.2781 21.105 28.3091 21.1279 28.3091 21.157V21.4687C28.3091 21.4978 28.2781 21.5206 28.2386 21.5206ZM19.24 21.4915C19.24 21.4915 19.2174 21.4894 19.2062 21.4853L18.8365 21.3336C18.8026 21.319 18.7914 21.2879 18.8083 21.2629C18.828 21.238 18.8704 21.2297 18.9042 21.2422L19.2739 21.3939C19.3077 21.4084 19.319 21.4396 19.3021 21.4645C19.288 21.4811 19.2654 21.4915 19.24 21.4915ZM18.5007 21.186C18.5007 21.186 18.4781 21.184 18.4669 21.1798L18.0972 21.026C18.0633 21.0115 18.0521 20.9803 18.069 20.9554C18.0887 20.9304 18.1311 20.9221 18.1649 20.9346L18.5346 21.0884C18.5684 21.1029 18.5797 21.1341 18.5628 21.159C18.5487 21.1757 18.5261 21.186 18.5007 21.186ZM28.2358 20.8972C28.1963 20.8972 28.1652 20.8743 28.1652 20.8452V20.5335C28.1652 20.5044 28.1963 20.4816 28.2358 20.4816C28.2753 20.4816 28.3063 20.5044 28.3063 20.5335V20.8452C28.3063 20.8743 28.2753 20.8972 28.2358 20.8972ZM17.7614 20.8806C17.7614 20.8806 17.7388 20.8785 17.7276 20.8743L17.3579 20.7206C17.324 20.706 17.3128 20.6748 17.3297 20.6499C17.3494 20.625 17.3918 20.6167 17.4256 20.6291L17.7953 20.7829C17.8291 20.7974 17.8404 20.8286 17.8235 20.8536C17.8094 20.8702 17.7868 20.8806 17.7614 20.8806ZM17.0221 20.5751C17.0221 20.5751 16.9995 20.573 16.9883 20.5689L16.6186 20.4172C16.5847 20.4026 16.5735 20.3714 16.5904 20.3465C16.6101 20.3216 16.6525 20.3133 16.6863 20.3257L17.056 20.4774C17.0898 20.492 17.1011 20.5231 17.0842 20.5481C17.0701 20.5647 17.0475 20.5751 17.0221 20.5751ZM28.2358 20.2738C28.1963 20.2738 28.1652 20.2509 28.1652 20.2218V19.9101C28.1652 19.881 28.1963 19.8582 28.2358 19.8582C28.2753 19.8582 28.3063 19.881 28.3063 19.9101V20.2218C28.3063 20.2509 28.2753 20.2738 28.2358 20.2738ZM16.2856 20.2696C16.2856 20.2696 16.2631 20.2675 16.2518 20.2634L15.8821 20.1096C15.8483 20.0951 15.837 20.0639 15.8539 20.039C15.8737 20.014 15.916 20.0057 15.9499 20.0182L16.3195 20.172C16.3534 20.1865 16.3647 20.2177 16.3477 20.2426C16.3336 20.2592 16.311 20.2696 16.2856 20.2696ZM15.5463 19.9641C15.5463 19.9641 15.5238 19.9621 15.5125 19.9579L15.1428 19.8041C15.109 19.7896 15.0977 19.7584 15.1146 19.7335C15.1344 19.7085 15.1767 19.7002 15.2105 19.7127L15.5802 19.8665C15.6141 19.881 15.6253 19.9122 15.6084 19.9371C15.5943 19.9538 15.5717 19.9641 15.5463 19.9641ZM14.807 19.6587C14.807 19.6587 14.7845 19.6566 14.7732 19.6524L14.4035 19.4987C14.3697 19.4841 14.3584 19.4529 14.3753 19.428C14.3951 19.4031 14.4374 19.3948 14.4712 19.4072L14.8409 19.561C14.8748 19.5756 14.886 19.6067 14.8691 19.6317C14.855 19.6483 14.8324 19.6587 14.807 19.6587ZM28.233 19.6504C28.1935 19.6504 28.1624 19.6275 28.1624 19.5984V19.2867C28.1624 19.2576 28.1935 19.2348 28.233 19.2348C28.2725 19.2348 28.3035 19.2576 28.3035 19.2867V19.5984C28.3035 19.6275 28.2725 19.6504 28.233 19.6504ZM14.0677 19.3532C14.0677 19.3532 14.0452 19.3511 14.0339 19.347L13.6642 19.1932C13.6304 19.1786 13.6191 19.1475 13.6388 19.1225C13.6586 19.0976 13.7009 19.0893 13.7348 19.1038L14.1044 19.2576C14.1383 19.2722 14.1496 19.3033 14.1298 19.3283C14.1157 19.3449 14.0931 19.3553 14.0677 19.3553V19.3532ZM13.3313 19.0477C13.3313 19.0477 13.3087 19.0457 13.2974 19.0415L12.9277 18.8877C12.8939 18.8732 12.8826 18.842 12.8995 18.8171C12.9193 18.7921 12.9616 18.7838 12.9955 18.7963L13.3651 18.9501C13.399 18.9646 13.4103 18.9958 13.3933 19.0207C13.3792 19.0373 13.3567 19.0477 13.3313 19.0477ZM28.233 19.0269C28.1935 19.0269 28.1624 19.0041 28.1624 18.975V18.6633C28.1624 18.6342 28.1935 18.6113 28.233 18.6113C28.2725 18.6113 28.3035 18.6342 28.3035 18.6633V18.975C28.3035 19.0041 28.2725 19.0269 28.233 19.0269ZM12.5948 18.7423C12.5948 18.7423 12.5722 18.7402 12.5609 18.736L12.1913 18.5822C12.1574 18.5677 12.1461 18.5365 12.163 18.5116C12.1828 18.4867 12.2251 18.4783 12.259 18.4908L12.6286 18.6446C12.6625 18.6591 12.6738 18.6903 12.6569 18.7152C12.6427 18.7319 12.6202 18.7423 12.5948 18.7423ZM11.8555 18.4368C11.8555 18.4368 11.8329 18.4347 11.8216 18.4305L11.452 18.2768C11.4181 18.2622 11.4068 18.2311 11.4237 18.2061C11.4435 18.1812 11.4858 18.1729 11.5197 18.1853L11.8893 18.3391C11.9232 18.3537 11.9345 18.3848 11.9176 18.4098C11.9034 18.4264 11.8809 18.4368 11.8555 18.4368ZM28.233 18.4035C28.1935 18.4035 28.1624 18.3807 28.1624 18.3516V18.0399C28.1624 18.0108 28.1935 17.9879 28.233 17.9879C28.2725 17.9879 28.3035 18.0108 28.3035 18.0399V18.3516C28.3035 18.3807 28.2725 18.4035 28.233 18.4035ZM11.119 18.1313C11.119 18.1313 11.0964 18.1292 11.0851 18.1251L10.7155 17.9734C10.6816 17.9588 10.6703 17.9277 10.6873 17.9027C10.707 17.8778 10.7494 17.8695 10.7832 17.8819L11.1529 18.0336C11.1867 18.0482 11.198 18.0794 11.1811 18.1043C11.167 18.1209 11.1444 18.1313 11.119 18.1313ZM10.3797 17.8258C10.3797 17.8258 10.3571 17.8238 10.3458 17.8196L9.97619 17.6658C9.94233 17.6513 9.93104 17.6201 9.94797 17.5952C9.96772 17.5702 10.01 17.5619 10.0439 17.5744L10.4136 17.7282C10.4474 17.7427 10.4587 17.7739 10.4418 17.7988C10.4277 17.8154 10.4051 17.8258 10.3797 17.8258ZM28.233 17.7801C28.1935 17.7801 28.1624 17.7573 28.1624 17.7282V17.4165C28.1624 17.3874 28.1935 17.3645 28.233 17.3645C28.2725 17.3645 28.3035 17.3874 28.3035 17.4165V17.7282C28.3035 17.7573 28.2725 17.7801 28.233 17.7801ZM9.64322 17.5204C9.64322 17.5204 9.62065 17.5183 9.60936 17.5141L9.23971 17.3603C9.20585 17.3458 9.19456 17.3146 9.21149 17.2897C9.23125 17.2648 9.27357 17.2564 9.30743 17.2689L9.67708 17.4227C9.71094 17.4372 9.72223 17.4684 9.7053 17.4933C9.69119 17.51 9.66862 17.5204 9.64322 17.5204ZM8.90392 17.2149C8.90392 17.2149 8.88135 17.2128 8.87006 17.2086L8.5004 17.0549C8.46654 17.0403 8.45526 17.0092 8.47219 16.9842C8.49195 16.9593 8.53427 16.951 8.56813 16.9634L8.93778 17.1172C8.97164 17.1318 8.98293 17.1629 8.966 17.1879C8.95189 17.2045 8.92932 17.2149 8.90392 17.2149ZM28.233 17.1567C28.1935 17.1567 28.1624 17.1338 28.1624 17.1047V16.793C28.1624 16.7639 28.1935 16.7411 28.233 16.7411C28.2725 16.7411 28.3035 16.7639 28.3035 16.793V17.1047C28.3035 17.1338 28.2725 17.1567 28.233 17.1567ZM8.16744 16.9094C8.16744 16.9094 8.14487 16.9073 8.13358 16.9032L7.82318 16.7743C7.78932 16.7598 7.77804 16.7286 7.79497 16.7037C7.81472 16.6787 7.85705 16.6704 7.89091 16.6829L8.2013 16.8117C8.23516 16.8263 8.24645 16.8575 8.22952 16.8824C8.21541 16.899 8.19284 16.9094 8.16744 16.9094ZM28.233 16.5333C28.1935 16.5333 28.1624 16.5104 28.1624 16.4813V16.1696C28.1624 16.1405 28.1935 16.1177 28.233 16.1177C28.2725 16.1177 28.3035 16.1405 28.3035 16.1696V16.4813C28.3035 16.5104 28.2725 16.5333 28.233 16.5333ZM28.233 15.9099C28.1935 15.9099 28.1624 15.887 28.1624 15.8579V15.5462C28.1624 15.5171 28.1935 15.4943 28.233 15.4943C28.2725 15.4943 28.3035 15.5171 28.3035 15.5462V15.8579C28.3035 15.887 28.2725 15.9099 28.233 15.9099ZM28.233 15.2864C28.1935 15.2864 28.1624 15.2636 28.1624 15.2345V14.9228C28.1624 14.8937 28.1935 14.8708 28.233 14.8708C28.2725 14.8708 28.3035 14.8937 28.3035 14.9228V15.2345C28.3035 15.2636 28.2725 15.2864 28.233 15.2864ZM28.233 14.663C28.1935 14.663 28.1624 14.6402 28.1624 14.6111V14.2994C28.1624 14.2703 28.1935 14.2474 28.233 14.2474C28.2725 14.2474 28.3035 14.2703 28.3035 14.2994V14.6111C28.3035 14.6402 28.2725 14.663 28.233 14.663ZM28.233 14.0396C28.1935 14.0396 28.1624 14.0168 28.1624 13.9877V13.676C28.1624 13.6469 28.1935 13.624 28.233 13.624C28.2725 13.624 28.3035 13.6469 28.3035 13.676V13.9877C28.3035 14.0168 28.2725 14.0396 28.233 14.0396ZM28.233 13.4162C28.1935 13.4162 28.1624 13.3933 28.1624 13.3642V13.0525C28.1624 13.0234 28.1935 13.0006 28.233 13.0006C28.2725 13.0006 28.3035 13.0234 28.3035 13.0525V13.3642C28.3035 13.3933 28.2725 13.4162 28.233 13.4162ZM28.233 12.7928C28.1935 12.7928 28.1624 12.7699 28.1624 12.7408V12.4291C28.1624 12.4 28.1935 12.3772 28.233 12.3772C28.2725 12.3772 28.3035 12.4 28.3035 12.4291V12.7408C28.3035 12.7699 28.2725 12.7928 28.233 12.7928ZM28.233 12.1694C28.1935 12.1694 28.1624 12.1465 28.1624 12.1174V11.8057C28.1624 11.7766 28.1935 11.7537 28.233 11.7537C28.2725 11.7537 28.3035 11.7766 28.3035 11.8057V12.1174C28.3035 12.1465 28.2725 12.1694 28.233 12.1694ZM28.233 11.5459C28.1935 11.5459 28.1624 11.5231 28.1624 11.494V11.1823C28.1624 11.1532 28.1935 11.1303 28.233 11.1303C28.2725 11.1303 28.3035 11.1532 28.3035 11.1823V11.494C28.3035 11.5231 28.2725 11.5459 28.233 11.5459ZM28.2301 10.9225C28.1935 10.9225 28.1624 10.9017 28.1596 10.8727C28.1511 10.7708 28.137 10.669 28.1116 10.5693C28.106 10.5402 28.1314 10.5131 28.1681 10.509C28.2047 10.5028 28.2442 10.5215 28.2499 10.5506C28.2753 10.6545 28.2922 10.7604 28.3007 10.8664C28.3007 10.8955 28.2725 10.9184 28.233 10.9205H28.2301V10.9225ZM28.0778 10.3116C28.0467 10.3116 28.0213 10.297 28.01 10.2763C27.9677 10.1786 27.9169 10.0851 27.8577 9.99364C27.8407 9.9687 27.8577 9.93753 27.8915 9.92506C27.9254 9.91467 27.9677 9.92506 27.9846 9.95C28.0467 10.0456 28.1003 10.1453 28.1427 10.2451C28.1539 10.2721 28.1342 10.3012 28.0975 10.3095C28.089 10.3095 28.0834 10.3116 28.0749 10.3116H28.0778ZM27.7194 9.74843C27.6968 9.74843 27.6743 9.74011 27.6601 9.72349C27.5868 9.63829 27.5049 9.55517 27.4146 9.47828C27.3892 9.45542 27.3921 9.42425 27.4231 9.40555C27.4542 9.38684 27.4965 9.38892 27.5219 9.41178C27.615 9.49282 27.6996 9.57803 27.7787 9.66738C27.7984 9.69232 27.7899 9.72349 27.7561 9.74011C27.7448 9.74635 27.7307 9.74843 27.7194 9.74843ZM27.1776 9.27255C27.1607 9.27255 27.1438 9.2684 27.1297 9.25801C27.0281 9.18943 26.9208 9.12501 26.808 9.06682C26.7769 9.0502 26.7685 9.01695 26.791 8.99409C26.8136 8.97123 26.8559 8.965 26.8898 8.98162C27.0083 9.04189 27.1212 9.11046 27.2256 9.18112C27.2538 9.19982 27.2566 9.23307 27.2284 9.25385C27.2143 9.26424 27.1945 9.27047 27.1776 9.27047V9.27255ZM26.4863 8.91512C26.4863 8.91512 26.4637 8.91512 26.4524 8.90889L26.0828 8.75719C26.0489 8.74265 26.0376 8.71148 26.0546 8.68654C26.0743 8.6616 26.1166 8.65121 26.1505 8.66576L26.5202 8.81746C26.554 8.832 26.5653 8.86318 26.5484 8.88811C26.5343 8.90474 26.5117 8.91512 26.4863 8.91512ZM25.747 8.61381C25.747 8.61381 25.7244 8.61381 25.7131 8.60757L25.3435 8.45588C25.3096 8.44133 25.2983 8.41016 25.3153 8.38522C25.335 8.36029 25.3773 8.35197 25.4112 8.36444L25.7809 8.51614C25.8147 8.53068 25.826 8.56185 25.8091 8.58679C25.795 8.60342 25.7724 8.61381 25.747 8.61381ZM25.0077 8.31249C25.0077 8.31249 24.9851 8.31249 24.9738 8.30626L24.6042 8.15456C24.5703 8.14001 24.559 8.10884 24.576 8.0839C24.5957 8.05897 24.638 8.04858 24.6719 8.06312L25.0416 8.21482C25.0754 8.22937 25.0867 8.26054 25.0698 8.28547C25.0557 8.3021 25.0331 8.31249 25.0077 8.31249ZM24.2684 8.01117C24.2684 8.01117 24.2458 8.00909 24.2345 8.00494L23.8649 7.85324C23.831 7.83869 23.8197 7.80752 23.8367 7.78258C23.8564 7.75765 23.8987 7.74934 23.9326 7.76181L24.3022 7.9135C24.3361 7.92805 24.3474 7.95922 24.3305 7.98416C24.3164 8.00078 24.2938 8.01117 24.2684 8.01117ZM23.5291 7.70985C23.5291 7.70985 23.5065 7.70777 23.4952 7.70362L23.1256 7.55192C23.0917 7.53737 23.0804 7.5062 23.0974 7.48127C23.1171 7.45633 23.1594 7.44802 23.1933 7.46048L23.5629 7.61219C23.5968 7.62673 23.6081 7.6579 23.5912 7.68284C23.5771 7.69946 23.5545 7.70985 23.5291 7.70985ZM22.7898 7.40853C22.7898 7.40853 22.7672 7.40646 22.7559 7.4023L22.3863 7.2506C22.3524 7.23606 22.3411 7.20489 22.3581 7.17995C22.3778 7.15501 22.4201 7.1467 22.454 7.15917L22.8236 7.31086C22.8575 7.32541 22.8688 7.35658 22.8519 7.38152C22.8378 7.39815 22.8152 7.40853 22.7898 7.40853ZM22.0505 7.10722C22.0505 7.10722 22.0279 7.10514 22.0166 7.10098L21.647 6.94929C21.6131 6.93474 21.6018 6.90357 21.6188 6.87863C21.6385 6.85369 21.6808 6.84538 21.7147 6.85785L22.0843 7.00955C22.1182 7.02409 22.1295 7.05526 22.1126 7.0802C22.0985 7.09682 22.0759 7.10722 22.0505 7.10722ZM21.3112 6.8059C21.3112 6.8059 21.2886 6.80382 21.2773 6.79966L20.9077 6.64797C20.8738 6.63342 20.8625 6.60225 20.8795 6.57731C20.8992 6.55237 20.9415 6.54406 20.9754 6.55653L21.3451 6.70823C21.3789 6.72278 21.3902 6.75395 21.3733 6.77888C21.3592 6.79551 21.3366 6.8059 21.3112 6.8059ZM20.5719 6.50458C20.5719 6.50458 20.5493 6.5025 20.538 6.49835L20.1684 6.34665C20.1345 6.3321 20.1232 6.30093 20.1402 6.27599C20.1599 6.25106 20.2022 6.24275 20.2361 6.25521L20.6058 6.40691C20.6396 6.42146 20.6509 6.45263 20.634 6.47757C20.6199 6.49419 20.5973 6.50458 20.5719 6.50458ZM19.8326 6.20326C19.8326 6.20326 19.81 6.20118 19.7987 6.19703L19.4291 6.04533C19.3952 6.03078 19.3839 5.99961 19.4009 5.97468C19.4206 5.94974 19.4629 5.94143 19.4968 5.95389L19.8664 6.10559C19.9003 6.12014 19.9116 6.15131 19.8947 6.17625C19.8806 6.19287 19.858 6.20326 19.8326 6.20326ZM19.0933 5.90194C19.0933 5.90194 19.0707 5.89987 19.0594 5.89571L18.6898 5.74401C18.6559 5.72947 18.6446 5.6983 18.6616 5.67336C18.6813 5.64842 18.7236 5.64011 18.7575 5.65258L19.1271 5.80427C19.161 5.81882 19.1723 5.84999 19.1554 5.87493C19.1413 5.89155 19.1187 5.90194 19.0933 5.90194ZM18.354 5.60063C18.354 5.60063 18.3314 5.59855 18.3201 5.59439L17.9505 5.44269C17.9166 5.42815 17.9053 5.39698 17.9223 5.37204C17.942 5.3471 17.9843 5.33879 18.0182 5.35126L18.3878 5.50296C18.4217 5.5175 18.433 5.54867 18.4161 5.57361C18.402 5.59023 18.3794 5.60063 18.354 5.60063ZM17.6147 5.29931C17.6147 5.29931 17.5921 5.29723 17.5808 5.29307L17.2112 5.14138C17.1773 5.12683 17.166 5.09566 17.183 5.07072C17.2027 5.04578 17.245 5.03747 17.2789 5.04994L17.6485 5.20164C17.6824 5.21619 17.6937 5.24736 17.6768 5.27229C17.6627 5.28892 17.6401 5.29931 17.6147 5.29931ZM16.8754 4.99799C16.8754 4.99799 16.8528 4.99591 16.8415 4.99176L16.4719 4.84006C16.438 4.82551 16.4267 4.79434 16.4437 4.7694C16.4634 4.74447 16.5057 4.73616 16.5396 4.74862L16.9092 4.90032C16.9431 4.91487 16.9544 4.94604 16.9375 4.97097C16.9234 4.9876 16.9008 4.99799 16.8754 4.99799ZM16.1361 4.69667C16.1361 4.69667 16.1135 4.69459 16.1022 4.69044L15.7326 4.53874C15.6987 4.52419 15.6874 4.49302 15.7044 4.46809C15.7241 4.44315 15.7664 4.43484 15.8003 4.4473L16.1699 4.599C16.2038 4.61355 16.2151 4.64472 16.1982 4.66966C16.1841 4.68628 16.1615 4.69667 16.1361 4.69667ZM15.3968 4.39535C15.3968 4.39535 15.3742 4.39327 15.3629 4.38912L14.9933 4.23742C14.9594 4.22287 14.9481 4.1917 14.9651 4.16677C14.9848 4.14183 15.0271 4.13352 15.061 4.14599L15.4306 4.29768C15.4645 4.31223 15.4758 4.3434 15.4589 4.36834C15.4448 4.38496 15.4222 4.39535 15.3968 4.39535ZM14.6575 4.09403C14.6575 4.09403 14.6349 4.09196 14.6236 4.0878L14.254 3.9361C14.2201 3.92156 14.2088 3.89039 14.2258 3.86545C14.2455 3.84051 14.2878 3.8322 14.3217 3.84467L14.6913 3.99637C14.7252 4.01091 14.7365 4.04208 14.7196 4.06702C14.7055 4.08364 14.6829 4.09403 14.6575 4.09403ZM13.9182 3.79272C13.9182 3.79272 13.8956 3.79064 13.8843 3.78648L13.5147 3.63479C13.4808 3.62024 13.4695 3.58907 13.4865 3.56413C13.5062 3.53919 13.5485 3.53088 13.5824 3.54335L13.952 3.69505C13.9859 3.70959 13.9972 3.74076 13.9803 3.7657C13.9662 3.78233 13.9436 3.79272 13.9182 3.79272ZM13.1789 3.4914C13.1789 3.4914 13.1563 3.48932 13.145 3.48517L12.7754 3.33347C12.7415 3.31892 12.7302 3.28775 12.7472 3.26281C12.7669 3.23788 12.8092 3.22957 12.8431 3.24203L13.2127 3.39373C13.2466 3.40828 13.2579 3.43945 13.241 3.46438C13.2269 3.48101 13.2043 3.4914 13.1789 3.4914ZM2.27561 3.24203C2.27561 3.24203 2.25022 3.23995 2.23893 3.23372C2.11477 3.17346 1.99908 3.10488 1.90032 3.02799C1.8721 3.00721 1.87492 2.97396 1.90032 2.95526C1.92854 2.93656 1.97368 2.93656 1.99908 2.95526C2.0922 3.02591 2.1966 3.09034 2.31229 3.14436C2.34615 3.15891 2.35462 3.19216 2.33487 3.21709C2.32076 3.23164 2.29819 3.23995 2.27561 3.23995V3.24203ZM12.4368 3.19008C12.4368 3.19008 12.4142 3.188 12.4029 3.18384L12.0333 3.03215C11.9994 3.0176 11.9881 2.98643 12.005 2.96149C12.0248 2.93656 12.0671 2.92824 12.101 2.94071L12.4706 3.09241C12.5045 3.10696 12.5158 3.13813 12.4988 3.16307C12.4847 3.17969 12.4622 3.19008 12.4368 3.19008ZM11.6975 2.88876C11.6975 2.88876 11.6749 2.88668 11.6636 2.88253L11.294 2.73083C11.2601 2.71628 11.2488 2.68511 11.2657 2.66018C11.2855 2.63524 11.3278 2.62693 11.3617 2.6394L11.7313 2.79109C11.7652 2.80564 11.7765 2.83681 11.7595 2.86175C11.7454 2.87837 11.7229 2.88876 11.6975 2.88876ZM1.69715 2.79733C1.67176 2.79733 1.64918 2.78902 1.63507 2.77239C1.56453 2.68303 1.50527 2.58329 1.46012 2.47731C1.44884 2.45029 1.46859 2.4212 1.50527 2.41081C1.54195 2.4025 1.58146 2.41704 1.59557 2.44406C1.63789 2.54173 1.69433 2.63524 1.75923 2.71836C1.77898 2.7433 1.7677 2.77447 1.73384 2.78902C1.72255 2.79317 1.71126 2.79525 1.69997 2.79525L1.69715 2.79733ZM10.9582 2.58537C10.9582 2.58537 10.9356 2.58329 10.9243 2.57913L10.5546 2.42743C10.5208 2.41289 10.5095 2.38172 10.5264 2.35678C10.5462 2.33184 10.5885 2.32353 10.6224 2.336L10.992 2.4877C11.0259 2.50224 11.0372 2.53341 11.0202 2.55835C11.0061 2.57498 10.9836 2.58537 10.9582 2.58537ZM10.2189 2.28405C10.2189 2.28405 10.1963 2.28197 10.185 2.27782L9.81534 2.12612C9.78148 2.11157 9.7702 2.0804 9.78713 2.05546C9.80689 2.03053 9.84921 2.02221 9.88307 2.03468L10.2527 2.18638C10.2866 2.20093 10.2979 2.2321 10.2809 2.25703C10.2668 2.27366 10.2443 2.28405 10.2189 2.28405ZM1.43473 2.20924C1.40086 2.20924 1.36983 2.19054 1.36418 2.1656C1.34443 2.06585 1.33314 1.95779 1.33032 1.84766C1.33032 1.81856 1.36136 1.7957 1.40087 1.7957C1.44037 1.7957 1.47141 1.81856 1.47141 1.84766C1.47141 1.95364 1.48552 2.05546 1.50245 2.15105C1.50809 2.18015 1.4827 2.20508 1.4432 2.20924C1.44037 2.20924 1.43755 2.20924 1.43191 2.20924H1.43473ZM9.47956 1.98273C9.47956 1.98273 9.45698 1.98065 9.44569 1.97649L9.07605 1.8248C9.04218 1.81025 9.0309 1.77908 9.04783 1.75414C9.06758 1.72921 9.1099 1.72089 9.14376 1.73336L9.51342 1.88506C9.54728 1.89961 9.55856 1.93078 9.54163 1.95572C9.52752 1.97234 9.50495 1.98273 9.47956 1.98273ZM8.74026 1.68141C8.74026 1.68141 8.71768 1.67933 8.7064 1.67518L8.33675 1.52348C8.30289 1.50893 8.2916 1.47776 8.30853 1.45283C8.32828 1.42789 8.3706 1.41958 8.40447 1.43205L8.77412 1.58374C8.80798 1.59829 8.81927 1.62946 8.80233 1.6544C8.78823 1.67102 8.76565 1.68141 8.74026 1.68141ZM1.44037 1.59206C1.44037 1.59206 1.42626 1.59206 1.42062 1.59206C1.38394 1.58374 1.36136 1.55465 1.37265 1.52764C1.41498 1.42373 1.48834 1.32606 1.58992 1.23671C1.61532 1.21593 1.66047 1.21177 1.68869 1.23047C1.7169 1.24918 1.72255 1.28243 1.69715 1.30321C1.60686 1.38009 1.54478 1.46322 1.50809 1.55465C1.49963 1.57751 1.47141 1.59206 1.44037 1.59206ZM7.99814 1.38009C7.99814 1.38009 7.97556 1.37802 7.96427 1.37386L7.59462 1.22216C7.56076 1.20762 7.54948 1.17644 7.56641 1.15151C7.58616 1.12657 7.62849 1.11826 7.66235 1.13073L8.032 1.28242C8.06586 1.29697 8.07715 1.32814 8.06022 1.35308C8.04611 1.3697 8.02353 1.38009 7.99814 1.38009ZM1.96522 1.12034C1.94264 1.12034 1.92007 1.11203 1.90596 1.0954C1.88621 1.07046 1.89467 1.03929 1.92853 1.02474C1.95111 1.01435 1.9765 1.00397 1.99908 0.993575C2.09784 0.952014 2.20225 0.912532 2.30947 0.875127C2.34333 0.862659 2.38566 0.875126 2.40259 0.900063C2.41952 0.925 2.40259 0.956171 2.36873 0.968639C2.26433 1.00397 2.16556 1.04137 2.06962 1.08293C2.04705 1.09332 2.02448 1.10164 2.0019 1.11203C1.99061 1.11826 1.9765 1.12034 1.96522 1.12034ZM7.25883 1.0767C7.25883 1.0767 7.23626 1.07462 7.22497 1.07046C7.10646 1.02267 6.9823 0.976951 6.8525 0.93539C6.81582 0.924999 6.79889 0.893828 6.81582 0.866813C6.82993 0.839799 6.87226 0.827329 6.90894 0.839798C7.04438 0.881359 7.17418 0.929157 7.29552 0.97903C7.32938 0.993577 7.34067 1.02475 7.32374 1.04968C7.30963 1.06631 7.28705 1.0767 7.26166 1.0767H7.25883ZM2.73274 0.858503C2.70452 0.858503 2.6763 0.846035 2.66501 0.823176C2.65373 0.796161 2.67066 0.767067 2.70734 0.756677C2.83714 0.723428 2.97541 0.692256 3.11932 0.665242C3.156 0.65693 3.1955 0.675634 3.20397 0.702648C3.21243 0.729663 3.18986 0.758753 3.15318 0.764988C3.01491 0.789924 2.88229 0.821097 2.75249 0.854346C2.74403 0.854346 2.73838 0.856423 2.72992 0.856423L2.73274 0.858503ZM6.48285 0.833564C6.48285 0.833564 6.46874 0.833565 6.46028 0.831487C6.33048 0.800316 6.19503 0.773301 6.05677 0.750443C6.02008 0.744209 5.99469 0.715115 6.00315 0.688101C6.01162 0.661086 6.0483 0.642383 6.08781 0.648617C6.22889 0.673554 6.36716 0.70057 6.5026 0.731741C6.53929 0.740053 6.55904 0.769146 6.54775 0.79616C6.53929 0.819019 6.51107 0.831487 6.48003 0.831487L6.48285 0.833564ZM3.55104 0.704725C3.51718 0.704725 3.48897 0.686021 3.4805 0.661085C3.47486 0.631992 3.50026 0.604979 3.53694 0.600823C3.6752 0.58212 3.81911 0.567572 3.9602 0.557182C3.99971 0.557182 4.03357 0.575885 4.03921 0.602899C4.04203 0.631992 4.01381 0.65693 3.97713 0.659008C3.83604 0.669398 3.69778 0.683946 3.56233 0.702648C3.55951 0.702648 3.55387 0.702648 3.55104 0.702648V0.704725ZM5.6589 0.692258C5.6589 0.692258 5.65043 0.692258 5.64761 0.692258C5.51217 0.675633 5.3739 0.663163 5.23281 0.654851C5.19331 0.652773 5.16509 0.627838 5.16791 0.598746C5.17074 0.569653 5.20459 0.54887 5.2441 0.550948C5.38801 0.55926 5.53192 0.573808 5.67019 0.588355C5.70969 0.592511 5.73508 0.619524 5.72944 0.648617C5.7238 0.673554 5.69276 0.692258 5.6589 0.692258ZM4.39193 0.640306C4.35525 0.640306 4.32421 0.617446 4.32139 0.590432C4.32139 0.561339 4.3496 0.538481 4.38911 0.536403C4.53019 0.532247 4.67411 0.532245 4.81801 0.534323C4.85752 0.534323 4.88856 0.559262 4.88574 0.588355C4.88574 0.617447 4.8547 0.638226 4.81519 0.638226C4.67693 0.636148 4.53584 0.638228 4.39757 0.640306H4.39193Z" fill="#FF63CE"/>
</g>
</g>
<path d="M2.0301 2.73905C1.30773 2.42942 0.712341 1.86835 0.650262 1.46729V17.379C0.58254 17.8528 1.17793 18.5011 2.0301 18.8648V18.8752L21.3874 26.9006C22.358 27.3141 23.5742 26.7988 23.5742 25.9738V13.1023C23.5742 12.1277 22.866 11.2279 21.7175 10.7417L2.0301 2.73905Z" fill="#FF63CE"/>
<path style="mix-blend-mode:color-dodge" d="M1.79868 5.71069C1.79868 5.71069 0.255182 7.83239 1.68017 8.50776L7.49863 15.6459L26.475 23.503C27.4456 23.9165 28.6618 23.4012 28.6618 22.5762V16.4023L1.8015 5.71277L1.79868 5.71069Z" fill="url(#paint5_radial_1_4856)"/>
<path d="M1.79873 5.71069C1.79873 5.71069 0.991704 6.8183 1.082 7.689C1.15537 6.88064 1.79873 5.89356 1.79873 5.89356L28.659 16.5831V16.4002L1.79873 5.71069Z" fill="#FF63CE"/>
<path style="mix-blend-mode:color-dodge" d="M1.79868 8.64502C1.79868 8.64502 0.255182 10.7667 1.68017 11.4421L7.49863 16.6809L26.475 24.538C27.4456 24.9515 28.6618 24.4362 28.6618 23.6112V19.3366L1.8015 8.6471L1.79868 8.64502Z" fill="url(#paint6_radial_1_4856)"/>
<path d="M23.0663 7.67659L6.75937 0.947847C5.66735 0.482362 3.8981 0.480284 2.81173 0.941613C1.76203 1.3884 1.74228 2.10325 2.7299 2.57081L6.75937 11.8389L21.7881 18.1209L23.0635 7.67659H23.0663Z" fill="url(#paint7_linear_1_4856)"/>
<path d="M13.5767 3.78855L6.75937 0.947847C5.66735 0.482362 3.8981 0.480284 2.81173 0.941613C1.76203 1.38839 1.74228 2.10325 2.7299 2.57081L6.75937 11.8389L13.5767 14.7586V3.78855Z" fill="url(#paint8_linear_1_4856)"/>
<path d="M23.4049 8.23602L6.9569 1.36596C6.07087 0.987756 4.63741 0.987758 3.7542 1.36181C2.90203 1.72339 2.8851 2.30317 3.68648 2.68345L6.9569 10.0335L23.357 16.8288L23.4049 8.23602Z" fill="url(#paint9_linear_1_4856)"/>
<path d="M14.2399 4.4416L6.9569 1.36816C6.07087 0.989955 4.63741 0.989954 3.7542 1.364C2.90203 1.72559 2.8851 2.30536 3.68648 2.68565L6.9569 10.0357L14.237 13.1736V4.44368L14.2399 4.4416Z" fill="url(#paint10_linear_1_4856)"/>
<path d="M24.909 9.27443L7.15727 1.77472C6.291 1.40691 4.89422 1.40483 4.03359 1.77057C3.20117 2.12384 3.18706 2.68907 3.96869 3.05896L7.16009 10.2303L24.8638 17.6573L24.909 9.27235V9.27443Z" fill="url(#paint11_linear_1_4856)"/>
<path d="M14.2625 4.77336L7.15727 1.77472C6.291 1.40691 4.89422 1.40483 4.03359 1.77057C3.20117 2.12384 3.18706 2.68907 3.96869 3.05896L7.16009 10.2303L14.2653 13.2913V4.77336H14.2625Z" fill="url(#paint12_linear_1_4856)"/>
<path d="M28.6674 11.8681L6.08487 2.44201C5.40765 2.15316 4.30999 2.15316 3.63841 2.43786C2.98658 2.71424 2.97529 3.15894 3.58762 3.44779L6.08769 6.96386L28.6702 16.4377V11.866L28.6674 11.8681Z" fill="url(#paint13_linear_1_4856)"/>
<path d="M6.08489 2.44201C5.40767 2.15316 4.31001 2.15316 3.63843 2.43786C3.23774 2.60826 3.07972 2.841 3.16155 3.06335C3.20952 2.91166 3.36472 2.76411 3.63843 2.64566C4.31283 2.35889 5.40767 2.36097 6.08489 2.64982L28.6674 12.0759V11.8681L6.08489 2.44201Z" fill="#FF63CE"/>
<path d="M27.5727 16.0054L12.9983 9.85225V6.84946C12.9983 6.45671 13.5768 6.20942 14.0395 6.40684L26.5286 11.7163C27.1748 11.9906 27.5727 12.4976 27.5727 13.0462V16.0054Z" fill="url(#paint14_linear_1_4856)"/>
<path style="mix-blend-mode:color-dodge" d="M26.5286 11.7166L14.0395 6.4072C13.7065 6.26589 13.3143 6.35525 13.1196 6.56305C13.3284 6.45499 13.6106 6.43006 13.8617 6.53604L26.3508 11.8455C26.997 12.1198 27.3949 12.6268 27.3949 13.1754V15.9289L27.5698 16.0037V13.0445C27.5698 12.4959 27.172 11.9889 26.5258 11.7146L26.5286 11.7166Z" fill="url(#paint15_radial_1_4856)"/>
<g style="mix-blend-mode:multiply">
<path d="M25.984 13.9608L23.0014 12.6932C22.6036 12.5228 22.2791 12.0677 22.2791 11.6749C22.2791 11.2822 22.6036 11.1034 23.0014 11.2718L25.984 12.5394C26.3819 12.7098 26.7064 13.1649 26.7064 13.5576C26.7064 13.9504 26.3819 14.1291 25.984 13.9608Z" fill="#F7AA90"/>
</g>
<path d="M26.7968 18.6548L12.2224 12.5017V9.49888C12.2224 9.10612 12.8009 8.85883 13.2636 9.05625L25.7527 14.3657C26.3989 14.64 26.7968 15.147 26.7968 15.6956V18.6548Z" fill="url(#paint16_linear_1_4856)"/>
<path style="mix-blend-mode:color-dodge" d="M25.7527 14.3658L13.2636 9.05637C12.9307 8.91506 12.5385 9.00442 12.3438 9.21222C12.5526 9.10416 12.8347 9.07923 13.0859 9.18521L25.575 14.4946C26.2212 14.7689 26.619 15.276 26.619 15.8246V18.578L26.794 18.6528V15.6937C26.794 15.1451 26.3961 14.638 25.7499 14.3637L25.7527 14.3658Z" fill="url(#paint17_radial_1_4856)"/>
<g style="mix-blend-mode:multiply">
<path d="M25.2081 16.6102L22.2255 15.3426C21.8277 15.1722 21.5032 14.7171 21.5032 14.3243C21.5032 13.9316 21.8277 13.7529 22.2255 13.9212L25.2081 15.1888C25.606 15.3592 25.9305 15.8143 25.9305 16.207C25.9305 16.5998 25.606 16.7785 25.2081 16.6102Z" fill="#819EC7"/>
</g>
<path d="M22.3186 17.5142V11.1097L3.6442 3.47905C3.33381 3.34605 3.17297 3.17565 3.14475 3.00317V9.24773C3.11654 9.45138 3.27737 9.65919 3.6442 9.81504V9.8192L22.3186 17.5142Z" fill="url(#paint18_linear_1_4856)"/>
<path d="M17.1265 16.9322V8.2064L3.76268 2.72241C3.35635 2.54994 3.14471 2.3255 3.11085 2.10107V10.6169C3.07135 10.8829 3.28298 11.1552 3.76268 11.3588V11.365L17.1265 16.9322Z" fill="url(#paint19_linear_1_4856)"/>
<path d="M16.661 19.212V8.24818L2.82025 2.62081C2.31798 2.40677 2.05838 2.13246 2.01605 1.854V12.5602C1.96808 12.8885 2.2305 13.223 2.82025 13.4745V13.4828L16.661 19.2141V19.212Z" fill="url(#paint20_linear_1_4856)"/>
<path style="mix-blend-mode:multiply" d="M22.3581 10.7148L2.67073 2.71222C1.94836 2.40259 1.57024 2.00775 1.51099 1.60669V3.22134C1.5646 3.25043 1.61821 3.27952 1.67747 3.30862L7.49594 16.9365L24.2148 23.8377V13.0776C24.2148 12.1029 23.5066 11.2032 22.3581 10.7169V10.7148Z" fill="url(#paint21_radial_1_4856)"/>
<path d="M2.0301 2.73905C1.30773 2.42942 0.712341 1.86835 0.650262 1.46729V17.379C0.58254 17.8528 1.17793 18.5011 2.0301 18.8648V18.8752L21.3874 26.9006C22.358 27.3141 23.5742 26.7988 23.5742 25.9738V13.1023C23.5742 12.1277 22.866 11.2279 21.7175 10.7417L2.0301 2.73905Z" fill="url(#paint22_linear_1_4856)"/>
<path style="mix-blend-mode:color-dodge" d="M2.0301 2.73905C1.30773 2.42942 0.712341 1.86835 0.650262 1.46729V17.379C0.58254 17.8528 1.17793 18.5011 2.0301 18.8648V18.8752L21.3874 26.9006C22.358 27.3141 23.5742 26.7988 23.5742 25.9738V13.1023C23.5742 12.1277 22.866 11.2279 21.7175 10.7417L2.0301 2.73905Z" fill="url(#paint23_radial_1_4856)"/>
<path d="M1.79029 2.91754C1.06792 2.60791 0.689809 2.21308 0.630552 1.81201V17.7237C0.56283 18.1975 0.938124 18.6796 1.79029 19.0433V19.0536L21.1476 27.0791C22.1182 27.4926 23.3344 26.9773 23.3344 26.1523V13.2808C23.3344 12.3062 22.6262 11.4064 21.4777 10.9201L1.79029 2.91754Z" fill="url(#paint24_linear_1_4856)"/>
<g style="mix-blend-mode:multiply" opacity="0.3">
<g style="mix-blend-mode:multiply" opacity="0.3">
<path d="M21.8755 27.0689C21.6582 27.0689 21.4494 27.0273 21.2547 26.9442L2.06958 18.9894L1.88617 18.9021C1.37543 18.6839 1.03118 18.4117 0.898555 18.1145C0.861872 18.0335 0.921129 17.9441 1.03118 17.9171C1.14405 17.8901 1.26256 17.9338 1.29924 18.0148C1.40083 18.2371 1.68018 18.4533 2.10909 18.6361L2.28968 18.7213L21.4635 26.672C21.788 26.8112 22.1887 26.7676 22.4511 26.5847C22.612 26.4725 22.6995 26.3166 22.6995 26.1504V13.2789C22.6995 12.4726 22.1125 11.7266 21.1672 11.3276L1.47419 3.32294C1.2682 3.23566 1.08197 3.14007 0.915485 3.03617C0.825188 2.98006 0.813902 2.88239 0.89009 2.81589C0.966277 2.7494 1.0989 2.74109 1.1892 2.79719C1.33593 2.88863 1.50241 2.97382 1.683 3.05071L21.3732 11.0554C22.4511 11.5105 23.1199 12.3625 23.1199 13.2789V26.1504C23.1199 26.4039 22.9844 26.6367 22.7418 26.8091C22.5076 26.9733 22.1915 27.0689 21.8727 27.0689H21.8755Z" fill="#B086CC"/>
</g>
</g>
<g style="mix-blend-mode:screen">
<g style="mix-blend-mode:screen">
<path d="M21.8303 26.9653H21.8275C21.6779 26.9611 21.5312 26.932 21.3929 26.8821C21.3591 26.8697 21.345 26.8385 21.3619 26.8136C21.3788 26.7886 21.4212 26.7782 21.455 26.7907C21.5764 26.8343 21.7033 26.8593 21.8331 26.8634C21.8726 26.8634 21.9037 26.8884 21.9009 26.9175C21.9009 26.9445 21.867 26.9673 21.8303 26.9673V26.9653ZM22.2451 26.9154C22.2169 26.9154 22.1915 26.9029 22.1802 26.8821C22.1661 26.8551 22.183 26.826 22.2197 26.8156C22.3411 26.7803 22.4539 26.7284 22.547 26.6619C22.5753 26.6411 22.6204 26.6411 22.6486 26.6619C22.6769 26.6826 22.6769 26.7138 22.6486 26.7346C22.6486 26.7346 22.6402 26.7408 22.6373 26.7408C22.5358 26.8136 22.4088 26.8717 22.2705 26.9112C22.2621 26.9133 22.2536 26.9154 22.2451 26.9154ZM21.0543 26.7367C21.0543 26.7367 21.0318 26.7346 21.0205 26.7304L20.6508 26.5767C20.617 26.5621 20.6057 26.5309 20.6254 26.506C20.6452 26.4811 20.6875 26.4728 20.7214 26.4873L21.091 26.6411C21.1249 26.6556 21.1362 26.6868 21.1164 26.7117C21.1023 26.7284 21.0797 26.7388 21.0543 26.7388V26.7367ZM22.8349 26.4935C22.8349 26.4935 22.8179 26.4935 22.8095 26.4894C22.7728 26.479 22.7559 26.4478 22.77 26.4208C22.8151 26.3356 22.8405 26.2462 22.8405 26.1527V26.1361C22.8405 26.107 22.8716 26.0842 22.9111 26.0842C22.9506 26.0842 22.9816 26.107 22.9816 26.1361V26.1527C22.9816 26.2608 22.9534 26.3626 22.9026 26.4603C22.8913 26.4811 22.8659 26.4935 22.8377 26.4935H22.8349ZM20.3179 26.4312C20.3179 26.4312 20.2953 26.4291 20.284 26.425L19.9144 26.2712C19.8805 26.2566 19.8692 26.2255 19.8861 26.2005C19.9059 26.1756 19.9482 26.1673 19.9821 26.1798L20.3517 26.3335C20.3856 26.3481 20.3969 26.3792 20.3799 26.4042C20.3658 26.4208 20.3433 26.4312 20.3179 26.4312ZM19.5814 26.1257C19.5814 26.1257 19.5588 26.1236 19.5475 26.1195L19.1779 25.9657C19.144 25.9512 19.1327 25.92 19.1525 25.8951C19.1722 25.8701 19.2146 25.8618 19.2484 25.8764L19.6181 26.0301C19.6519 26.0447 19.6632 26.0758 19.6435 26.1008C19.6294 26.1174 19.6068 26.1278 19.5814 26.1278V26.1257ZM22.9111 25.8764C22.8716 25.8764 22.8405 25.8535 22.8405 25.8244V25.5127C22.8405 25.4836 22.8716 25.4607 22.9111 25.4607C22.9506 25.4607 22.9816 25.4836 22.9816 25.5127V25.8244C22.9816 25.8535 22.9506 25.8764 22.9111 25.8764ZM18.8421 25.8182C18.8421 25.8182 18.8195 25.8161 18.8082 25.8119L18.4386 25.6582C18.4047 25.6436 18.3934 25.6124 18.4132 25.5875C18.4329 25.5626 18.4753 25.5543 18.5091 25.5688L18.8788 25.7226C18.9126 25.7371 18.9239 25.7683 18.9042 25.7932C18.8901 25.8099 18.8675 25.8202 18.8421 25.8202V25.8182ZM18.1056 25.5127C18.1056 25.5127 18.083 25.5106 18.0717 25.5065L17.7021 25.3527C17.6682 25.3381 17.6569 25.307 17.6767 25.282C17.6964 25.2571 17.7388 25.2488 17.7726 25.2633L18.1423 25.4171C18.1761 25.4317 18.1874 25.4628 18.1677 25.4878C18.1536 25.5044 18.131 25.5148 18.1056 25.5148V25.5127ZM22.9111 25.2529C22.8716 25.2529 22.8405 25.2301 22.8405 25.201V24.8893C22.8405 24.8602 22.8716 24.8373 22.9111 24.8373C22.9506 24.8373 22.9816 24.8602 22.9816 24.8893V25.201C22.9816 25.2301 22.9506 25.2529 22.9111 25.2529ZM17.3663 25.2072C17.3663 25.2072 17.3437 25.2051 17.3324 25.201L16.9628 25.0472C16.9289 25.0327 16.9176 25.0015 16.9374 24.9766C16.9572 24.9516 16.9995 24.9433 17.0333 24.9579L17.403 25.1116C17.4368 25.1262 17.4481 25.1574 17.4284 25.1823C17.4143 25.1989 17.3917 25.2093 17.3663 25.2093V25.2072ZM16.6298 24.9017C16.6298 24.9017 16.6072 24.8997 16.596 24.8955L16.2263 24.7417C16.1924 24.7272 16.1812 24.696 16.2009 24.6711C16.2207 24.6461 16.263 24.6378 16.2969 24.6524L16.6665 24.8062C16.7004 24.8207 16.7116 24.8519 16.6919 24.8768C16.6778 24.8934 16.6552 24.9038 16.6298 24.9038V24.9017ZM22.9111 24.6295C22.8716 24.6295 22.8405 24.6067 22.8405 24.5776V24.2659C22.8405 24.2368 22.8716 24.2139 22.9111 24.2139C22.9506 24.2139 22.9816 24.2368 22.9816 24.2659V24.5776C22.9816 24.6067 22.9506 24.6295 22.9111 24.6295ZM15.8933 24.5963C15.8933 24.5963 15.8708 24.5942 15.8595 24.59L15.4898 24.4363C15.456 24.4217 15.4447 24.3905 15.4644 24.3656C15.4842 24.3407 15.5265 24.3324 15.5604 24.3469L15.93 24.5007C15.9639 24.5152 15.9752 24.5464 15.9554 24.5713C15.9413 24.588 15.9187 24.5984 15.8933 24.5984V24.5963ZM15.1569 24.2908C15.1569 24.2908 15.1343 24.2887 15.123 24.2846L14.7534 24.1308C14.7195 24.1162 14.7082 24.0851 14.728 24.0601C14.7477 24.0352 14.79 24.0269 14.8239 24.0414L15.1935 24.1952C15.2274 24.2098 15.2387 24.2409 15.2189 24.2659C15.2048 24.2825 15.1823 24.2929 15.1569 24.2929V24.2908ZM22.9139 24.0082C22.8744 24.0082 22.8433 23.9853 22.8433 23.9562V23.6445C22.8433 23.6154 22.8744 23.5926 22.9139 23.5926C22.9534 23.5926 22.9844 23.6154 22.9844 23.6445V23.9562C22.9844 23.9853 22.9534 24.0082 22.9139 24.0082ZM14.4204 23.9853C14.4204 23.9853 14.3978 23.9832 14.3865 23.9791L14.0169 23.8253C13.983 23.8108 13.9717 23.7796 13.9915 23.7547C14.0112 23.7297 14.0536 23.7214 14.0874 23.736L14.4571 23.8897C14.4909 23.9043 14.5022 23.9355 14.4825 23.9604C14.4684 23.977 14.4458 23.9874 14.4204 23.9874V23.9853ZM13.6839 23.6799C13.6839 23.6799 13.6613 23.6778 13.65 23.6736L13.2804 23.5198C13.2465 23.5053 13.2352 23.4741 13.255 23.4492C13.2748 23.4243 13.3171 23.4159 13.3509 23.4305L13.7206 23.5843C13.7544 23.5988 13.7657 23.63 13.746 23.6549C13.7319 23.6715 13.7093 23.6819 13.6839 23.6819V23.6799ZM22.9167 23.3848C22.8772 23.3848 22.8462 23.3619 22.8462 23.3328V23.0211C22.8462 22.992 22.8772 22.9692 22.9167 22.9692C22.9562 22.9692 22.9872 22.992 22.9872 23.0211V23.3328C22.9872 23.3619 22.9562 23.3848 22.9167 23.3848ZM12.9474 23.3744C12.9474 23.3744 12.9249 23.3723 12.9136 23.3681L12.5439 23.2144C12.5101 23.1998 12.4988 23.1686 12.5157 23.1437C12.5355 23.1188 12.5778 23.1105 12.6116 23.1229L12.9813 23.2767C13.0151 23.2913 13.0264 23.3224 13.0095 23.3474C12.9954 23.364 12.9728 23.3744 12.9474 23.3744ZM12.211 23.0689C12.211 23.0689 12.1884 23.0668 12.1771 23.0627L11.8074 22.9089C11.7736 22.8943 11.7623 22.8632 11.782 22.8382C11.8018 22.8133 11.8441 22.805 11.878 22.8195L12.2476 22.9733C12.2815 22.9879 12.2928 23.019 12.273 23.044C12.2589 23.0606 12.2363 23.071 12.211 23.071V23.0689ZM11.4745 22.7634C11.4745 22.7634 11.4519 22.7613 11.4406 22.7572L11.071 22.6034C11.0371 22.5889 11.0258 22.5577 11.0456 22.5328C11.0653 22.5078 11.1076 22.4995 11.1415 22.5141L11.5112 22.6678C11.545 22.6824 11.5563 22.7136 11.5365 22.7385C11.5224 22.7551 11.4999 22.7655 11.4745 22.7655V22.7634ZM22.9195 22.7634C22.88 22.7634 22.849 22.7406 22.849 22.7115V22.3998C22.849 22.3707 22.88 22.3478 22.9195 22.3478C22.959 22.3478 22.9901 22.3707 22.9901 22.3998V22.7115C22.9901 22.7406 22.959 22.7634 22.9195 22.7634ZM10.738 22.458C10.738 22.458 10.7154 22.4559 10.7041 22.4517L10.3345 22.2979C10.3006 22.2834 10.2893 22.2522 10.3091 22.2273C10.3288 22.2024 10.3712 22.194 10.405 22.2086L10.7747 22.3624C10.8085 22.3769 10.8198 22.4081 10.8001 22.433C10.786 22.4496 10.7634 22.46 10.738 22.46V22.458ZM10.0015 22.1525C10.0015 22.1525 9.97894 22.1504 9.96765 22.1462L9.598 21.9925C9.56414 21.9779 9.55286 21.9468 9.57261 21.9218C9.59236 21.8969 9.63469 21.8886 9.66855 21.9031L10.0382 22.0569C10.0721 22.0714 10.0833 22.1026 10.0636 22.1275C10.0495 22.1442 10.0269 22.1546 10.0015 22.1546V22.1525ZM22.9223 22.14C22.8828 22.14 22.8518 22.1172 22.8518 22.0881V21.7764C22.8518 21.7473 22.8828 21.7244 22.9223 21.7244C22.9618 21.7244 22.9929 21.7473 22.9929 21.7764V22.0881C22.9929 22.1172 22.9618 22.14 22.9223 22.14ZM9.26504 21.847C9.26504 21.847 9.24247 21.8449 9.23118 21.8408L8.86152 21.687C8.82766 21.6724 8.81637 21.6413 8.83613 21.6163C8.85588 21.5914 8.8982 21.5831 8.93206 21.5976L9.30172 21.7514C9.33558 21.766 9.34687 21.7971 9.32712 21.8221C9.31301 21.8387 9.29043 21.8491 9.26504 21.8491V21.847ZM8.52855 21.5415C8.52855 21.5415 8.50598 21.5395 8.4947 21.5353L8.12505 21.3815C8.09118 21.367 8.0799 21.3358 8.09683 21.3109C8.11658 21.2859 8.15891 21.2776 8.19277 21.2901L8.56241 21.4439C8.59628 21.4584 8.60756 21.4896 8.59063 21.5145C8.57653 21.5311 8.55395 21.5415 8.52855 21.5415ZM22.9252 21.5166C22.8857 21.5166 22.8546 21.4937 22.8546 21.4646V21.1529C22.8546 21.1238 22.8857 21.101 22.9252 21.101C22.9647 21.101 22.9957 21.1238 22.9957 21.1529V21.4646C22.9957 21.4937 22.9647 21.5166 22.9252 21.5166ZM7.79208 21.2361C7.79208 21.2361 7.7695 21.234 7.75822 21.2298L7.38857 21.076C7.35471 21.0615 7.34342 21.0303 7.36035 21.0054C7.3801 20.9805 7.42243 20.9721 7.45629 20.9846L7.82594 21.1384C7.8598 21.1529 7.87109 21.1841 7.85416 21.209C7.84005 21.2257 7.81748 21.2361 7.79208 21.2361ZM7.0556 20.9306C7.0556 20.9306 7.03302 20.9285 7.02174 20.9243L6.65209 20.7706C6.61823 20.756 6.60694 20.7249 6.62669 20.6999C6.64645 20.675 6.68877 20.6667 6.72263 20.6812L7.09228 20.835C7.12614 20.8495 7.13743 20.8807 7.11768 20.9056C7.10357 20.9223 7.081 20.9327 7.0556 20.9327V20.9306ZM22.9252 20.8953C22.8857 20.8953 22.8546 20.8724 22.8546 20.8433V20.5316C22.8546 20.5025 22.8857 20.4796 22.9252 20.4796C22.9647 20.4796 22.9957 20.5025 22.9957 20.5316V20.8433C22.9957 20.8724 22.9647 20.8953 22.9252 20.8953ZM6.3163 20.6251C6.3163 20.6251 6.29373 20.623 6.28244 20.6189L5.91279 20.4651C5.87893 20.4506 5.86764 20.4194 5.88739 20.3944C5.90715 20.3695 5.94947 20.3612 5.98333 20.3757L6.35298 20.5295C6.38684 20.5441 6.39813 20.5752 6.37838 20.6002C6.36427 20.6168 6.34169 20.6272 6.3163 20.6272V20.6251ZM5.57982 20.3196C5.57982 20.3196 5.55725 20.3176 5.54596 20.3134L5.17631 20.1596C5.14245 20.1451 5.13116 20.1139 5.15091 20.089C5.17067 20.064 5.21299 20.0557 5.24685 20.0703L5.6165 20.224C5.65036 20.2386 5.66165 20.2698 5.6419 20.2947C5.62779 20.3113 5.60521 20.3217 5.57982 20.3217V20.3196ZM22.9252 20.2718C22.8857 20.2718 22.8546 20.249 22.8546 20.2199V19.9082C22.8546 19.8791 22.8857 19.8562 22.9252 19.8562C22.9647 19.8562 22.9957 19.8791 22.9957 19.9082V20.2199C22.9957 20.249 22.9647 20.2718 22.9252 20.2718ZM4.84052 20.0142C4.84052 20.0142 4.81795 20.0121 4.80666 20.0079L4.43701 19.8541C4.40315 19.8396 4.39186 19.8084 4.41161 19.7835C4.43136 19.7586 4.47369 19.7502 4.50755 19.7648L4.8772 19.9186C4.91107 19.9331 4.92235 19.9643 4.9026 19.9892C4.88849 20.0058 4.86592 20.0162 4.84052 20.0162V20.0142ZM4.10404 19.7087C4.10404 19.7087 4.08147 19.7066 4.07018 19.7025L3.70053 19.5487C3.66667 19.5341 3.65538 19.503 3.67513 19.478C3.69488 19.4531 3.73721 19.4448 3.77108 19.4593L4.14073 19.6131C4.17459 19.6276 4.18587 19.6588 4.16612 19.6838C4.15201 19.7004 4.12944 19.7108 4.10404 19.7108V19.7087ZM22.9252 19.6484C22.8857 19.6484 22.8546 19.6256 22.8546 19.5965V19.2848C22.8546 19.2557 22.8857 19.2328 22.9252 19.2328C22.9647 19.2328 22.9957 19.2557 22.9957 19.2848V19.5965C22.9957 19.6256 22.9647 19.6484 22.9252 19.6484ZM3.36756 19.4011C3.36756 19.4011 3.34499 19.3991 3.3337 19.3949L2.96405 19.2411C2.93019 19.2266 2.9189 19.1954 2.93583 19.1705C2.95559 19.1455 2.99791 19.1372 3.03177 19.1497L3.40142 19.3035C3.43528 19.318 3.44657 19.3492 3.42964 19.3741C3.41553 19.3907 3.39296 19.4011 3.36756 19.4011ZM2.63108 19.0957C2.63108 19.0957 2.60851 19.0936 2.59722 19.0894L2.22757 18.9356C2.19371 18.9211 2.18242 18.8899 2.20217 18.865C2.22193 18.8401 2.26426 18.8317 2.29812 18.8463L2.66777 19.0001C2.70163 19.0146 2.71291 19.0458 2.69316 19.0707C2.67905 19.0873 2.65648 19.0977 2.63108 19.0977V19.0957ZM22.928 19.025C22.8885 19.025 22.8574 19.0021 22.8574 18.9731V18.6613C22.8574 18.6323 22.8885 18.6094 22.928 18.6094C22.9675 18.6094 22.9985 18.6323 22.9985 18.6613V18.9731C22.9985 19.0021 22.9675 19.025 22.928 19.025ZM1.90307 18.7798C1.90307 18.7798 1.87768 18.7777 1.86639 18.7715C1.73659 18.7112 1.62089 18.6468 1.51931 18.5803C1.49109 18.5616 1.48827 18.5283 1.51367 18.5076C1.53906 18.4868 1.58421 18.4847 1.61243 18.5034C1.70837 18.5658 1.82124 18.6281 1.94257 18.6842C1.97643 18.6988 1.9849 18.732 1.96515 18.7549C1.95104 18.7715 1.92847 18.7798 1.90589 18.7798H1.90307ZM22.928 18.4016C22.8885 18.4016 22.8574 18.3787 22.8574 18.3496V18.0379C22.8574 18.0088 22.8885 17.986 22.928 17.986C22.9675 17.986 22.9985 18.0088 22.9985 18.0379V18.3496C22.9985 18.3787 22.9675 18.4016 22.928 18.4016ZM1.28228 18.3621C1.25971 18.3621 1.23713 18.3538 1.22302 18.3392C1.14684 18.2582 1.08758 18.1751 1.0509 18.0899C1.03961 18.0629 1.05936 18.0338 1.09605 18.0234C1.13555 18.0151 1.17224 18.0296 1.18634 18.0566C1.22021 18.1314 1.271 18.2063 1.34154 18.279C1.36412 18.3018 1.35565 18.3351 1.32461 18.3517C1.31332 18.3579 1.29921 18.36 1.2851 18.36L1.28228 18.3621ZM22.928 17.7782C22.8885 17.7782 22.8574 17.7553 22.8574 17.7262V17.4145C22.8574 17.3854 22.8885 17.3626 22.928 17.3626C22.9675 17.3626 22.9985 17.3854 22.9985 17.4145V17.7262C22.9985 17.7553 22.9675 17.7782 22.928 17.7782ZM22.928 17.1548C22.8885 17.1548 22.8574 17.1319 22.8574 17.1028V16.7911C22.8574 16.762 22.8885 16.7391 22.928 16.7391C22.9675 16.7391 22.9985 16.762 22.9985 16.7911V17.1028C22.9985 17.1319 22.9675 17.1548 22.928 17.1548ZM22.928 16.5313C22.8885 16.5313 22.8574 16.5085 22.8574 16.4794V16.1677C22.8574 16.1386 22.8885 16.1157 22.928 16.1157C22.9675 16.1157 22.9985 16.1386 22.9985 16.1677V16.4794C22.9985 16.5085 22.9675 16.5313 22.928 16.5313ZM22.928 15.9079C22.8885 15.9079 22.8574 15.8851 22.8574 15.856V15.5443C22.8574 15.5152 22.8885 15.4923 22.928 15.4923C22.9675 15.4923 22.9985 15.5152 22.9985 15.5443V15.856C22.9985 15.8851 22.9675 15.9079 22.928 15.9079ZM22.928 15.2845C22.8885 15.2845 22.8574 15.2616 22.8574 15.2326V14.9208C22.8574 14.8918 22.8885 14.8689 22.928 14.8689C22.9675 14.8689 22.9985 14.8918 22.9985 14.9208V15.2326C22.9985 15.2616 22.9675 15.2845 22.928 15.2845ZM22.928 14.6611C22.8885 14.6611 22.8574 14.6382 22.8574 14.6091V14.2974C22.8574 14.2683 22.8885 14.2455 22.928 14.2455C22.9675 14.2455 22.9985 14.2683 22.9985 14.2974V14.6091C22.9985 14.6382 22.9675 14.6611 22.928 14.6611ZM22.928 14.0377C22.8885 14.0377 22.8574 14.0148 22.8574 13.9857V13.674C22.8574 13.6449 22.8885 13.6221 22.928 13.6221C22.9675 13.6221 22.9985 13.6449 22.9985 13.674V13.9857C22.9985 14.0148 22.9675 14.0377 22.928 14.0377ZM22.928 13.4143C22.8885 13.4143 22.8574 13.3914 22.8574 13.3623V13.2875C22.8574 13.2106 22.8518 13.1337 22.8405 13.0568C22.8377 13.0277 22.8659 13.0028 22.9026 13.0007C22.9393 12.9966 22.976 13.0194 22.9788 13.0464C22.9901 13.1275 22.9957 13.2085 22.9957 13.2875V13.3623C22.9957 13.3914 22.9647 13.4143 22.9252 13.4143H22.928ZM22.8433 12.795C22.8123 12.795 22.7813 12.7784 22.7756 12.7555C22.7446 12.6558 22.7051 12.5581 22.6571 12.4646C22.643 12.4376 22.6627 12.4085 22.6994 12.3981C22.7361 12.3877 22.7756 12.4022 22.7897 12.4293C22.8405 12.529 22.8828 12.6308 22.9139 12.7347C22.9223 12.7617 22.8998 12.7908 22.8603 12.7971C22.8546 12.7971 22.849 12.7971 22.8433 12.7971V12.795ZM22.547 12.2131C22.5217 12.2131 22.4963 12.2027 22.485 12.1861C22.4201 12.0968 22.3467 12.0095 22.2677 11.9264C22.2451 11.9035 22.2536 11.8703 22.2846 11.8536C22.3157 11.837 22.3608 11.8432 22.3834 11.8661C22.4652 11.9513 22.5414 12.0427 22.6091 12.1362C22.6261 12.1612 22.6148 12.1924 22.5809 12.2069C22.5696 12.2111 22.5583 12.2131 22.547 12.2131ZM22.0589 11.7061C22.0391 11.7061 22.0222 11.6999 22.0081 11.6895C21.915 11.6147 21.8134 11.544 21.709 11.4796C21.678 11.4609 21.6751 11.4276 21.7005 11.4069C21.7259 11.384 21.7711 11.3819 21.7993 11.4006C21.9093 11.4692 22.0137 11.5419 22.1125 11.6209C22.1379 11.6417 22.1379 11.6749 22.1097 11.6936C22.0956 11.7019 22.0786 11.7082 22.0617 11.7082L22.0589 11.7061ZM21.4127 11.3071C21.4127 11.3071 21.3873 11.305 21.376 11.2988C21.3365 11.2801 21.297 11.2635 21.2547 11.2448L21.0092 11.145C20.9753 11.1305 20.964 11.0993 20.981 11.0744C21.0007 11.0494 21.0431 11.039 21.0769 11.0536L21.3224 11.1533C21.3647 11.172 21.4071 11.1907 21.4494 11.2094C21.4832 11.224 21.4917 11.2572 21.472 11.2801C21.4578 11.2967 21.4353 11.305 21.4127 11.305V11.3071ZM20.6734 11.0016C20.6734 11.0016 20.6508 11.0016 20.6395 10.9954L20.2699 10.8458C20.236 10.8312 20.2247 10.8001 20.2417 10.7751C20.2614 10.7502 20.3038 10.7398 20.3376 10.7543L20.7073 10.904C20.7411 10.9185 20.7524 10.9497 20.7355 10.9746C20.7214 10.9912 20.6988 11.0016 20.6734 11.0016ZM19.9313 10.7003C19.9313 10.7003 19.9087 10.7003 19.8974 10.6941L19.5278 10.5424C19.4939 10.5278 19.4826 10.4967 19.4996 10.4717C19.5193 10.4468 19.5616 10.4364 19.5955 10.4509L19.9651 10.6026C19.999 10.6172 20.0103 10.6484 19.9934 10.6733C19.9792 10.6899 19.9567 10.7003 19.9313 10.7003ZM19.1892 10.399C19.1892 10.399 19.1666 10.399 19.1553 10.3928L18.7856 10.2431C18.7518 10.2286 18.7405 10.1974 18.7574 10.1725C18.7772 10.1476 18.8195 10.1392 18.8534 10.1517L19.223 10.3013C19.2569 10.3159 19.2682 10.347 19.2512 10.372C19.2371 10.3886 19.2146 10.399 19.1892 10.399ZM18.447 10.0977C18.447 10.0977 18.4245 10.0977 18.4132 10.0914L18.0435 9.94182C18.0097 9.92728 17.9984 9.89611 18.0153 9.87117C18.0351 9.84623 18.0774 9.83584 18.1112 9.85039L18.4809 10C18.5148 10.0146 18.526 10.0457 18.5091 10.0707C18.495 10.0873 18.4724 10.0977 18.447 10.0977ZM17.7049 9.79636C17.7049 9.79636 17.6823 9.79636 17.671 9.79013L17.3014 9.64051C17.2675 9.62596 17.2563 9.59479 17.2732 9.56985C17.2929 9.54492 17.3353 9.5366 17.3691 9.54907L17.7388 9.69869C17.7726 9.71324 17.7839 9.74441 17.767 9.76934C17.7529 9.78597 17.7303 9.79636 17.7049 9.79636ZM16.9628 9.49504C16.9628 9.49504 16.9402 9.49504 16.9289 9.48881L16.5593 9.33919C16.5254 9.32464 16.5141 9.29347 16.5311 9.26854C16.548 9.2436 16.5931 9.23321 16.627 9.24775L16.9967 9.39737C17.0305 9.41192 17.0418 9.44309 17.0249 9.46803C17.0108 9.48465 16.9882 9.49504 16.9628 9.49504ZM16.2207 9.19372C16.2207 9.19372 16.1981 9.19373 16.1868 9.18749L15.8172 9.03579C15.7833 9.02124 15.772 8.99007 15.7889 8.96514C15.8087 8.9402 15.851 8.93189 15.8849 8.94436L16.2545 9.09606C16.2884 9.1106 16.2997 9.14177 16.2827 9.16671C16.2686 9.18333 16.2461 9.19372 16.2207 9.19372ZM15.4785 8.8924C15.4785 8.8924 15.456 8.8924 15.4447 8.88617L15.075 8.73655C15.0412 8.722 15.0299 8.69083 15.0468 8.6659C15.0666 8.64096 15.1089 8.63057 15.1428 8.64512L15.5124 8.79474C15.5463 8.80928 15.5576 8.84046 15.5406 8.86539C15.5265 8.88202 15.5039 8.8924 15.4785 8.8924ZM14.7364 8.59109C14.7364 8.59109 14.7138 8.59109 14.7026 8.58485L14.3329 8.43316C14.2991 8.41861 14.2878 8.38744 14.3047 8.3625C14.3244 8.33757 14.3668 8.32717 14.4006 8.34172L14.7703 8.49342C14.8041 8.50796 14.8154 8.53914 14.7985 8.56407C14.7844 8.5807 14.7618 8.59109 14.7364 8.59109ZM13.9943 8.28977C13.9943 8.28977 13.9717 8.28977 13.9604 8.28354L13.5908 8.13391C13.5569 8.11937 13.5456 8.0882 13.5626 8.06326C13.5823 8.03833 13.6246 8.03001 13.6585 8.04248L14.0282 8.1921C14.062 8.20665 14.0733 8.23782 14.0564 8.26275C14.0423 8.27938 14.0197 8.28977 13.9943 8.28977ZM13.2522 7.98845C13.2522 7.98845 13.2296 7.98845 13.2183 7.98222L12.8487 7.83052C12.8148 7.81597 12.8035 7.7848 12.8205 7.75986C12.8402 7.73493 12.8825 7.72662 12.9164 7.73909L13.286 7.89078C13.3199 7.90533 13.3312 7.9365 13.3143 7.96144C13.3002 7.97806 13.2776 7.98845 13.2522 7.98845ZM12.5101 7.68713C12.5101 7.68713 12.4875 7.68713 12.4762 7.6809L12.1065 7.5292C12.0727 7.51465 12.0614 7.48348 12.0783 7.45855C12.0981 7.43361 12.1404 7.42322 12.1743 7.43777L12.5439 7.58947C12.5778 7.60401 12.5891 7.63518 12.5721 7.66012C12.558 7.67674 12.5355 7.68713 12.5101 7.68713ZM11.7679 7.38581C11.7679 7.38581 11.7454 7.38581 11.7341 7.37958L11.3644 7.22996C11.3306 7.21541 11.3193 7.18424 11.3362 7.15931C11.356 7.13437 11.3983 7.12398 11.4321 7.13853L11.8018 7.28814C11.8357 7.30269 11.8469 7.33386 11.83 7.3588C11.8159 7.37543 11.7933 7.38581 11.7679 7.38581ZM11.0258 7.0845C11.0258 7.0845 11.0032 7.0845 10.992 7.07826L10.6223 6.92864C10.5884 6.9141 10.5772 6.88293 10.5941 6.85799C10.6138 6.83305 10.6562 6.82266 10.69 6.83721L11.0597 6.98683C11.0935 7.00137 11.1048 7.03255 11.0879 7.05748C11.0738 7.07411 11.0512 7.0845 11.0258 7.0845ZM10.2837 6.78318C10.2837 6.78318 10.2611 6.78318 10.2498 6.77694L9.88018 6.62732C9.84632 6.61278 9.83503 6.58161 9.85196 6.55667C9.87171 6.53173 9.91404 6.52134 9.9479 6.53589L10.3175 6.68551C10.3514 6.70006 10.3627 6.73123 10.3458 6.75616C10.3317 6.77279 10.3091 6.78318 10.2837 6.78318ZM9.54156 6.48186C9.54156 6.48186 9.51899 6.48186 9.50771 6.47563L9.13806 6.32393C9.10419 6.30938 9.09291 6.27821 9.10984 6.25327C9.12959 6.22834 9.17191 6.21795 9.20578 6.2325L9.57543 6.38419C9.60929 6.39874 9.62057 6.42991 9.60364 6.45485C9.58954 6.47147 9.56696 6.48186 9.54156 6.48186ZM8.79945 6.18054C8.79945 6.18054 8.77687 6.18054 8.76558 6.17431L8.39593 6.02261C8.36207 6.00806 8.35078 5.97689 8.36771 5.95196C8.38747 5.92702 8.4298 5.91871 8.46366 5.93117L8.83331 6.08287C8.86717 6.09742 8.87845 6.12859 8.86152 6.15353C8.84741 6.17015 8.82485 6.18054 8.79945 6.18054ZM8.05732 5.87922C8.05732 5.87922 8.03475 5.87922 8.02346 5.87299L7.65381 5.72129C7.61995 5.70675 7.60866 5.67558 7.62559 5.65064C7.64535 5.6257 7.68768 5.61531 7.72154 5.62986L8.09119 5.78155C8.12505 5.7961 8.13633 5.82727 8.1194 5.85221C8.10529 5.86883 8.08272 5.87922 8.05732 5.87922ZM7.3152 5.57791C7.3152 5.57791 7.29263 5.57791 7.28134 5.57167L6.91169 5.42205C6.87783 5.4075 6.86654 5.37633 6.88347 5.3514C6.90323 5.32646 6.94555 5.31607 6.97941 5.33062L7.34906 5.48024C7.38292 5.49478 7.39421 5.52596 7.37728 5.55089C7.36317 5.56752 7.3406 5.57791 7.3152 5.57791ZM6.57308 5.27659C6.57308 5.27659 6.55051 5.27659 6.53922 5.27035L6.16957 5.12073C6.13571 5.10619 6.12442 5.07502 6.14135 5.05008C6.1611 5.02514 6.20343 5.01683 6.23729 5.0293L6.60694 5.17892C6.6408 5.19347 6.65209 5.22464 6.63516 5.24957C6.62105 5.2662 6.59847 5.27659 6.57308 5.27659ZM5.83096 4.97527C5.83096 4.97527 5.80838 4.97527 5.7971 4.96904L5.42745 4.81942C5.39358 4.80487 5.3823 4.7737 5.39923 4.74876C5.41898 4.72383 5.4613 4.71343 5.49517 4.72798L5.86482 4.8776C5.89868 4.89215 5.90997 4.92332 5.89303 4.94825C5.87893 4.96488 5.85635 4.97527 5.83096 4.97527ZM5.08884 4.67395C5.08884 4.67395 5.06626 4.67395 5.05497 4.66772L4.68532 4.51602C4.65146 4.50147 4.64018 4.4703 4.65711 4.44537C4.67686 4.42043 4.71918 4.41004 4.75305 4.42458L5.1227 4.57628C5.15656 4.59083 5.16785 4.622 5.15091 4.64694C5.13681 4.66356 5.11423 4.67395 5.08884 4.67395ZM4.34671 4.37263C4.34671 4.37263 4.32414 4.37263 4.31285 4.3664L3.9432 4.2147C3.90934 4.20015 3.89805 4.16898 3.91498 4.14405C3.93474 4.11911 3.97706 4.10872 4.01092 4.12327L4.38057 4.27496C4.41443 4.28951 4.42572 4.32068 4.40879 4.34562C4.39468 4.36224 4.37211 4.37263 4.34671 4.37263ZM3.60459 4.07131C3.60459 4.07131 3.58202 4.07131 3.57073 4.06508L3.20108 3.91338C3.16722 3.89884 3.15593 3.86767 3.17286 3.84273C3.19261 3.81779 3.23494 3.80948 3.2688 3.82195L3.63845 3.97365C3.67231 3.98819 3.6836 4.01937 3.66667 4.0443C3.65256 4.06093 3.62998 4.07131 3.60459 4.07131ZM2.86247 3.77C2.86247 3.77 2.83989 3.77 2.8286 3.76376L2.45896 3.61207C2.42509 3.59752 2.41381 3.56635 2.43074 3.54141C2.45049 3.51647 2.49282 3.50608 2.52668 3.52063L2.89633 3.67233C2.93019 3.68687 2.94148 3.71804 2.92455 3.74298C2.91044 3.75961 2.88786 3.77 2.86247 3.77ZM2.12035 3.46868C2.12035 3.46868 2.09777 3.46868 2.08649 3.46245L1.71683 3.31283C1.68297 3.29828 1.67169 3.26711 1.68862 3.24217C1.70837 3.21724 1.75069 3.20684 1.78456 3.22139L2.15421 3.37101C2.18807 3.38556 2.19935 3.41673 2.18242 3.44166C2.16832 3.45829 2.14574 3.46868 2.12035 3.46868ZM1.38387 3.16113C1.38387 3.16113 1.35847 3.15905 1.34436 3.15281C1.2202 3.09255 1.10451 3.03021 0.997287 2.96371C0.966248 2.94501 0.963426 2.91176 0.988822 2.89098C1.01422 2.8702 1.05936 2.86604 1.08758 2.88475C1.18916 2.94917 1.30204 3.00943 1.42055 3.06761C1.45441 3.08424 1.46287 3.11541 1.4403 3.14035C1.42619 3.15489 1.40362 3.16321 1.38105 3.16321L1.38387 3.16113Z" fill="#FF63CE"/>
</g>
</g>
<path style="mix-blend-mode:color-dodge" d="M21.6554 26.6034C21.503 26.6034 21.3563 26.5744 21.218 26.5141L2.40819 18.7151L2.19656 18.6175C1.5927 18.3598 1.28513 18.0398 1.33028 17.7177V3.33545C1.42904 3.38532 1.53062 3.4352 1.64067 3.48091L20.9951 11.3484C21.9404 11.7474 22.533 12.5018 22.533 13.3101V25.9572C22.533 26.1858 22.3891 26.3354 22.2677 26.4206C22.1012 26.5369 21.8783 26.6034 21.6554 26.6034Z" fill="url(#paint25_radial_1_4856)"/>
<path style="mix-blend-mode:multiply" d="M16.9628 17.7884C16.9628 16.7494 18.4809 16.0927 19.714 16.5977L22.7107 17.8279C23.1763 18.0191 23.7378 18.0274 24.2147 17.8529L29.4011 15.9348V19.0893C29.4011 19.3428 29.212 19.5776 28.9101 19.6982L24.1611 21.6038C23.687 21.7929 23.117 21.797 22.6402 21.6121L18.9183 20.172C17.7162 19.7065 16.96 18.788 16.96 17.7864L16.9628 17.7884Z" fill="url(#paint26_radial_1_4856)"/>
<path d="M16.9628 17.4518C16.9628 16.4127 18.4809 15.7561 19.714 16.261L22.7107 17.4913C23.1763 17.6824 23.7378 17.6907 24.2147 17.5162L29.4011 15.5981V18.7526C29.4011 19.0062 29.212 19.241 28.9101 19.3615L24.1611 21.2671C23.687 21.4562 23.117 21.4603 22.6402 21.2754L18.9183 19.8353C17.7162 19.3698 16.96 18.4513 16.96 17.4497L16.9628 17.4518Z" fill="url(#paint27_linear_1_4856)"/>
<path style="mix-blend-mode:color-dodge" d="M23.3909 20.9969C23.2215 20.9969 23.0522 20.9699 22.9027 20.9159L19.1808 19.6025C18.1593 19.243 17.5244 18.5365 17.5244 17.7614C17.5244 17.2273 18.1932 16.8969 18.8111 16.8969C19.0284 16.8969 19.2372 16.9343 19.4347 17.0091L22.4315 18.1313C22.756 18.2518 23.12 18.3162 23.4924 18.3162C23.8282 18.3162 24.164 18.2622 24.4659 18.1624L28.8368 16.687V18.95C28.8368 19.0435 28.7607 19.1287 28.6393 19.1724L23.8903 20.9096C23.7379 20.9657 23.563 20.9948 23.388 20.9948L23.3909 20.9969Z" fill="url(#paint28_radial_1_4856)"/>
<g style="mix-blend-mode:multiply" opacity="0.3">
<g style="mix-blend-mode:multiply" opacity="0.3">
<path d="M23.3909 21.2571C23.1652 21.2571 22.9422 21.2176 22.7447 21.1449L19.0228 19.7734C17.8828 19.3536 17.1746 18.5307 17.1746 17.6267C17.1746 16.9119 18.0267 16.4693 18.814 16.4693C19.0905 16.4693 19.3558 16.5191 19.6069 16.6168L22.6036 17.7888C23.12 17.9904 23.7831 18.0029 24.3136 17.8159L29.1953 16.0994C29.3025 16.062 29.4266 16.0952 29.4774 16.1721C29.5282 16.249 29.4831 16.3425 29.3787 16.3799L24.497 18.0964C23.848 18.325 23.041 18.3104 22.4061 18.0631L19.4094 16.8911C19.2232 16.8184 19.0228 16.781 18.8168 16.781C18.2327 16.781 17.6006 17.1052 17.6006 17.6267C17.6006 18.4123 18.2186 19.1271 19.2147 19.4949L22.9366 20.8664C23.2216 20.9724 23.5828 20.9703 23.8649 20.8623L29.0711 18.8715C29.1755 18.832 29.3025 18.8611 29.3561 18.938C29.4097 19.0149 29.3702 19.1084 29.2658 19.1479L24.0596 21.1387C23.8565 21.2176 23.6251 21.2571 23.3937 21.2571H23.3909Z" fill="#B086CC"/>
</g>
</g>
<g style="mix-blend-mode:screen">
<g style="mix-blend-mode:screen">
<path d="M23.4049 21.1524H23.3908C23.2469 21.1524 23.103 21.1358 22.9647 21.1005C22.928 21.0922 22.9083 21.061 22.9196 21.034C22.9308 21.007 22.9732 20.9924 23.0098 21.0007C23.1312 21.0319 23.261 21.0465 23.3908 21.0465C23.4303 21.0465 23.467 21.0693 23.467 21.0984C23.467 21.1275 23.4416 21.1504 23.4021 21.1504L23.4049 21.1524ZM23.8197 21.0963C23.7915 21.0963 23.7633 21.0839 23.7548 21.0631C23.7407 21.0361 23.7604 21.007 23.7971 20.9966C23.8423 20.9841 23.8874 20.9696 23.9297 20.9529L24.1696 20.8615C24.2034 20.849 24.2458 20.8574 24.2655 20.8844C24.2825 20.9093 24.2712 20.9405 24.2345 20.955L23.9946 21.0465C23.9467 21.0652 23.8959 21.0818 23.8451 21.0943C23.8366 21.0963 23.8282 21.0984 23.8197 21.0984V21.0963ZM22.6063 20.9716C22.6063 20.9716 22.5838 20.9716 22.5753 20.9654L22.1972 20.8262C22.1633 20.8137 22.1492 20.7825 22.1661 20.7576C22.1831 20.7327 22.2254 20.7223 22.2593 20.7347L22.6374 20.874C22.6712 20.8864 22.6853 20.9176 22.6684 20.9426C22.6571 20.9613 22.6317 20.9716 22.6063 20.9716ZM24.5759 20.8158C24.5505 20.8158 24.5251 20.8054 24.5138 20.7888C24.4969 20.7638 24.5082 20.7327 24.5449 20.7181L24.9202 20.5747C24.954 20.5623 24.9964 20.5706 25.0161 20.5976C25.033 20.6225 25.0218 20.6537 24.9851 20.6683L24.6098 20.8116C24.6098 20.8116 24.5872 20.8179 24.5759 20.8179V20.8158ZM21.8501 20.6911C21.8501 20.6911 21.8275 20.6911 21.8191 20.6849L21.441 20.5456C21.4071 20.5332 21.393 20.502 21.4099 20.4771C21.4268 20.4521 21.4692 20.4417 21.503 20.4542L21.8811 20.5934C21.915 20.6059 21.9291 20.6371 21.9122 20.662C21.9009 20.6807 21.8755 20.6911 21.8501 20.6911ZM25.3265 20.5269C25.3011 20.5269 25.2757 20.5166 25.2644 20.4999C25.2475 20.475 25.2588 20.4438 25.2955 20.4293L25.6708 20.2859C25.7046 20.2734 25.747 20.2817 25.7667 20.3087C25.7836 20.3337 25.7724 20.3649 25.7357 20.3794L25.3604 20.5228C25.3604 20.5228 25.3378 20.529 25.3265 20.529V20.5269ZM21.0911 20.4106C21.0911 20.4106 21.0685 20.4106 21.06 20.4043L20.6819 20.2651C20.648 20.2526 20.6339 20.2215 20.6509 20.1965C20.6678 20.1716 20.7129 20.1612 20.7468 20.1737L21.1249 20.3129C21.1588 20.3254 21.1729 20.3565 21.156 20.3815C21.1447 20.4002 21.1193 20.4106 21.0939 20.4106H21.0911ZM26.0771 20.2402C26.0517 20.2402 26.0263 20.2298 26.015 20.2132C25.9981 20.1882 26.0094 20.157 26.0461 20.1425L26.4214 19.9991C26.4552 19.9867 26.4975 19.995 26.5173 20.022C26.5342 20.0469 26.5229 20.0781 26.4863 20.0926L26.111 20.236C26.111 20.236 26.0884 20.2423 26.0771 20.2423V20.2402ZM20.3348 20.1321C20.3348 20.1321 20.3122 20.1321 20.3038 20.1259L19.9257 19.9866C19.8918 19.9742 19.8777 19.943 19.8946 19.916C19.9116 19.8911 19.9539 19.8807 19.9906 19.8931L20.3687 20.0324C20.4025 20.0448 20.4167 20.076 20.3997 20.103C20.3884 20.1217 20.363 20.1321 20.3376 20.1321H20.3348ZM26.8305 19.9534C26.8051 19.9534 26.7797 19.943 26.7684 19.9264C26.7515 19.9014 26.7628 19.8703 26.7995 19.8557L27.1748 19.7123C27.2086 19.6999 27.251 19.7082 27.2707 19.7352C27.2876 19.7601 27.2763 19.7913 27.2397 19.8059L26.8644 19.9492C26.8644 19.9492 26.8418 19.9555 26.8305 19.9555V19.9534ZM19.5786 19.8537C19.5786 19.8537 19.556 19.8537 19.5476 19.8474L19.1694 19.7082C19.1356 19.6957 19.1215 19.6646 19.1384 19.6375C19.1553 19.6126 19.1976 19.6022 19.2315 19.6147L19.6096 19.7539C19.6435 19.7664 19.6576 19.7975 19.6407 19.8225C19.6294 19.8412 19.604 19.8516 19.5786 19.8516V19.8537ZM27.5811 19.6666C27.5557 19.6666 27.5303 19.6562 27.519 19.6396C27.5021 19.6147 27.5134 19.5835 27.5501 19.569L27.9254 19.4256C27.9592 19.4131 28.0015 19.4214 28.0213 19.4484C28.0382 19.4734 28.0269 19.5045 27.9902 19.5191L27.615 19.6625C27.615 19.6625 27.5924 19.6687 27.5811 19.6687V19.6666ZM18.828 19.5648C18.828 19.5648 18.8026 19.5627 18.7913 19.5565C18.67 19.5004 18.5543 19.438 18.4414 19.3695C18.4104 19.3508 18.4076 19.3175 18.433 19.2967C18.4584 19.2739 18.5035 19.2718 18.5317 19.2905C18.6389 19.3549 18.749 19.4152 18.8675 19.4692C18.9014 19.4838 18.9098 19.517 18.8901 19.5399C18.876 19.5565 18.8534 19.5648 18.8308 19.5648H18.828ZM28.3317 19.3799C28.3063 19.3799 28.2809 19.3695 28.2696 19.3528C28.2527 19.3279 28.264 19.2967 28.3006 19.2822L28.6759 19.1388C28.7098 19.1263 28.7521 19.1346 28.7719 19.1617C28.7888 19.1866 28.7775 19.2178 28.7408 19.2323L28.3655 19.3757C28.3655 19.3757 28.343 19.3819 28.3317 19.3819V19.3799ZM18.179 19.1679C18.1592 19.1679 18.1423 19.1617 18.1282 19.1513C18.0294 19.0723 17.9391 18.9892 17.8573 18.9019C17.8347 18.879 17.8432 18.8458 17.8742 18.8292C17.9053 18.8125 17.9504 18.8188 17.973 18.8416C18.0492 18.9248 18.1367 19.0037 18.2298 19.0785C18.2552 19.0993 18.2552 19.1326 18.2241 19.1513C18.21 19.1596 18.1931 19.1658 18.1762 19.1658L18.179 19.1679ZM17.6993 18.6567C17.6739 18.6567 17.6485 18.6463 17.6372 18.6276C17.5723 18.532 17.5159 18.4343 17.4707 18.3325C17.4594 18.3055 17.4792 18.2764 17.5159 18.266C17.5526 18.2577 17.5921 18.2723 17.6062 18.2993C17.6485 18.3949 17.7021 18.4884 17.7642 18.5798C17.7811 18.6047 17.767 18.6359 17.7332 18.6484C17.7219 18.6525 17.7134 18.6546 17.7021 18.6546L17.6993 18.6567ZM23.4924 18.158C23.4077 18.158 23.3202 18.1538 23.2384 18.1476C23.1989 18.1434 23.1707 18.1185 23.1763 18.0894C23.182 18.0603 23.2102 18.0395 23.2553 18.0437C23.388 18.0541 23.5262 18.0561 23.6645 18.0478C23.7096 18.0457 23.7379 18.0665 23.7407 18.0956C23.7435 18.1247 23.7153 18.1496 23.6758 18.1517C23.6137 18.1559 23.5544 18.158 23.4924 18.158ZM24.0849 18.0956C24.0539 18.0956 24.0257 18.0811 24.0172 18.0582C24.0059 18.0312 24.0285 18.0021 24.0652 17.9938C24.1696 17.9709 24.274 17.9418 24.3728 17.9086L24.4489 17.8816C24.4828 17.8691 24.5251 17.8816 24.5421 17.9065C24.559 17.9315 24.5421 17.9626 24.5082 17.9751L24.432 18.0021C24.3276 18.0395 24.2176 18.0707 24.1047 18.0935C24.099 18.0935 24.0906 18.0935 24.0849 18.0935V18.0956ZM22.8349 18.0811C22.8349 18.0811 22.8208 18.0811 22.8123 18.079C22.6938 18.0499 22.5781 18.0146 22.4681 17.9709L22.4116 17.9502C22.3778 17.9377 22.3637 17.9044 22.3834 17.8795C22.4003 17.8546 22.4455 17.8442 22.4794 17.8587L22.5358 17.8795C22.6374 17.919 22.7446 17.9522 22.8575 17.9792C22.8942 17.9876 22.9139 18.0167 22.9026 18.0457C22.8913 18.0686 22.8659 18.0811 22.8349 18.0811ZM17.4341 18.0686C17.4002 18.0686 17.372 18.0499 17.3635 18.025C17.3381 17.9211 17.3212 17.813 17.3184 17.707C17.3184 17.6779 17.3466 17.6551 17.3861 17.653C17.4256 17.653 17.4566 17.6738 17.4594 17.7029C17.4651 17.8026 17.4792 17.9044 17.5046 18.0042C17.5102 18.0333 17.4848 18.0603 17.4482 18.0644C17.4425 18.0644 17.4397 18.0644 17.4369 18.0644L17.4341 18.0686ZM24.8609 17.8483C24.8355 17.8483 24.8101 17.8379 24.796 17.8192C24.7791 17.7943 24.796 17.7631 24.8299 17.7507L25.2108 17.6156C25.2447 17.6031 25.287 17.6156 25.3039 17.6405C25.3209 17.6655 25.3039 17.6966 25.2701 17.7091L24.8891 17.8442C24.8891 17.8442 24.8694 17.8483 24.8581 17.8483H24.8609ZM22.0758 17.8109C22.0758 17.8109 22.0533 17.8109 22.042 17.8047L21.6667 17.6592C21.6328 17.6468 21.6187 17.6135 21.6385 17.5886C21.6554 17.5636 21.7006 17.5532 21.7344 17.5678L22.1097 17.7133C22.1436 17.7257 22.1577 17.759 22.1379 17.7839C22.1266 17.8005 22.1012 17.8109 22.0758 17.8109ZM25.6256 17.5782C25.6002 17.5782 25.5748 17.5678 25.5607 17.5491C25.5438 17.5242 25.5607 17.493 25.5946 17.4805L25.9755 17.3454C26.0122 17.333 26.0517 17.3454 26.0686 17.3704C26.0856 17.3953 26.0686 17.4265 26.0348 17.439L25.6538 17.574C25.6538 17.574 25.6341 17.5782 25.6228 17.5782H25.6256ZM21.3281 17.5179C21.3281 17.5179 21.3055 17.5179 21.2942 17.5117L20.9189 17.3662C20.8851 17.3538 20.871 17.3205 20.8907 17.2956C20.9076 17.2706 20.9528 17.2602 20.9866 17.2748L21.3619 17.4203C21.3958 17.4327 21.4099 17.466 21.3902 17.4909C21.3789 17.5096 21.3535 17.5179 21.3281 17.5179ZM17.4228 17.4493C17.4228 17.4493 17.4115 17.4493 17.4058 17.4493C17.3692 17.4431 17.3438 17.414 17.3522 17.387C17.3861 17.281 17.4453 17.1792 17.5272 17.0857C17.5497 17.0607 17.5921 17.0545 17.6259 17.0691C17.6598 17.0836 17.6683 17.1169 17.6485 17.1418C17.5751 17.2249 17.5244 17.3163 17.4933 17.4119C17.4849 17.4369 17.4566 17.4514 17.4256 17.4514L17.4228 17.4493ZM26.3875 17.3101C26.3621 17.3101 26.3367 17.2997 26.3226 17.281C26.3057 17.2561 26.3226 17.2249 26.3564 17.2124L26.7374 17.0774C26.7712 17.0649 26.8136 17.0774 26.8305 17.1023C26.8474 17.1272 26.8305 17.1584 26.7967 17.1709L26.4157 17.306C26.4157 17.306 26.396 17.3101 26.3847 17.3101H26.3875ZM20.5775 17.227C20.5775 17.227 20.5549 17.227 20.5436 17.2208L20.1683 17.0753C20.1345 17.0628 20.1204 17.0296 20.1401 17.0046C20.1599 16.9797 20.2022 16.9693 20.2361 16.9839L20.6114 17.1293C20.6452 17.1418 20.6593 17.175 20.6396 17.2C20.6283 17.2166 20.6029 17.227 20.5775 17.227ZM27.1494 17.042C27.124 17.042 27.0986 17.0317 27.0845 17.0129C27.0675 16.988 27.0845 16.9568 27.1183 16.9444L27.4993 16.8093C27.5331 16.7968 27.5754 16.8093 27.5924 16.8342C27.6093 16.8592 27.5924 16.8903 27.5585 16.9028L27.1776 17.0379C27.1776 17.0379 27.1578 17.042 27.1465 17.042H27.1494ZM19.8297 16.934C19.8297 16.934 19.8071 16.934 19.7959 16.9278L19.4714 16.801C19.4544 16.7948 19.4403 16.7885 19.4234 16.7823C19.3895 16.7698 19.3726 16.7386 19.3895 16.7137C19.4065 16.6888 19.4488 16.6763 19.4827 16.6888C19.4996 16.695 19.5193 16.7012 19.5363 16.7096L19.8579 16.8363C19.8918 16.8488 19.9059 16.882 19.8862 16.907C19.8749 16.9257 19.8495 16.934 19.8241 16.934H19.8297ZM17.8658 16.934C17.846 16.934 17.8263 16.9277 17.8122 16.9153C17.7868 16.8924 17.7924 16.8613 17.8206 16.8426C17.9335 16.774 18.0605 16.7158 18.1988 16.6721C18.2354 16.6618 18.2749 16.6721 18.2919 16.6992C18.306 16.7262 18.2919 16.7553 18.2552 16.7677C18.131 16.8072 18.0153 16.8592 17.9109 16.9215C17.8968 16.9298 17.8827 16.934 17.8658 16.934ZM27.9141 16.774C27.8887 16.774 27.8633 16.7636 27.8492 16.7449C27.8322 16.7199 27.8492 16.6888 27.883 16.6763L28.264 16.5412C28.2978 16.5288 28.3402 16.5412 28.3571 16.5662C28.374 16.5911 28.3571 16.6223 28.3232 16.6347L27.9423 16.7698C27.9423 16.7698 27.9225 16.774 27.9112 16.774H27.9141ZM19.0537 16.695C19.0537 16.695 19.0453 16.695 19.0425 16.695C18.9691 16.6867 18.8901 16.6805 18.8139 16.6805C18.7575 16.6805 18.6982 16.6825 18.6418 16.6888C18.5994 16.6888 18.5684 16.6721 18.5628 16.6431C18.5571 16.614 18.5853 16.589 18.6248 16.5849C18.6869 16.5786 18.7518 16.5766 18.8139 16.5766C18.8985 16.5766 18.9832 16.5807 19.065 16.5911C19.1045 16.5953 19.1299 16.6223 19.1243 16.6514C19.1186 16.6763 19.0876 16.695 19.0537 16.695ZM28.6788 16.5059C28.6534 16.5059 28.628 16.4955 28.6139 16.4768C28.5969 16.4519 28.6139 16.4207 28.6477 16.4082L28.9468 16.3023C28.9807 16.2898 29.023 16.3023 29.0399 16.3272C29.0569 16.3521 29.0399 16.3833 29.0061 16.3958L28.707 16.5017C28.707 16.5017 28.6872 16.5059 28.6759 16.5059H28.6788Z" fill="#FF63CE"/>
</g>
</g>
<path style="mix-blend-mode:color-dodge" d="M16.9855 17.6241C16.9855 16.5851 18.5036 15.9284 19.7367 16.4334L22.7306 17.6636C23.1962 17.8548 23.7577 17.8631 24.2346 17.6885L29.3984 15.7788V15.5959L24.212 17.514C23.7351 17.6885 23.1736 17.6802 22.708 17.4891L19.7141 16.2588C18.481 15.7518 16.9629 16.4085 16.9629 17.4475C16.9629 17.5659 16.9742 17.6823 16.9939 17.7966C16.9883 17.7384 16.9855 17.6782 16.9855 17.62V17.6241Z" fill="url(#paint29_radial_1_4856)"/>
<path style="mix-blend-mode:screen" d="M2.19382 16.6599C2.7829 16.6599 3.26045 13.3682 3.26045 9.30773C3.26045 5.24724 2.7829 1.95557 2.19382 1.95557C1.60474 1.95557 1.1272 5.24724 1.1272 9.30773C1.1272 13.3682 1.60474 16.6599 2.19382 16.6599Z" fill="url(#paint30_radial_1_4856)"/>
<path style="mix-blend-mode:multiply" d="M20.6479 18.8315C20.6479 19.4445 20.0582 19.6918 19.333 19.3843C18.6078 19.0747 18.0181 18.3266 18.0181 17.7135C18.0181 17.1005 18.6078 16.8532 19.333 17.1608C20.0582 17.4704 20.6479 18.2185 20.6479 18.8315Z" fill="url(#paint31_radial_1_4856)"/>
<path d="M20.4053 18.5346C20.4053 18.7944 20.284 18.9793 20.0836 19.0687C20.078 19.0707 19.824 19.1954 19.8184 19.1975C19.6124 19.2827 19.745 19.0894 19.4318 18.9564C18.7997 18.6884 18.289 18.0379 18.289 17.506C18.289 17.242 17.9589 17.24 18.162 17.1527C18.1677 17.1506 18.4611 17.0218 18.4668 17.0197C18.6728 16.9366 18.9549 16.9532 19.2653 17.0841C19.8974 17.3522 20.4081 18.0026 20.4081 18.5346H20.4053Z" fill="url(#paint32_linear_1_4856)"/>
<path d="M20.1091 18.6716C20.1091 19.2057 19.5984 19.4197 18.9663 19.1516C18.3342 18.8836 17.8235 18.2331 17.8235 17.7012C17.8235 17.1692 18.3342 16.9531 18.9663 17.2211C19.5984 17.4892 20.1091 18.1396 20.1091 18.6716Z" fill="url(#paint33_linear_1_4856)"/>
<path style="mix-blend-mode:color-dodge" d="M19.0396 17.1857C18.7122 17.0464 18.4188 17.0402 18.21 17.1379C18.399 17.1026 18.6276 17.1316 18.8759 17.2376C19.508 17.5057 20.0187 18.1561 20.0187 18.6881C20.0187 18.9437 19.8974 19.1245 19.7055 19.2159C19.9933 19.164 20.1824 18.9603 20.1824 18.6362C20.1824 18.1021 19.6716 17.4537 19.0396 17.1857Z" fill="url(#paint34_radial_1_4856)"/>
<path style="mix-blend-mode:multiply" opacity="0.3" d="M19.0115 18.1062H18.6221V26.0818H19.0115V18.1062Z" fill="url(#paint35_radial_1_4856)"/>
<defs>
<linearGradient id="paint0_linear_1_4856" x1="28.9327" y1="15.8848" x2="28.3327" y2="12.1192" gradientUnits="userSpaceOnUse">
<stop offset="0.04" stop-color="#9F19AB"/>
<stop offset="0.24" stop-color="#AE24B0"/>
<stop offset="0.65" stop-color="#D643BF"/>
<stop offset="1" stop-color="#FF63CE"/>
</linearGradient>
<linearGradient id="paint1_linear_1_4856" x1="0.669942" y1="12.3439" x2="32.3724" y2="12.3439" gradientUnits="userSpaceOnUse">
<stop stop-color="#B82CB4"/>
<stop offset="0.06" stop-color="#DD49C1"/>
<stop offset="0.07" stop-color="#E953C6"/>
<stop offset="0.13" stop-color="#C436B8"/>
<stop offset="0.29" stop-color="#B82CB4"/>
<stop offset="0.67" stop-color="#D644BF"/>
<stop offset="1" stop-color="#EC55C7"/>
</linearGradient>
<radialGradient id="paint2_radial_1_4856" cx="0" cy="0" r="1" gradientUnits="userSpaceOnUse" gradientTransform="translate(24.3953 5.86045) scale(17.1873 12.6574)">
<stop stop-color="#551841"/>
<stop offset="0.05" stop-color="#4A1438"/>
<stop offset="0.18" stop-color="#2F0D24"/>
<stop offset="0.33" stop-color="#1A0714"/>
<stop offset="0.5" stop-color="#0B0308"/>
<stop offset="0.7" stop-color="#020002"/>
<stop offset="1"/>
</radialGradient>
<linearGradient id="paint3_linear_1_4856" x1="0.994542" y1="12.5954" x2="32.3527" y2="12.5954" gradientUnits="userSpaceOnUse">
<stop stop-color="#B82CB4"/>
<stop offset="0.06" stop-color="#DD49C1"/>
<stop offset="0.07" stop-color="#E953C6"/>
<stop offset="0.13" stop-color="#C436B8"/>
<stop offset="0.29" stop-color="#B82CB4"/>
<stop offset="0.67" stop-color="#D644BF"/>
<stop offset="1" stop-color="#EC55C7"/>
</linearGradient>
<radialGradient id="paint4_radial_1_4856" cx="0" cy="0" r="1" gradientUnits="userSpaceOnUse" gradientTransform="translate(9.44015 14.4199) scale(27.9354 20.5728)">
<stop stop-color="#8770B8"/>
<stop offset="1" stop-color="white"/>
</radialGradient>
<radialGradient id="paint5_radial_1_4856" cx="0" cy="0" r="1" gradientUnits="userSpaceOnUse" gradientTransform="translate(24.8214 13.2) scale(12.5342 9.23072)">
<stop stop-color="#551841"/>
<stop offset="0.05" stop-color="#4A1438"/>
<stop offset="0.18" stop-color="#2F0D24"/>
<stop offset="0.33" stop-color="#1A0714"/>
<stop offset="0.5" stop-color="#0B0308"/>
<stop offset="0.7" stop-color="#020002"/>
<stop offset="1"/>
</radialGradient>
<radialGradient id="paint6_radial_1_4856" cx="0" cy="0" r="1" gradientUnits="userSpaceOnUse" gradientTransform="translate(24.8214 15.3405) scale(11.3011 8.32261)">
<stop stop-color="#551841"/>
<stop offset="0.05" stop-color="#4A1438"/>
<stop offset="0.18" stop-color="#2F0D24"/>
<stop offset="0.33" stop-color="#1A0714"/>
<stop offset="0.5" stop-color="#0B0308"/>
<stop offset="0.7" stop-color="#020002"/>
<stop offset="1"/>
</radialGradient>
<linearGradient id="paint7_linear_1_4856" x1="11.4124" y1="9.35982" x2="32.4741" y2="9.35982" gradientUnits="userSpaceOnUse">
<stop stop-color="#9F79C8"/>
<stop offset="0.14" stop-color="#A47FCA"/>
<stop offset="0.33" stop-color="#B491D3"/>
<stop offset="0.55" stop-color="#CDAFE1"/>
<stop offset="0.58" stop-color="#D1B4E3"/>
<stop offset="0.76" stop-color="#DAC3E8"/>
<stop offset="1" stop-color="#EBDEF3"/>
</linearGradient>
<linearGradient id="paint8_linear_1_4856" x1="5.34567" y1="7.67867" x2="23.831" y2="7.67867" gradientUnits="userSpaceOnUse">
<stop stop-color="#9F79C8"/>
<stop offset="0.14" stop-color="#A47FCA"/>
<stop offset="0.33" stop-color="#B491D3"/>
<stop offset="0.55" stop-color="#CDAFE1"/>
<stop offset="0.58" stop-color="#D1B4E3"/>
<stop offset="0.76" stop-color="#DAC3E8"/>
<stop offset="1" stop-color="#EBDEF3"/>
</linearGradient>
<linearGradient id="paint9_linear_1_4856" x1="7.72724" y1="8.95502" x2="28.0298" y2="8.95502" gradientUnits="userSpaceOnUse">
<stop stop-color="#9F79C8"/>
<stop offset="0.14" stop-color="#A47FCA"/>
<stop offset="0.33" stop-color="#B491D3"/>
<stop offset="0.55" stop-color="#CDAFE1"/>
<stop offset="0.58" stop-color="#D1B4E3"/>
<stop offset="0.76" stop-color="#DAC3E8"/>
<stop offset="1" stop-color="#EBDEF3"/>
</linearGradient>
<linearGradient id="paint10_linear_1_4856" x1="1.81848" y1="7.12645" x2="25.1939" y2="7.12645" gradientUnits="userSpaceOnUse">
<stop offset="0.04" stop-color="#906ABA"/>
<stop offset="0.18" stop-color="#9F79C8"/>
<stop offset="0.28" stop-color="#A47FCA"/>
<stop offset="0.41" stop-color="#B491D3"/>
<stop offset="0.56" stop-color="#CDAFE1"/>
<stop offset="0.58" stop-color="#D1B4E3"/>
<stop offset="0.76" stop-color="#DAC3E8"/>
<stop offset="1" stop-color="#EBDEF3"/>
</linearGradient>
<linearGradient id="paint11_linear_1_4856" x1="12.0248" y1="9.57782" x2="33.5379" y2="9.57782" gradientUnits="userSpaceOnUse">
<stop stop-color="#9F79C8"/>
<stop offset="0.14" stop-color="#A47FCA"/>
<stop offset="0.33" stop-color="#B491D3"/>
<stop offset="0.55" stop-color="#CDAFE1"/>
<stop offset="0.58" stop-color="#D1B4E3"/>
<stop offset="0.76" stop-color="#DAC3E8"/>
<stop offset="1" stop-color="#EBDEF3"/>
</linearGradient>
<linearGradient id="paint12_linear_1_4856" x1="2.14301" y1="7.39587" x2="24.9513" y2="7.39587" gradientUnits="userSpaceOnUse">
<stop stop-color="#9F79C8"/>
<stop offset="0.14" stop-color="#A47FCA"/>
<stop offset="0.33" stop-color="#B491D3"/>
<stop offset="0.55" stop-color="#CDAFE1"/>
<stop offset="0.58" stop-color="#D1B4E3"/>
<stop offset="0.76" stop-color="#DAC3E8"/>
<stop offset="1" stop-color="#EBDEF3"/>
</linearGradient>
<linearGradient id="paint13_linear_1_4856" x1="8.95178" y1="9.33285" x2="34.4802" y2="9.33285" gradientUnits="userSpaceOnUse">
<stop offset="0.04" stop-color="#9F19AB"/>
<stop offset="0.24" stop-color="#AE24B0"/>
<stop offset="0.65" stop-color="#D643BF"/>
<stop offset="1" stop-color="#FF63CE"/>
</linearGradient>
<linearGradient id="paint14_linear_1_4856" x1="7.06978" y1="6.13669" x2="25.9117" y2="18.9555" gradientUnits="userSpaceOnUse">
<stop offset="0.04" stop-color="#FFA98C"/>
<stop offset="0.32" stop-color="#FEB892"/>
<stop offset="0.86" stop-color="#FEE0A3"/>
<stop offset="1" stop-color="#FEECA8"/>
</linearGradient>
<radialGradient id="paint15_radial_1_4856" cx="0" cy="0" r="1" gradientUnits="userSpaceOnUse" gradientTransform="translate(22.2875 10.8854) scale(6.90202 5.08292)">
<stop stop-color="white"/>
<stop offset="1"/>
</radialGradient>
<linearGradient id="paint16_linear_1_4856" x1="6.2939" y1="8.7861" x2="25.1358" y2="21.6049" gradientUnits="userSpaceOnUse">
<stop offset="0.04" stop-color="#138BBD"/>
<stop offset="0.23" stop-color="#169AC6"/>
<stop offset="0.59" stop-color="#1EC2DF"/>
<stop offset="1" stop-color="#2AF6FF"/>
</linearGradient>
<radialGradient id="paint17_radial_1_4856" cx="0" cy="0" r="1" gradientUnits="userSpaceOnUse" gradientTransform="translate(21.5116 13.5346) scale(0.141088 0.103903)">
<stop stop-color="white"/>
<stop offset="1"/>
</radialGradient>
<linearGradient id="paint18_linear_1_4856" x1="3.17015" y1="10.2597" x2="22.3045" y2="10.2597" gradientUnits="userSpaceOnUse">
<stop offset="0.1" stop-color="#E24DC3"/>
<stop offset="0.86" stop-color="#C738B9"/>
<stop offset="0.97" stop-color="#EC55C7"/>
<stop offset="1" stop-color="#D644BF"/>
</linearGradient>
<linearGradient id="paint19_linear_1_4856" x1="3.13061" y1="9.51558" x2="17.1181" y2="9.51558" gradientUnits="userSpaceOnUse">
<stop stop-color="#B086CC"/>
<stop offset="0.03" stop-color="#C9ABDC"/>
<stop offset="0.07" stop-color="#EBDEF3"/>
<stop offset="0.13" stop-color="#B086CC"/>
<stop offset="0.29" stop-color="#8969C3"/>
<stop offset="1" stop-color="#B086CC"/>
</linearGradient>
<linearGradient id="paint20_linear_1_4856" x1="2.0358" y1="10.532" x2="16.6525" y2="10.532" gradientUnits="userSpaceOnUse">
<stop stop-color="#B086CC"/>
<stop offset="0.03" stop-color="#C9ABDC"/>
<stop offset="0.07" stop-color="#EBDEF3"/>
<stop offset="0.13" stop-color="#B086CC"/>
<stop offset="0.29" stop-color="#9673D6"/>
<stop offset="1" stop-color="#C19CD9"/>
</linearGradient>
<radialGradient id="paint21_radial_1_4856" cx="0" cy="0" r="1" gradientUnits="userSpaceOnUse" gradientTransform="translate(13.9041 13.6303) scale(13.3526 9.83336)">
<stop stop-color="#8770B8"/>
<stop offset="1" stop-color="white"/>
</radialGradient>
<linearGradient id="paint22_linear_1_4856" x1="20.8879" y1="23.3908" x2="7.85765" y2="0.438246" gradientUnits="userSpaceOnUse">
<stop offset="0.04" stop-color="#9F19AB"/>
<stop offset="0.24" stop-color="#AE24B0"/>
<stop offset="0.65" stop-color="#D643BF"/>
<stop offset="1" stop-color="#FF63CE"/>
</linearGradient>
<radialGradient id="paint23_radial_1_4856" cx="0" cy="0" r="1" gradientUnits="userSpaceOnUse" gradientTransform="translate(13.2043 13.1439) scale(14.7324 10.8495)">
<stop stop-color="white"/>
<stop offset="1"/>
</radialGradient>
<linearGradient id="paint24_linear_1_4856" x1="23.2977" y1="14.5172" x2="0.639018" y2="14.5172" gradientUnits="userSpaceOnUse">
<stop offset="0.1" stop-color="#E24DC3"/>
<stop offset="0.86" stop-color="#C738B9"/>
<stop offset="0.97" stop-color="#EC55C7"/>
<stop offset="1" stop-color="#D644BF"/>
</linearGradient>
<radialGradient id="paint25_radial_1_4856" cx="0" cy="0" r="1" gradientUnits="userSpaceOnUse" gradientTransform="translate(19.7422 8.29993) scale(13.4541 9.90817)">
<stop stop-color="#69184E"/>
<stop offset="0.11" stop-color="#4A1037"/>
<stop offset="0.24" stop-color="#2F0A23"/>
<stop offset="0.38" stop-color="#1A0613"/>
<stop offset="0.53" stop-color="#0B0208"/>
<stop offset="0.72" stop-color="#020001"/>
<stop offset="1"/>
</radialGradient>
<radialGradient id="paint26_radial_1_4856" cx="0" cy="0" r="1" gradientUnits="userSpaceOnUse" gradientTransform="translate(21.9827 18.1168) scale(5.20896 3.83609)">
<stop stop-color="#8770B8"/>
<stop offset="1" stop-color="white"/>
</radialGradient>
<linearGradient id="paint27_linear_1_4856" x1="29.6917" y1="18.5053" x2="18.3088" y2="18.5053" gradientUnits="userSpaceOnUse">
<stop stop-color="#E24DC3"/>
<stop offset="0.43" stop-color="#C738B9"/>
<stop offset="0.56" stop-color="#EC55C7"/>
<stop offset="0.8" stop-color="#DD49C1"/>
<stop offset="1" stop-color="#D644BF"/>
</linearGradient>
<radialGradient id="paint28_radial_1_4856" cx="0" cy="0" r="1" gradientUnits="userSpaceOnUse" gradientTransform="translate(21.7119 16.0814) scale(7.3281 5.50464)">
<stop stop-color="#69184E"/>
<stop offset="0.11" stop-color="#4A1037"/>
<stop offset="0.24" stop-color="#2F0A23"/>
<stop offset="0.38" stop-color="#1A0613"/>
<stop offset="0.53" stop-color="#0B0208"/>
<stop offset="0.72" stop-color="#020001"/>
<stop offset="1"/>
</radialGradient>
<radialGradient id="paint29_radial_1_4856" cx="0" cy="0" r="1" gradientUnits="userSpaceOnUse" gradientTransform="translate(23.182 16.7077) scale(4.5261 3.3332)">
<stop stop-color="white"/>
<stop offset="1"/>
</radialGradient>
<radialGradient id="paint30_radial_1_4856" cx="0" cy="0" r="1" gradientUnits="userSpaceOnUse" gradientTransform="translate(-19.8488 9.30773) scale(1.09817 7.35216)">
<stop stop-color="#FF63CE"/>
<stop offset="0.02" stop-color="#F65FC7"/>
<stop offset="0.13" stop-color="#BD4999"/>
<stop offset="0.25" stop-color="#8B3670"/>
<stop offset="0.37" stop-color="#60254D"/>
<stop offset="0.49" stop-color="#3D1731"/>
<stop offset="0.62" stop-color="#220D1B"/>
<stop offset="0.74" stop-color="#0F050C"/>
<stop offset="0.87" stop-color="#030103"/>
<stop offset="1"/>
</radialGradient>
<radialGradient id="paint31_radial_1_4856" cx="0" cy="0" r="1" gradientUnits="userSpaceOnUse" gradientTransform="translate(19.333 18.472) scale(1.51529 1.11592)">
<stop stop-color="#8770B8"/>
<stop offset="1" stop-color="white"/>
</radialGradient>
<linearGradient id="paint32_linear_1_4856" x1="18.3878" y1="16.9199" x2="19.5936" y2="19.4755" gradientUnits="userSpaceOnUse">
<stop offset="0.01" stop-color="#C1A1D5"/>
<stop offset="0.05" stop-color="#C7ABD9"/>
<stop offset="0.11" stop-color="#D9C6E5"/>
<stop offset="0.2" stop-color="#F6F2F9"/>
<stop offset="0.22" stop-color="white"/>
<stop offset="0.25" stop-color="#F9F5FB"/>
<stop offset="0.3" stop-color="#E9DBF1"/>
<stop offset="0.36" stop-color="#D1B4E3"/>
<stop offset="0.43" stop-color="#B294D5"/>
<stop offset="0.49" stop-color="#9B7CCB"/>
<stop offset="0.56" stop-color="#8D6EC5"/>
<stop offset="0.61" stop-color="#8969C3"/>
<stop offset="0.76" stop-color="#9371C5"/>
<stop offset="1" stop-color="#B086CC"/>
</linearGradient>
<linearGradient id="paint33_linear_1_4856" x1="17.341" y1="17.3666" x2="20.158" y2="19.9842" gradientUnits="userSpaceOnUse">
<stop stop-color="#9F79C8"/>
<stop offset="0.14" stop-color="#A47FCA"/>
<stop offset="0.33" stop-color="#B491D3"/>
<stop offset="0.55" stop-color="#CDAFE1"/>
<stop offset="0.58" stop-color="#D1B4E3"/>
<stop offset="0.76" stop-color="#DAC3E8"/>
<stop offset="1" stop-color="#EBDEF3"/>
</linearGradient>
<radialGradient id="paint34_radial_1_4856" cx="0" cy="0" r="1" gradientUnits="userSpaceOnUse" gradientTransform="translate(19.2653 17.9525) scale(1.2444 0.916423)">
<stop stop-color="white"/>
<stop offset="1"/>
</radialGradient>
<radialGradient id="paint35_radial_1_4856" cx="0" cy="0" r="1" gradientUnits="userSpaceOnUse" gradientTransform="translate(18.8873 18.6922) scale(7.13609 5.2554)">
<stop stop-color="#8770B8"/>
<stop offset="1" stop-color="white"/>
</radialGradient>
</defs>
</svg>
