<svg width="166" height="162" viewBox="0 0 166 162" fill="none" xmlns="http://www.w3.org/2000/svg">
<path fill-rule="evenodd" clip-rule="evenodd" d="M156.857 79.0645C156.857 120.184 121.738 153.508 78.4215 153.508C66.4988 153.508 55.197 150.977 45.0804 146.449C43.0909 145.565 41.1296 144.588 39.2248 143.543C31.6056 139.364 24.8047 134.007 19.0903 127.725C17.0021 125.448 15.0691 123.037 13.2913 120.532C10.8785 117.13 8.74796 113.514 6.94192 109.723C2.48327 100.374 0 89.9939 0 79.0645C0 68.135 2.49741 57.7145 6.97017 48.3387C8.39525 45.3385 10.0319 42.432 11.8803 39.6594C15.831 33.6321 20.6706 28.2076 26.2298 23.5063C40.0855 11.7464 58.3716 4.60742 78.4073 4.60742C84.8272 4.60742 91.0496 5.34409 97.018 6.72367C105.329 8.63901 113.089 11.8 120.13 16.0057C121.498 16.8227 122.839 17.6799 124.151 18.5773C125.251 19.3274 126.324 20.1042 127.368 20.8945C132.518 24.7921 137.118 29.2925 141.068 34.2885C149.322 44.6822 154.769 57.1921 156.349 70.8004C156.674 73.506 156.829 76.2517 156.829 79.0511L156.857 79.0645Z" fill="url(#paint0_radial_1_6962)"/>
<g style="mix-blend-mode:multiply" opacity="0.58">
<g style="mix-blend-mode:multiply" opacity="0.58">
<path fill-rule="evenodd" clip-rule="evenodd" d="M54.0966 87.4626C53.5886 87.6635 52.6009 87.9448 52.7703 88.3868C52.8408 88.6011 53.0666 88.7752 53.1654 88.9761C53.2641 89.1503 53.3206 89.3378 53.3488 89.5253C53.3911 89.7798 53.6168 90.1682 53.9273 90.3557C54.1671 90.503 54.407 90.3557 54.5763 90.2084C54.7456 90.0611 54.9291 89.9003 54.9432 89.7128C54.9573 89.4717 54.9855 89.244 55.0843 89.0029C55.1266 88.9092 55.2395 88.8288 55.2818 88.735C55.3241 88.6145 55.3101 88.4806 55.3101 88.3466C55.296 88.0787 54.9432 87.5564 54.0825 87.4492L54.0966 87.4626Z" fill="#9CBDFF"/>
</g>
<g style="mix-blend-mode:multiply" opacity="0.58">
<path fill-rule="evenodd" clip-rule="evenodd" d="M52.0223 91.186C51.9518 91.0654 51.9941 90.9583 52.1352 90.8779C52.8971 90.8779 53.1652 91.7485 52.4456 91.9227C51.6272 92.1102 51.5144 91.4673 51.7684 91.186H52.0082H52.0223Z" fill="#9CBDFF"/>
</g>
<g style="mix-blend-mode:multiply" opacity="0.58">
<path fill-rule="evenodd" clip-rule="evenodd" d="M37.9833 96.7445C38.3783 96.6374 38.717 96.4767 39.1544 96.5436C39.5212 96.5972 39.8316 96.7177 40.0715 96.8785C40.3819 97.0794 40.5089 97.3473 40.6359 97.6017C40.7064 97.7223 40.8052 97.8428 40.7488 97.9768C40.5089 98.4991 39.493 98.8608 38.6746 99.0081C38.209 99.0885 37.7716 99.1956 37.2778 99.2224C36.9392 99.2358 36.6006 99.2626 36.2761 99.3028C35.9939 99.3296 35.7398 99.3965 35.4435 99.3563C35.2319 99.3296 34.9638 99.2224 34.7945 99.1421C34.2583 98.901 33.9197 98.5527 33.9479 98.1777C33.9903 97.508 35.3871 96.9722 36.3325 96.691C37.1085 96.4633 38.3501 96.182 37.9833 96.7579V96.7445Z" fill="#9CBDFF"/>
</g>
<g style="mix-blend-mode:multiply" opacity="0.58">
<path fill-rule="evenodd" clip-rule="evenodd" d="M41.6378 95.8339C41.5249 96.0214 41.4261 96.0883 41.6942 96.1955C41.8917 96.2759 42.1598 96.2625 42.3714 96.2223C42.7806 96.1419 43.2886 95.7937 42.9923 95.5526C42.837 95.432 42.4702 95.2178 42.2162 95.2044C41.7224 95.1776 41.0875 95.5928 41.1439 95.8473H41.6378V95.8339Z" fill="#9CBDFF"/>
</g>
<g style="mix-blend-mode:multiply" opacity="0.58">
<path fill-rule="evenodd" clip-rule="evenodd" d="M57.511 100.093C57.638 99.9725 57.8073 99.7448 58.1318 99.785C58.4563 99.8251 58.4563 100.093 58.4281 100.227C58.3434 100.562 57.5815 100.214 57.6379 99.9859L57.511 100.093Z" fill="#9CBDFF"/>
</g>
<g style="mix-blend-mode:multiply" opacity="0.58">
<path fill-rule="evenodd" clip-rule="evenodd" d="M63.3102 102.236C63.1973 102.37 63.0986 102.49 63.155 102.638C63.2256 102.852 63.5078 102.932 63.8605 102.946C64.3967 102.946 64.7776 102.879 64.8905 102.557C64.961 102.356 64.7212 102.062 64.4814 101.928C64.3685 101.861 64.1991 101.834 64.0298 101.821C63.6912 101.807 63.536 101.955 63.3808 102.102L63.3244 102.249L63.3102 102.236Z" fill="#9CBDFF"/>
</g>
<g style="mix-blend-mode:multiply" opacity="0.58">
<path fill-rule="evenodd" clip-rule="evenodd" d="M80.7073 110.004C80.5803 110.058 80.4251 110.111 80.3827 110.205C80.3827 110.245 80.3827 110.312 80.3969 110.353C80.4815 110.567 81.0741 110.567 81.3704 110.567C82.1888 110.567 83.1201 110.419 83.7127 110.085C84.0936 109.87 84.4464 109.482 84.3194 109.174C84.1642 108.732 83.3458 108.491 82.6403 108.397C81.9913 108.317 81.06 108.29 80.552 108.584C80.3686 108.692 80.2135 108.826 80.1853 108.973C80.1711 109.093 80.2417 109.201 80.2417 109.321C80.2417 109.482 80.1006 109.616 80.2417 109.763C80.3404 109.87 80.4956 109.937 80.6649 109.991L80.7073 110.004Z" fill="#9CBDFF"/>
</g>
<g style="mix-blend-mode:multiply" opacity="0.58">
<path fill-rule="evenodd" clip-rule="evenodd" d="M85.5893 110.045C85.547 109.911 85.5611 109.898 85.6881 109.804C85.801 109.71 85.9421 109.67 86.1396 109.697C86.4501 109.737 86.6335 109.951 86.5065 110.112C86.4218 110.219 86.1679 110.273 85.9703 110.286C85.7305 110.286 85.533 110.206 85.4624 110.072L85.5893 110.031V110.045Z" fill="#9CBDFF"/>
</g>
<g style="mix-blend-mode:multiply" opacity="0.58">
<path fill-rule="evenodd" clip-rule="evenodd" d="M91.882 99.8385C91.5434 99.9322 91.4305 99.959 91.2471 100.133C91.1624 100.213 91.1201 100.28 91.1907 100.374C91.3741 100.615 91.8961 100.856 92.3053 100.937C92.6016 101.004 93.0108 100.99 93.2789 100.897C93.5187 100.816 93.7304 100.642 93.9138 100.522C94.0831 100.414 94.2383 100.294 94.3935 100.173C94.6616 99.959 94.8591 99.7179 94.591 99.4768C94.3512 99.2625 93.8433 99.0884 93.3918 99.1018C93.0249 99.1152 92.7991 99.1821 92.4887 99.2759C92.1924 99.3697 91.9243 99.4232 91.8679 99.8385H91.882Z" fill="#9CBDFF"/>
</g>
<g style="mix-blend-mode:multiply" opacity="0.58">
<path fill-rule="evenodd" clip-rule="evenodd" d="M90.2314 100.896C90.4854 100.896 90.7111 100.95 90.9369 101.004C90.9369 101.071 91.0639 101.097 91.0215 101.178C90.951 101.285 90.6546 101.258 90.5135 101.245C90.3301 101.245 90.1467 101.191 90.0197 101.124C89.9774 101.097 89.7658 100.977 89.9351 100.963L90.2455 100.896H90.2314Z" fill="#9CBDFF"/>
</g>
<g style="mix-blend-mode:multiply" opacity="0.58">
<path fill-rule="evenodd" clip-rule="evenodd" d="M68.192 109.134C68.0368 109.294 67.8675 109.469 68.1355 109.643C68.3895 109.803 68.8693 109.763 69.1656 109.696C69.3208 109.656 69.5183 109.602 69.5324 109.495C69.5606 109.388 69.5324 109.268 69.5324 109.16C69.5324 108.893 69.9981 108.705 69.5889 108.451C69.4196 108.343 69.0527 108.263 68.7987 108.29C68.3331 108.343 68.1073 108.625 67.938 108.852L68.1779 109.134H68.192Z" fill="#9CBDFF"/>
</g>
<g style="mix-blend-mode:multiply" opacity="0.58">
<path fill-rule="evenodd" clip-rule="evenodd" d="M31.2106 118.871C30.6745 118.938 30.2229 119.086 29.8419 119.3V119.421C29.7291 119.621 29.7009 119.836 29.8843 120.037C30.4346 120.639 31.521 120.559 32.4946 120.559C33.5528 120.559 34.8933 120.626 34.4135 119.782C34.1878 119.394 33.8915 118.764 33.2707 118.523C32.9461 118.389 32.7768 118.456 32.4523 118.523C32.0572 118.603 31.521 118.697 31.1965 118.871H31.2106Z" fill="#9CBDFF"/>
</g>
<g style="mix-blend-mode:multiply" opacity="0.58">
<path fill-rule="evenodd" clip-rule="evenodd" d="M43.2885 119.822C43.4437 119.662 43.6836 119.34 44.1069 119.313C44.4455 119.287 44.5584 119.407 44.7983 119.501C45.3344 119.715 45.8424 120.01 45.3062 120.412C45.0663 120.586 44.502 120.706 44.1069 120.666C43.7542 120.626 43.1615 120.385 43.2885 120.144V119.822Z" fill="#9CBDFF"/>
</g>
<g style="mix-blend-mode:multiply" opacity="0.58">
<path fill-rule="evenodd" clip-rule="evenodd" d="M93.8294 66.6348C93.4344 67.0902 93.4061 67.1304 93.6319 67.5858C93.8012 67.934 93.9141 68.3358 94.3797 68.6037C94.9865 68.9654 95.8189 68.885 96.5808 68.9787C97.1735 69.0591 97.5261 69.0725 98.0341 68.8448C98.5279 68.6171 99.0359 68.2689 99.3463 67.9474C100.376 66.9027 100.32 65.3758 99.5016 64.3042C98.9654 63.6078 98.147 62.7907 96.7643 62.5764C95.6073 62.3889 94.2668 62.5362 93.4485 63.0586C92.616 63.581 92.4043 64.331 92.6583 65.0007C92.743 65.1615 92.8136 65.3222 92.8841 65.4829C92.9265 65.6838 92.9405 65.8981 92.9123 66.0991C92.9405 66.3134 93.1663 66.5143 93.8294 66.6348Z" fill="#9CBDFF"/>
</g>
<g style="mix-blend-mode:multiply" opacity="0.58">
<path fill-rule="evenodd" clip-rule="evenodd" d="M91.6281 68.4297C92.39 68.7779 92.2771 68.7244 92.4041 69.1664C92.4606 69.3673 92.5876 69.4074 92.517 69.595C92.4324 69.8227 91.8539 70.0504 91.4447 70.0236C91.1202 70.0102 90.6122 69.6485 90.4852 69.5146C90.2877 69.3003 90.3582 69.1798 90.5416 68.9655L91.6422 68.4431L91.6281 68.4297Z" fill="#9CBDFF"/>
</g>
<g style="mix-blend-mode:multiply" opacity="0.58">
<path fill-rule="evenodd" clip-rule="evenodd" d="M14.5472 68.3227C14.3779 68.7111 14.1662 69.1665 14.8999 69.421C15.4079 69.5951 16.1698 69.421 16.6072 69.2201C17.2281 68.9388 17.9053 68.2423 18.0182 67.7869C18.1311 67.2913 17.1152 66.7824 16.325 66.7288C14.7448 66.6216 13.8981 68.0682 13.8135 68.7379L14.5472 68.3093V68.3227Z" fill="#9CBDFF"/>
</g>
<g style="mix-blend-mode:multiply" opacity="0.58">
<path fill-rule="evenodd" clip-rule="evenodd" d="M13.4466 72.5548C13.3619 72.4476 12.981 72.1395 13.0374 72.0056C13.0656 71.9386 13.1927 71.9253 13.2491 71.8851C13.4466 71.6976 13.6583 71.5368 14.0392 71.4967C14.8153 71.4163 15.4501 71.577 15.8311 71.9788C16.0851 72.2333 16.0851 72.5012 15.7183 72.7155C15.3091 72.9566 14.4202 73.0637 13.9969 72.7691L13.4466 72.5548Z" fill="#9CBDFF"/>
</g>
<g style="mix-blend-mode:multiply" opacity="0.58">
<path fill-rule="evenodd" clip-rule="evenodd" d="M83.5716 121.51C83.0355 122.153 83.106 122.876 83.3459 123.573C83.5011 124.028 83.614 124.617 84.4464 124.818C86.4077 125.287 87.9033 122.863 88.2843 122.086C88.5947 121.443 88.7075 120.68 88.51 120.023C88.383 119.621 87.8328 118.804 87.1555 118.604C86.2666 118.336 85.2789 118.657 84.7286 119.072C83.487 119.997 83.8115 121.189 83.233 122.247L83.5999 121.51H83.5716Z" fill="#9CBDFF"/>
</g>
<g style="mix-blend-mode:multiply" opacity="0.58">
<path fill-rule="evenodd" clip-rule="evenodd" d="M82.5698 121.349C82.3723 121.363 81.4692 121.416 81.1729 121.523C80.9612 121.604 80.6085 121.738 80.552 121.885C80.4674 122.086 80.7214 122.3 80.9613 122.434C81.1165 122.514 81.4269 122.608 81.6526 122.555C81.8361 122.514 81.9772 122.367 82.09 122.287C82.2876 122.126 82.4287 121.952 82.5698 121.764C82.6403 121.684 82.7249 121.604 82.7531 121.51C82.7955 121.363 82.6262 121.309 82.5698 121.188V121.349Z" fill="#9CBDFF"/>
</g>
<g style="mix-blend-mode:multiply" opacity="0.58">
<path fill-rule="evenodd" clip-rule="evenodd" d="M109.731 54.6472C109.223 54.8481 108.235 55.1294 108.405 55.5714C108.475 55.7857 108.701 55.9598 108.8 56.1607C108.898 56.3348 108.955 56.5223 108.983 56.7099C109.025 56.9643 109.251 57.3528 109.561 57.5403C109.801 57.6876 110.041 57.5403 110.211 57.393C110.38 57.2456 110.563 57.0849 110.577 56.8974C110.591 56.6563 110.62 56.4286 110.718 56.1875C110.761 56.0937 110.874 56.0134 110.916 55.9196C110.958 55.7991 110.944 55.6651 110.944 55.5312C110.93 55.2633 110.577 54.7409 109.717 54.6338L109.731 54.6472Z" fill="#9CBDFF"/>
</g>
<g style="mix-blend-mode:multiply" opacity="0.58">
<path fill-rule="evenodd" clip-rule="evenodd" d="M107.643 58.3706C107.572 58.25 107.614 58.1429 107.756 58.0625C108.518 58.0625 108.786 58.9331 108.066 59.1072C107.248 59.2947 107.135 58.6518 107.389 58.3706H107.629H107.643Z" fill="#9CBDFF"/>
</g>
<g style="mix-blend-mode:multiply" opacity="0.58">
<path fill-rule="evenodd" clip-rule="evenodd" d="M113.146 67.2644C113.272 67.1439 113.442 66.9162 113.766 66.9564C114.091 66.9965 114.091 67.2644 114.063 67.3983C113.978 67.7332 113.216 67.385 113.272 67.1573L113.146 67.2644Z" fill="#9CBDFF"/>
</g>
<g style="mix-blend-mode:multiply" opacity="0.58">
<path fill-rule="evenodd" clip-rule="evenodd" d="M118.945 69.4209C118.832 69.5549 118.733 69.6754 118.789 69.8228C118.86 70.0371 119.142 70.1174 119.495 70.1308C120.031 70.1308 120.412 70.0638 120.525 69.7424C120.595 69.5415 120.355 69.2468 120.116 69.1129C120.003 69.0459 119.833 69.0191 119.664 69.0057C119.325 68.9923 119.17 69.1397 119.015 69.287L118.959 69.4209H118.945Z" fill="#9CBDFF"/>
</g>
<g style="mix-blend-mode:multiply" opacity="0.58">
<path fill-rule="evenodd" clip-rule="evenodd" d="M136.342 77.1893C136.215 77.2429 136.059 77.2965 136.017 77.3902C136.017 77.4304 136.017 77.4974 136.031 77.5376C136.116 77.7519 136.708 77.7519 137.005 77.7519C137.823 77.7519 138.754 77.6045 139.347 77.2697C139.728 77.0554 140.081 76.6669 139.954 76.3589C139.798 75.9169 138.98 75.6758 138.275 75.582C137.626 75.5017 136.694 75.4749 136.186 75.7695C136.003 75.8767 135.848 76.0106 135.82 76.158C135.805 76.2785 135.876 76.3857 135.876 76.5062C135.876 76.6669 135.735 76.8009 135.876 76.9482C135.975 77.0554 136.13 77.1223 136.299 77.1759L136.342 77.1893Z" fill="#9CBDFF"/>
</g>
<g style="mix-blend-mode:multiply" opacity="0.58">
<path fill-rule="evenodd" clip-rule="evenodd" d="M141.224 77.2294C141.181 77.0955 141.195 77.0821 141.322 76.9883C141.435 76.8946 141.576 76.8544 141.774 76.8812C142.084 76.9214 142.268 77.1357 142.141 77.2964C142.056 77.4036 141.802 77.4571 141.619 77.4705C141.379 77.4705 141.181 77.3902 141.111 77.2562L141.238 77.216L141.224 77.2294Z" fill="#9CBDFF"/>
</g>
<g style="mix-blend-mode:multiply" opacity="0.58">
<path fill-rule="evenodd" clip-rule="evenodd" d="M98.4855 16.7691C98.1469 16.8629 98.034 16.8897 97.8506 17.0638C97.7659 17.1442 97.7236 17.2111 97.7942 17.3049C97.9776 17.546 98.4996 17.7871 98.9088 17.8674C99.2051 17.9344 99.6143 17.921 99.8824 17.8272C100.122 17.7469 100.334 17.5728 100.517 17.4522C100.687 17.3451 100.842 17.2245 100.997 17.104C101.265 16.8897 101.463 16.6486 101.195 16.4075C100.955 16.1932 100.447 16.0191 99.9953 16.0325C99.6284 16.0459 99.4026 16.1128 99.0922 16.2066C98.7959 16.3003 98.5278 16.3539 98.4714 16.7691H98.4855Z" fill="#9CBDFF"/>
</g>
<g style="mix-blend-mode:multiply" opacity="0.58">
<path fill-rule="evenodd" clip-rule="evenodd" d="M96.8347 17.814C97.0886 17.814 97.3144 17.8675 97.5402 17.9211C97.5402 17.9881 97.6671 18.0149 97.6248 18.0952C97.5543 18.2024 97.258 18.1756 97.1169 18.1622C96.9335 18.1622 96.75 18.1086 96.623 18.0417C96.5807 18.0149 96.369 17.8943 96.5383 17.8809L96.8488 17.814H96.8347Z" fill="#9CBDFF"/>
</g>
<g style="mix-blend-mode:multiply" opacity="0.58">
<path fill-rule="evenodd" clip-rule="evenodd" d="M123.826 76.3051C123.671 76.4658 123.502 76.6399 123.77 76.8141C124.024 76.9748 124.504 76.9346 124.8 76.8676C124.955 76.8274 125.153 76.7739 125.167 76.6667C125.195 76.5596 125.167 76.439 125.167 76.3319C125.167 76.064 125.632 75.8765 125.223 75.622C125.054 75.5148 124.687 75.4345 124.433 75.4612C123.968 75.5148 123.742 75.7961 123.573 76.0238L123.812 76.3051H123.826Z" fill="#9CBDFF"/>
</g>
<g style="mix-blend-mode:multiply" opacity="0.58">
<path fill-rule="evenodd" clip-rule="evenodd" d="M98.9228 87.0069C99.078 86.8462 99.3179 86.5247 99.7412 86.4979C100.08 86.4711 100.193 86.5917 100.433 86.6855C100.969 86.8998 101.477 87.1944 100.94 87.5962C100.701 87.7704 100.136 87.8909 99.7412 87.8507C99.3884 87.8105 98.7958 87.5694 98.9228 87.3284V87.0069Z" fill="#9CBDFF"/>
</g>
<g style="mix-blend-mode:multiply" opacity="0.58">
<path fill-rule="evenodd" clip-rule="evenodd" d="M139.206 88.6946C138.67 89.3375 138.74 90.0608 138.98 90.7573C139.135 91.2127 139.234 91.802 140.081 92.0029C142.042 92.4717 143.538 90.0474 143.919 89.2705C144.229 88.6276 144.342 87.8642 144.144 87.2079C144.017 86.8061 143.467 86.0024 142.79 85.7881C141.901 85.5202 140.913 85.8417 140.363 86.2569C139.121 87.1811 139.446 88.3732 138.867 89.4313L139.234 88.6946H139.206Z" fill="#9CBDFF"/>
</g>
<g style="mix-blend-mode:multiply" opacity="0.58">
<path fill-rule="evenodd" clip-rule="evenodd" d="M138.204 88.5338C138.007 88.5472 137.104 88.6007 136.807 88.7079C136.596 88.7883 136.243 88.9222 136.187 89.0695C136.102 89.2704 136.356 89.4848 136.596 89.6187C136.751 89.6991 137.061 89.7928 137.287 89.7392C137.47 89.6991 137.612 89.5517 137.724 89.4714C137.922 89.3106 138.063 89.1365 138.204 88.949C138.261 88.8686 138.359 88.7883 138.388 88.6945C138.43 88.5472 138.261 88.4936 138.204 88.373V88.5338Z" fill="#9CBDFF"/>
</g>
<g style="mix-blend-mode:multiply" opacity="0.58">
<path fill-rule="evenodd" clip-rule="evenodd" d="M94.2808 116.648C94.4077 116.527 94.5771 116.299 94.9016 116.34C95.2261 116.38 95.2261 116.648 95.1978 116.782C95.1132 117.117 94.3513 116.768 94.4077 116.541L94.2808 116.648Z" fill="#9CBDFF"/>
</g>
<g style="mix-blend-mode:multiply" opacity="0.58">
<path fill-rule="evenodd" clip-rule="evenodd" d="M100.08 118.804C99.9669 118.938 99.8681 119.059 99.9246 119.206C99.9951 119.42 100.277 119.501 100.63 119.514C101.166 119.514 101.547 119.447 101.66 119.126C101.731 118.925 101.491 118.63 101.251 118.496C101.138 118.429 100.969 118.402 100.799 118.389C100.461 118.376 100.305 118.523 100.15 118.67L100.094 118.804H100.08Z" fill="#9CBDFF"/>
</g>
<g style="mix-blend-mode:multiply" opacity="0.58">
<path fill-rule="evenodd" clip-rule="evenodd" d="M117.477 126.573C117.35 126.626 117.195 126.68 117.153 126.774C117.153 126.814 117.153 126.881 117.167 126.921C117.251 127.135 117.844 127.135 118.14 127.135C118.959 127.135 119.89 126.988 120.482 126.653C120.863 126.439 121.216 126.05 121.089 125.742C120.934 125.3 120.116 125.059 119.41 124.965C118.761 124.885 117.83 124.858 117.322 125.153C117.138 125.26 116.983 125.394 116.955 125.541C116.941 125.662 117.011 125.769 117.011 125.89C117.011 126.05 116.87 126.184 117.011 126.332C117.11 126.439 117.265 126.506 117.435 126.559L117.477 126.573Z" fill="#9CBDFF"/>
</g>
<g style="mix-blend-mode:multiply" opacity="0.58">
<path fill-rule="evenodd" clip-rule="evenodd" d="M122.359 126.613C122.317 126.479 122.331 126.466 122.458 126.372C122.571 126.278 122.712 126.238 122.909 126.265C123.22 126.305 123.403 126.519 123.276 126.68C123.191 126.787 122.937 126.841 122.754 126.854C122.514 126.854 122.317 126.774 122.246 126.64L122.373 126.6L122.359 126.613Z" fill="#9CBDFF"/>
</g>
<g style="mix-blend-mode:multiply" opacity="0.58">
<path fill-rule="evenodd" clip-rule="evenodd" d="M104.962 125.689C104.807 125.85 104.637 126.024 104.905 126.198C105.159 126.359 105.639 126.318 105.935 126.251C106.091 126.211 106.288 126.158 106.302 126.051C106.33 125.943 106.302 125.823 106.302 125.716C106.302 125.448 106.768 125.26 106.359 125.006C106.189 124.899 105.822 124.818 105.568 124.845C105.103 124.899 104.877 125.18 104.708 125.408L104.948 125.689H104.962Z" fill="#9CBDFF"/>
</g>
<g style="mix-blend-mode:multiply" opacity="0.58">
<path fill-rule="evenodd" clip-rule="evenodd" d="M120.341 138.078C119.805 138.721 119.876 139.445 120.116 140.141C120.271 140.583 120.384 141.186 121.216 141.387C123.177 141.855 124.673 139.431 125.054 138.654C125.364 138.011 125.477 137.248 125.28 136.592C125.153 136.19 124.603 135.386 123.925 135.172C123.036 134.904 122.049 135.225 121.498 135.641C120.257 136.565 120.581 137.757 120.003 138.815L120.37 138.078H120.341Z" fill="#9CBDFF"/>
</g>
<g style="mix-blend-mode:multiply" opacity="0.58">
<path fill-rule="evenodd" clip-rule="evenodd" d="M119.34 137.918C119.142 137.931 118.239 137.985 117.943 138.092C117.731 138.172 117.378 138.306 117.322 138.453C117.237 138.654 117.491 138.869 117.731 139.002C117.886 139.083 118.197 139.177 118.422 139.123C118.606 139.083 118.747 138.936 118.86 138.855C119.057 138.694 119.198 138.52 119.34 138.333C119.396 138.252 119.495 138.172 119.523 138.078C119.565 137.931 119.396 137.877 119.34 137.757V137.918Z" fill="#9CBDFF"/>
</g>
<g style="mix-blend-mode:multiply" opacity="0.58">
<path fill-rule="evenodd" clip-rule="evenodd" d="M81.4692 127.256C81.695 127.31 81.9067 127.376 82.1324 127.43C82.0901 127.577 82.1888 127.752 81.9349 127.845C81.7656 127.912 81.2999 127.912 81.1024 127.872C80.8202 127.805 80.6367 127.685 80.6367 127.51C80.6367 127.31 80.9613 127.229 81.2858 127.189L81.4692 127.243V127.256Z" fill="#9CBDFF"/>
</g>
<g style="mix-blend-mode:multiply" opacity="0.58">
<path fill-rule="evenodd" clip-rule="evenodd" d="M51.077 135.225C50.9782 135.413 50.9358 135.547 51.1898 135.708C51.5708 135.922 52.1069 135.975 52.5302 135.788C53.1087 135.533 53.7436 134.957 53.5743 134.502C53.4756 134.221 52.8406 133.899 52.3468 134.06C52.1069 134.14 51.7542 134.261 51.5708 134.382C51.2321 134.596 51.1052 134.904 51.077 135.172V135.225Z" fill="#9CBDFF"/>
</g>
<g style="mix-blend-mode:multiply" opacity="0.58">
<path fill-rule="evenodd" clip-rule="evenodd" d="M75.3316 42.0571C75.1058 42.1776 74.9929 42.2178 74.9365 42.3919C74.88 42.5794 74.8377 42.7669 75.0353 42.9411C75.4162 43.2893 76.3615 43.517 77.0388 43.6108C77.6596 43.6911 78.1394 43.6509 78.6473 43.4366C79.2258 43.1955 79.5785 42.9009 79.6773 42.4991C79.7761 42.0705 79.635 41.7624 79.0001 41.5079C78.4921 41.307 77.8008 41.0659 77.1799 41.0123C76.6015 40.9588 76.2064 41.0525 75.769 41.2668C75.3739 41.4543 74.866 41.8026 75.3316 42.0571Z" fill="#9CBDFF"/>
</g>
<g style="mix-blend-mode:multiply" opacity="0.58">
<path fill-rule="evenodd" clip-rule="evenodd" d="M80.4674 43.3694C80.4674 43.2622 80.4392 43.1283 80.6508 43.1015C80.9189 43.0613 81.3987 43.2087 81.5821 43.3158C81.7232 43.3962 81.8784 43.6105 81.8502 43.731C81.822 43.8248 81.6526 43.9185 81.5256 43.9721C81.2858 44.0659 81.0177 44.0927 80.7779 43.9989C80.6227 43.9453 80.2134 43.8248 80.284 43.6774L80.4674 43.356V43.3694Z" fill="#9CBDFF"/>
</g>
<g style="mix-blend-mode:multiply" opacity="0.58">
<path fill-rule="evenodd" clip-rule="evenodd" d="M64.8057 29.3863C64.8057 29.5872 64.8057 29.6944 64.9891 29.8551C65.2572 30.1096 65.6523 30.3239 66.0756 30.4846C66.6258 30.6855 67.3313 30.8462 68.0086 30.8195C68.4883 30.7927 68.9398 30.4846 69.0103 30.2301C69.095 29.9221 68.8833 29.4667 68.5588 29.2122C67.9239 28.73 66.7951 28.3282 65.7087 28.3818C64.4529 28.4487 64.4106 29.5202 64.7915 29.3863H64.8057Z" fill="#9CBDFF"/>
</g>
<g style="mix-blend-mode:multiply" opacity="0.58">
<path fill-rule="evenodd" clip-rule="evenodd" d="M70.2097 31.9178C70.0686 31.8509 69.9698 31.7571 69.9275 31.6633C70.1109 31.6098 70.1674 31.5026 70.3649 31.4624C70.5624 31.4223 70.8023 31.4624 70.9716 31.5026C71.2256 31.583 71.3949 31.7169 71.409 31.8777C71.4231 32.0652 71.2961 32.1053 71.0421 32.1857C70.8587 32.2393 70.8164 32.2661 70.6047 32.1991C70.4918 32.1723 70.3085 32.092 70.2238 32.0384V31.9312L70.2097 31.9178Z" fill="#9CBDFF"/>
</g>
</g>
<path fill-rule="evenodd" clip-rule="evenodd" d="M19.7111 29.3997L20.1062 22.8367C20.1062 22.8367 43.0061 4.4334 75.8957 0L80.4391 4.60753L83.5432 9.26862C83.5432 9.26862 55.4649 23.4127 37.3481 46.4235L39.4787 48.2317L59.1193 37.7174L78.4214 41.0659L78.0686 46.4235C78.0686 46.4235 54.9711 72.6488 28.9388 90.4494H10.4834L4.24694 51.6873L3.03345 44.0527L14.2225 31.6499L19.7111 29.3997Z" fill="url(#paint1_linear_1_6962)"/>
<path fill-rule="evenodd" clip-rule="evenodd" d="M133.378 18.1892C133.378 18.1892 116.263 21.5109 95.6775 40.5169L87.7761 43.3564C87.7761 43.3564 125.731 52.0223 139.036 58.1836L136.765 64.2778L149.266 75.435C149.266 75.435 142.832 97.5082 128.609 113.795L131.22 117.934C131.22 117.934 150.945 114.505 160.328 107.313L165.972 84.1812L162.585 82.7615C162.585 82.7615 160.638 33.9405 133.364 18.1758L133.378 18.1892Z" fill="url(#paint2_linear_1_6962)"/>
<path fill-rule="evenodd" clip-rule="evenodd" d="M55.6484 137.609L69.2501 125.89L105.709 127.845L102.154 136.457L108.545 138.199C108.545 138.199 97.7798 150.253 60.0647 146.717L55.6343 137.609H55.6484Z" fill="url(#paint3_linear_1_6962)"/>
<path fill-rule="evenodd" clip-rule="evenodd" d="M39.2249 143.557V148.325L57.0595 155.384L70.6612 153.053C70.6612 153.053 50.569 150.455 39.2249 143.57V143.557Z" fill="url(#paint4_linear_1_6962)"/>
<path fill-rule="evenodd" clip-rule="evenodd" d="M99.0215 150.722L104.679 143.556L120.003 132.533L132.095 133.323L138.077 139.083C138.077 139.083 127.904 153.213 105.272 161.987L99.0215 150.709V150.722Z" fill="url(#paint5_linear_1_6962)"/>
<path fill-rule="evenodd" clip-rule="evenodd" d="M100.63 29.5875C100.63 29.5875 107.981 10.8761 113.456 4.62114C113.456 4.62114 125.054 4.52738 130.825 12.403L124.151 18.5911C124.151 18.5911 114.782 19.0464 100.616 29.5741L100.63 29.5875Z" fill="url(#paint6_linear_1_6962)"/>
<g style="mix-blend-mode:soft-light">
<path fill-rule="evenodd" clip-rule="evenodd" d="M75.9099 0.0131836C75.9099 0.0131836 44.9815 23.4928 33.3975 45.2312L21.4184 60.3664L59.1335 37.7306L78.4355 41.0791C78.4355 41.0791 45.9128 74.055 23.8876 87.5159L10.4975 90.4626L3.04761 44.0525L15.2242 31.5694L16.9033 46.4367L20.1203 27.6315V22.8499C20.1203 22.8499 43.0203 3.60277 75.9099 0.0131836Z" fill="#A99AF4"/>
</g>
<path fill-rule="evenodd" clip-rule="evenodd" d="M105.286 162L118.874 142.86L138.105 139.096C138.105 139.096 129.414 153.133 105.3 162H105.286Z" fill="#573DAE"/>
<path fill-rule="evenodd" clip-rule="evenodd" d="M132.983 117.612L157.252 89.2976L166 84.1812L160.356 107.313C160.356 107.313 150.945 115.952 132.983 117.599V117.612Z" fill="#573DAE"/>
<path fill-rule="evenodd" clip-rule="evenodd" d="M118.86 125.595L134.719 118.751L139.587 121.872L132.984 128.944L118.563 130.631L118.86 125.595Z" fill="url(#paint7_linear_1_6962)"/>
<path fill-rule="evenodd" clip-rule="evenodd" d="M139.587 121.872L123.361 126.908L118.563 130.631L132.984 128.944L139.587 121.872Z" fill="#573DAE"/>
<g style="mix-blend-mode:multiply">
<path fill-rule="evenodd" clip-rule="evenodd" d="M37.3482 46.4367L21.4043 60.3664L33.3834 45.2312C33.3834 45.2312 53.4332 13.8224 75.8958 0.0131836L88.9896 8.71926C88.9896 8.71926 54.3927 25.2072 37.3341 46.4367H37.3482Z" fill="#A972B0"/>
</g>
<g style="mix-blend-mode:multiply">
<path fill-rule="evenodd" clip-rule="evenodd" d="M78.4356 41.0793L78.1958 44.6555L84.1924 45.2314C84.1924 45.2314 56.9043 75.5152 31.0836 90.7039L28.9531 90.4495L78.4356 41.0659V41.0793Z" fill="#A972B0"/>
</g>
<g style="mix-blend-mode:multiply">
<path fill-rule="evenodd" clip-rule="evenodd" d="M100.63 29.5873L126.253 20.0776L124.165 18.5909L130.839 12.4028C130.839 12.4028 115.6 12.6975 100.63 29.5739V29.5873Z" fill="#A972B0"/>
</g>
<g style="mix-blend-mode:multiply">
<path fill-rule="evenodd" clip-rule="evenodd" d="M139.051 58.1834L150.776 46.4369L123.488 48.2451L90.7393 44.0527L138.091 60.3666L139.051 58.1834Z" fill="#A972B0"/>
</g>
<path fill-rule="evenodd" clip-rule="evenodd" d="M63.9026 73.3452L94.6193 53.1069L125.604 57.8618V68.068L98.9086 82.1451L63.9026 73.3452Z" fill="url(#paint8_linear_1_6962)"/>
<path fill-rule="evenodd" clip-rule="evenodd" d="M59.1335 85.4668L64.2554 82.7612L77.3633 84.114L75.9382 89.2975L67.4159 90.7039L59.1335 85.4668Z" fill="url(#paint9_linear_1_6962)"/>
<g style="mix-blend-mode:soft-light">
<path fill-rule="evenodd" clip-rule="evenodd" d="M63.9026 73.3452L83.5573 74.7382L102.38 54.8348L94.6193 53.1069L63.9026 73.3452Z" fill="#A99AF4"/>
</g>
<g style="mix-blend-mode:soft-light" opacity="0.88">
<path fill-rule="evenodd" clip-rule="evenodd" d="M59.1335 85.4668L65.5253 88.2126L70.6894 85.4668L77.3633 84.114L64.2554 82.7612L59.1335 85.4668Z" fill="#A99AF4"/>
</g>
<g style="mix-blend-mode:multiply">
<path fill-rule="evenodd" clip-rule="evenodd" d="M83.5573 74.7381L99.0215 79.0643L125.604 68.0679L104.581 85.6006L63.9026 73.3451L83.5573 74.7381Z" fill="#A972B0"/>
</g>
<g style="mix-blend-mode:multiply">
<path fill-rule="evenodd" clip-rule="evenodd" d="M67.4158 90.7041L65.5251 88.2128L70.6892 85.467L77.3632 84.1143L80.0863 90.7041H67.4158Z" fill="#A972B0"/>
</g>
<path fill-rule="evenodd" clip-rule="evenodd" d="M161.287 70.7871L153.076 79.895L146.105 90.7039L161.287 79.895V70.7871Z" fill="#573DAE"/>
<path fill-rule="evenodd" clip-rule="evenodd" d="M106.796 138.092L102.154 136.444L105.709 127.832L71.1267 128.475L57.8213 139.029L60.0789 146.691C60.0789 146.691 73.61 150.562 86.2664 148.767C98.9228 146.972 106.81 138.078 106.81 138.078L106.796 138.092Z" fill="#5729AE"/>
<g style="mix-blend-mode:soft-light" opacity="0.88">
<path fill-rule="evenodd" clip-rule="evenodd" d="M69.2502 125.876L71.1267 128.488L57.8213 139.043L55.6484 137.61L69.2502 125.876Z" fill="#A99AF4"/>
</g>
<g style="mix-blend-mode:multiply">
<path fill-rule="evenodd" clip-rule="evenodd" d="M136.793 64.291L156.363 70.8273L149.294 75.4348L136.793 64.291Z" fill="#A972B0"/>
</g>
<path d="M10.5683 83.7929L10.4131 83.4982C10.7376 83.3375 43.1615 67.9076 53.9272 60.2329C63.7757 53.2145 67.4443 47.4417 68.0087 46.4907L60.2201 42.1243L6.97033 68.2023L6.80103 67.9076L60.2201 41.7358L68.4602 46.3568L68.3896 46.4907C68.3896 46.4907 64.9328 52.7725 54.1248 60.4874C43.3309 68.1755 10.8787 83.6322 10.5542 83.7795L10.5683 83.7929Z" fill="#00E7F4"/>
<path d="M9.03009 80.9935L8.86078 80.6988L30.6179 70.0239L49.5953 53.1341L47.6342 51.875L7.30875 70.3185L7.15356 70.0105L47.6764 51.5L50.1598 53.0939L50.0046 53.2278L30.8014 70.3051L9.03009 80.9935Z" fill="#00E7F4"/>
<path d="M6.50466 63.9295L6.23657 63.7152L38.1244 28.9847L68.1215 1.20557L68.3755 1.43326L38.3784 29.2124L6.50466 63.9295Z" fill="#00E7F4"/>
<path d="M4.98071 60.2327L14.1379 32.5474L14.4766 32.6411L5.98253 58.3307L23.7325 34.744L49.7507 6.58984L50.0047 6.80415L24.0006 34.9583L4.98071 60.2327Z" fill="#00E7F4"/>
<path d="M153.696 43.5174L129.724 42.928L103.353 38.5214V36.4186L103.438 36.3784L126.14 24.0961L139.573 22.5156L139.615 22.8505L126.225 24.4176L103.706 36.6195V38.2401L129.752 42.5932L153.696 43.1825V43.5174Z" fill="#00E7F4"/>
<path d="M130.839 39.646L115.558 37.878V36.3645L115.629 36.3109L127.707 26.7878L142.818 25.7163L142.846 26.0378L127.834 27.1227L115.911 36.5118V37.5834L130.867 39.3112L151.707 38.896V39.2308L130.839 39.646Z" fill="#00E7F4"/>
<path d="M160.314 67.5056L151.58 65.2554L151.552 65.175L148.236 57.8351L155.771 48.9014L156.053 49.1023L148.645 57.8887L151.834 64.9741L160.399 67.1707L160.314 67.5056Z" fill="#00E7F4"/>
<path d="M160.286 65.6573L155.77 63.9429L155.742 63.8759L154.204 59.255L154.247 59.1881L157.464 54.1787L157.76 54.3528L154.585 59.2952L156.053 63.7018L160.413 65.3359L160.286 65.6573Z" fill="#00E7F4"/>
<path d="M63.945 73.5194L63.8604 73.1846L90.711 67.4654L125.562 57.7012L125.661 58.0226L90.7956 67.7868L63.945 73.5194Z" fill="#00E7F4"/>
<path d="M99.0357 82.2524L98.7817 82.0247L105.357 75.301L125.505 62.9785L125.703 63.2598L105.554 75.5688L99.0357 82.2524Z" fill="#00E7F4"/>
<path d="M58.4987 138.695L58.4705 138.36L103.015 134.167L103.043 134.502L58.4987 138.695Z" fill="#00E7F4"/>
<path d="M105.272 129.051L75.9099 128.569V128.234L105.286 128.716L105.272 129.051Z" fill="#00E7F4"/>
<path fill-rule="evenodd" clip-rule="evenodd" d="M6.95602 109.737V118.938L12.7551 125.582C12.7551 125.582 27.2457 131.167 38.2512 130.618L33.9337 122.568L36.1206 118.938L6.94189 109.737H6.95602Z" fill="url(#paint10_linear_1_6962)"/>
<path fill-rule="evenodd" clip-rule="evenodd" d="M5.48877 102.37L10.9351 105.276H25.5527L28.558 100.361L8.49413 98.2446L5.48877 102.37Z" fill="url(#paint11_linear_1_6962)"/>
<g style="mix-blend-mode:soft-light">
<path fill-rule="evenodd" clip-rule="evenodd" d="M5.48877 102.37L12.7552 103.482L25.9054 102.37L28.558 100.361L8.49413 98.2446L5.48877 102.37Z" fill="#A99AF4"/>
</g>
<g style="mix-blend-mode:soft-light">
<path fill-rule="evenodd" clip-rule="evenodd" d="M6.95605 109.737V118.938L15.4783 123.894L28.5579 121.885L36.1348 118.938L6.95605 109.737Z" fill="#A99AF4"/>
</g>
<g style="mix-blend-mode:multiply">
<path fill-rule="evenodd" clip-rule="evenodd" d="M28.558 100.361L25.9054 102.37L10.9351 105.276L27.4575 106.656L28.558 100.361Z" fill="#A972B0"/>
</g>
<g style="mix-blend-mode:multiply">
<path fill-rule="evenodd" clip-rule="evenodd" d="M33.9337 122.568L23.8735 125.877L38.2513 130.631L36.1348 122.568V118.938L33.9337 122.568Z" fill="#A972B0"/>
</g>
<defs>
<radialGradient id="paint0_radial_1_6962" cx="0" cy="0" r="1" gradientUnits="userSpaceOnUse" gradientTransform="translate(61.6874 54.7142) scale(107.826 102.357)">
<stop stop-color="#B840C7"/>
<stop offset="0.7" stop-color="#750088"/>
<stop offset="0.95" stop-color="#5E1377"/>
<stop offset="1" stop-color="#8160FF"/>
</radialGradient>
<linearGradient id="paint1_linear_1_6962" x1="43.3024" y1="90.4494" x2="43.3024" y2="0.0133898" gradientUnits="userSpaceOnUse">
<stop stop-color="#4F0E6F"/>
<stop offset="1" stop-color="#450086"/>
</linearGradient>
<linearGradient id="paint2_linear_1_6962" x1="73924" y1="24013" x2="73924" y2="16583" gradientUnits="userSpaceOnUse">
<stop stop-color="#4F0E6F"/>
<stop offset="1" stop-color="#450086"/>
</linearGradient>
<linearGradient id="paint3_linear_1_6962" x1="48337.6" y1="5763.42" x2="48337.6" y2="5418.92" gradientUnits="userSpaceOnUse">
<stop stop-color="#4F0E6F"/>
<stop offset="1" stop-color="#450086"/>
</linearGradient>
<linearGradient id="paint4_linear_1_6962" x1="28120.1" y1="3318.72" x2="28120.1" y2="3214.41" gradientUnits="userSpaceOnUse">
<stop stop-color="#4F0E6F"/>
<stop offset="1" stop-color="#450086"/>
</linearGradient>
<linearGradient id="paint5_linear_1_6962" x1="36746.8" y1="8185.66" x2="36746.8" y2="7537.69" gradientUnits="userSpaceOnUse">
<stop stop-color="#4F0E6F"/>
<stop offset="1" stop-color="#450086"/>
</linearGradient>
<linearGradient id="paint6_linear_1_6962" x1="28386.6" y1="4362.76" x2="28386.6" y2="3897.38" gradientUnits="userSpaceOnUse">
<stop stop-color="#4F0E6F"/>
<stop offset="1" stop-color="#450086"/>
</linearGradient>
<linearGradient id="paint7_linear_1_6962" x1="20002.5" y1="3088.86" x2="20002.5" y2="2983.48" gradientUnits="userSpaceOnUse">
<stop stop-color="#4F0E6F"/>
<stop offset="1" stop-color="#450086"/>
</linearGradient>
<linearGradient id="paint8_linear_1_6962" x1="56920.7" y1="6261.46" x2="56920.7" y2="5631.91" gradientUnits="userSpaceOnUse">
<stop stop-color="#4F0E6F"/>
<stop offset="1" stop-color="#450086"/>
</linearGradient>
<linearGradient id="paint9_linear_1_6962" x1="16514.9" y1="1831.65" x2="16514.9" y2="1784.55" gradientUnits="userSpaceOnUse">
<stop stop-color="#4F0E6F"/>
<stop offset="1" stop-color="#450086"/>
</linearGradient>
<linearGradient id="paint10_linear_1_6962" x1="27256.7" y1="5339.96" x2="27256.7" y2="5013.2" gradientUnits="userSpaceOnUse">
<stop stop-color="#4F0E6F"/>
<stop offset="1" stop-color="#450086"/>
</linearGradient>
<linearGradient id="paint11_linear_1_6962" x1="19992.2" y1="1723.09" x2="19992.2" y2="1686.17" gradientUnits="userSpaceOnUse">
<stop stop-color="#4F0E6F"/>
<stop offset="1" stop-color="#450086"/>
</linearGradient>
</defs>
</svg>
