<svg width="167" height="153" viewBox="0 0 167 153" fill="none" xmlns="http://www.w3.org/2000/svg">
<path fill-rule="evenodd" clip-rule="evenodd" d="M165.59 76.5C165.59 118.745 128.818 153 83.4706 153C70.9783 153 59.1518 150.392 48.5589 145.759C46.4638 144.847 44.4274 143.843 42.4303 142.785C34.4611 138.499 27.3338 132.99 21.3423 126.533C19.1493 124.199 17.1326 121.718 15.2724 119.146C12.7466 115.644 10.5144 111.941 8.63469 108.038C3.955 98.4249 1.37048 87.7543 1.37048 76.5182C1.37048 65.2822 3.97462 54.5751 8.67389 44.9442C10.1816 41.8616 11.885 38.8702 13.8039 36.0247C17.9549 29.8412 23.0066 24.2596 28.8415 19.426C43.3505 7.33261 62.5001 0 83.4902 0C90.2062 0 96.7263 0.747845 102.972 2.17059C111.666 4.14055 119.792 7.38734 127.174 11.7103C128.603 12.5494 130.013 13.4249 131.383 14.3551C132.539 15.1212 133.655 15.9238 134.751 16.7446C140.136 20.7575 144.953 25.3723 149.104 30.5161C157.758 41.2049 163.456 54.0461 165.101 68.0365C165.434 70.809 165.61 73.6363 165.61 76.5182L165.59 76.5Z" fill="url(#paint0_radial_1_7061)"/>
<path fill-rule="evenodd" clip-rule="evenodd" d="M157.034 33.7812L154.058 37.411L152.981 35.7876C152.981 35.7876 50.5954 22.4722 6.77476 48.5194L3.64197 47.6074H3.66157L7.36227 41.734C7.36227 41.734 30.976 26.558 86.3098 27.8713C86.3098 27.8713 68.4526 22.5269 21.2054 26.6492L21.4013 20.6299C21.4013 20.6299 58.7017 -2.93663 126.391 7.18677C126.391 7.18677 147.694 18.1127 157.034 33.7812Z" fill="url(#paint1_radial_1_7061)"/>
<path fill-rule="evenodd" clip-rule="evenodd" d="M2.64314 90.4177L0.078125 95.2696L8.65429 112.27C8.65429 112.27 76.9308 79.9295 165.238 72.3962L167 69.2406L166.276 60.4305C166.276 60.4305 93.1431 59.0443 2.62354 90.4177H2.64314Z" fill="url(#paint2_radial_1_7061)"/>
<path fill-rule="evenodd" clip-rule="evenodd" d="M23.4376 133.611C23.4376 133.611 82.9813 111.376 163.397 105.521L160.95 112.269C160.95 112.269 93.1435 114.987 31.5831 140.396L23.4572 133.611H23.4376Z" fill="url(#paint3_radial_1_7061)"/>
<path fill-rule="evenodd" clip-rule="evenodd" d="M31.5634 140.396C31.5634 140.396 37.085 137.696 49.1465 133.811C49.1465 133.811 94.984 137.933 157.034 118.963L150.944 130.309C150.944 130.309 115.563 145.12 64.1645 151.121C64.1645 151.121 49.2248 151.96 31.5438 140.378L31.5634 140.396Z" fill="url(#paint4_radial_1_7061)"/>
<path fill-rule="evenodd" clip-rule="evenodd" d="M157.034 33.7812L154.058 37.4111L152.981 35.7877C152.981 35.7877 50.5954 22.4722 6.77476 48.5194L3.64197 47.6074H3.66157C4.87554 46.896 50.8892 21.7791 157.034 33.7812Z" fill="#005EFF"/>
<path fill-rule="evenodd" clip-rule="evenodd" d="M21.4012 20.6299C21.4012 20.6299 69.3533 20.9217 96.0608 27.8713H86.3097C86.3097 27.8713 64.8693 22.6363 21.2053 26.6492L21.4012 20.6299Z" fill="#005EFF"/>
<path fill-rule="evenodd" clip-rule="evenodd" d="M8.6739 112.288C8.6739 112.288 95.6299 70.7544 165.688 69.3682L165.238 72.4143C165.238 72.4143 104.97 73.5634 8.6543 112.288H8.6739Z" fill="#005EFF"/>
<path fill-rule="evenodd" clip-rule="evenodd" d="M157.034 118.982L152.393 118.088C152.393 118.088 117.423 133.136 47.7756 134.249C47.7756 134.249 120.36 137.477 157.034 118.982Z" fill="#005EFF"/>
<path d="M151.61 26.7952C106.987 8.62777 22.2823 20.7211 21.4403 20.8488L21.3619 20.3928C22.2235 20.2651 107.045 8.15353 151.806 26.3756L151.61 26.7952Z" fill="#00E7F4"/>
<path d="M145.658 20.8486C119.968 12.0932 45.8764 11.2724 45.1128 11.2724V10.8164C45.8568 10.8164 120.066 11.6372 145.814 20.4291L145.638 20.8486H145.658Z" fill="#00E7F4"/>
<path d="M140.665 16.0334C126.782 8.19005 97.9991 5.03448 97.7054 4.998L97.7642 4.54199C98.0579 4.57847 126.939 7.73406 140.919 15.6321L140.665 16.0152V16.0334Z" fill="#00E7F4"/>
<path d="M8.79161 112.47L8.51746 112.087C9.14402 111.704 72.31 73.7274 140.723 61.251L140.821 61.707C72.4862 74.1651 9.39858 112.105 8.77201 112.488L8.79161 112.47Z" fill="#00E7F4"/>
<path d="M0.176156 95.4881L0 95.0685C0.411186 94.9226 42.1172 80.5675 97.686 66.3765L97.823 66.8142C42.2737 80.987 0.587341 95.3421 0.176156 95.4881Z" fill="#00E7F4"/>
<defs>
<radialGradient id="paint0_radial_1_7061" cx="0" cy="0" r="1" gradientUnits="userSpaceOnUse" gradientTransform="translate(65.9462 51.4743) scale(112.9 105.174)">
<stop stop-color="#0683EA"/>
<stop offset="0.6" stop-color="#0BB3F6"/>
<stop offset="1" stop-color="#F2F4FF"/>
</radialGradient>
<radialGradient id="paint1_radial_1_7061" cx="0" cy="0" r="1" gradientUnits="userSpaceOnUse" gradientTransform="translate(61.0122 26.8499) scale(156.779 146.05)">
<stop stop-color="#7738A4"/>
<stop offset="1" stop-color="#450086"/>
</radialGradient>
<radialGradient id="paint2_radial_1_7061" cx="0" cy="0" r="1" gradientUnits="userSpaceOnUse" gradientTransform="translate(92149.3 4345.16) scale(13365.4 4151.49)">
<stop stop-color="#7738A4"/>
<stop offset="1" stop-color="#450086"/>
</radialGradient>
<radialGradient id="paint3_radial_1_7061" cx="0" cy="0" r="1" gradientUnits="userSpaceOnUse" gradientTransform="translate(77288.3 2987.64) scale(11206.6 2792.48)">
<stop stop-color="#7738A4"/>
<stop offset="1" stop-color="#450086"/>
</radialGradient>
<radialGradient id="paint4_radial_1_7061" cx="0" cy="0" r="1" gradientUnits="userSpaceOnUse" gradientTransform="translate(69308.3 2794.32) scale(9996.54 2562.75)">
<stop stop-color="#7738A4"/>
<stop offset="1" stop-color="#450086"/>
</radialGradient>
</defs>
</svg>
