<svg width="165" height="152" viewBox="0 0 165 152" fill="none" xmlns="http://www.w3.org/2000/svg">
<path d="M83.542 91.1029C77.1163 91.1029 70.3171 93.3234 65.6846 98.4782L73.8288 105.695C77.1163 102.364 79.9556 101.492 82.7201 101.492C86.8295 101.492 89.071 103.474 89.071 106.25V106.884H78.9095C75.622 106.884 72.708 107.519 70.3918 108.867C67.2537 110.691 65.311 113.943 65.311 118.463C65.311 126.473 71.2884 131.945 79.582 131.945C82.2718 131.945 86.2318 131.389 89.2205 127.186L89.9676 131.072H100.279V106.25C100.279 96.9714 94.0024 91.1029 83.542 91.1029ZM81.3752 122.349C78.1624 122.349 76.5933 120.683 76.5933 118.701C76.5933 117.749 76.9669 116.956 77.7141 116.401C78.3865 115.925 79.3578 115.687 80.5533 115.687H89.071C88.8469 119.573 85.4099 122.349 81.3752 122.349ZM109.876 131.072H121.158V101.254H128.48V91.9752H121.158V88.5651C121.158 86.5032 121.606 84.8378 123.474 84.8378C124.445 84.8378 125.416 85.3137 126.313 85.7895L129.9 76.6695C127.658 75.6385 125.491 74.9248 122.204 74.9248C115.703 74.9248 109.95 77.6211 109.95 88.4858V91.9752H103.3V101.254H109.876V131.072ZM163.851 111.881C163.851 99.8264 157.799 91.1029 146.293 91.1029C133.143 91.1029 128.137 101.968 128.137 111.722C128.137 121.794 133.292 131.945 146.891 131.945C153.391 131.945 158.621 129.328 162.506 124.649L154.736 117.353C152.644 120.049 149.73 121.159 146.965 121.159C142.109 121.159 139.867 118.78 139.419 115.687H163.627C163.777 114.022 163.851 112.991 163.851 111.881ZM139.269 106.884C139.718 104.347 141.436 101.016 146.143 101.016C149.879 101.016 152.943 103.236 153.092 106.884H139.269ZM152.943 108.391L153.017 108.312L152.943 108.391Z" fill="#F7F7F7"/>
<path d="M23.8232 53.3513H39.0731C41.5782 53.3513 43.6943 52.4607 45.4211 50.6794C47.1723 48.8724 48.0479 46.3296 48.0479 43.051C48.0479 40.5986 47.1358 38.4043 45.3117 36.4682C43.4875 34.5062 41.408 33.5252 39.0731 33.5252H16.5267V83.71H13.8999V30.7371H39.0731C42.1377 30.7371 44.8374 31.9893 47.1723 34.4933C49.5072 36.9973 50.6746 39.85 50.6746 43.051C50.6746 47.0008 49.5437 50.1761 47.2817 52.5769C45.0198 54.9518 42.2836 56.1394 39.0731 56.1394H23.8232V53.3513ZM23.8232 58.9274H39.0731C41.6025 58.9274 43.9374 58.2821 46.0778 56.9913C48.2425 55.6747 49.9815 53.7901 51.2949 51.3378C52.6326 48.8853 53.3014 46.1231 53.3014 43.051C53.3014 39.0755 51.8665 35.5647 48.9964 32.5184C46.1508 29.4722 42.843 27.9491 39.0731 27.9491H11.2731V83.71H8.64636V25.1612H39.0731C42.0161 25.1612 44.7888 25.9871 47.3912 27.6394C49.9937 29.2916 52.061 31.4988 53.5933 34.261C55.1499 37.0232 55.9282 39.9532 55.9282 43.051C55.9282 46.5619 55.1499 49.763 53.5933 52.6543C52.0367 55.5197 49.9693 57.7528 47.3912 59.3533C44.8374 60.9281 42.0647 61.7154 39.0731 61.7154H23.8232V58.9274ZM23.8232 64.5035H39.0731C41.6756 64.5035 44.1685 63.9614 46.5521 62.8771C48.9356 61.7671 51.003 60.2827 52.7541 58.424C54.5297 56.5395 55.9403 54.2677 56.9862 51.6088C58.0321 48.924 58.555 46.0714 58.555 43.051C58.555 39.4369 57.6672 36.0423 55.8917 32.8669C54.1162 29.6659 51.7205 27.1231 48.7046 25.2386C45.713 23.3282 42.5025 22.3731 39.0731 22.3731H6.01959V83.71H3.39282V19.585H39.0731C42.9646 19.585 46.6129 20.6692 50.0179 22.8378C53.4231 24.9804 56.135 27.8588 58.1537 31.4729C60.1724 35.0871 61.1817 38.9465 61.1817 43.051C61.1817 46.7168 60.5858 50.0986 59.3941 53.1965C58.2023 56.2684 56.5971 58.8241 54.5784 60.8635C52.5596 62.903 50.2125 64.4906 47.5371 65.6264C44.8617 66.7365 42.0404 67.2916 39.0731 67.2916H23.8232V64.5035ZM21.7802 83.71H19.1534V36.3133H39.0731C40.7999 36.3133 42.2836 36.9844 43.524 38.3269C44.7888 39.6692 45.4211 41.244 45.4211 43.051C45.4211 48.0592 43.3051 50.5632 39.0731 50.5632H23.8232V47.7752H39.0731C40.2405 47.7752 41.1526 47.4267 41.8094 46.7297C42.466 46.0327 42.7944 44.8065 42.7944 43.051C42.7944 41.9152 42.4295 40.9729 41.6999 40.2242C40.9945 39.4756 40.119 39.1013 39.0731 39.1013H21.7802V83.71Z" fill="url(#paint0_linear_1_4150)"/>
<path d="M45.4416 92.0396H41.0272C39.1544 92.0396 37.8045 91.5362 36.9775 90.5294C36.1506 89.4968 35.7371 88.1415 35.7371 86.4635C35.7371 82.7461 38.3517 80.8874 43.581 80.8874C48.494 80.8874 52.191 81.6619 54.6718 83.2108L52.5557 84.9147C50.8532 84.0886 47.8616 83.6755 43.581 83.6755C41.4893 83.6755 40.0786 83.9207 39.349 84.4112C38.6436 84.9017 38.2909 85.5858 38.2909 86.4635C38.2909 87.3413 38.4855 88.0254 38.8746 88.5159C39.2638 89.0063 39.9813 89.2515 41.0272 89.2515H45.551C48.8345 89.2515 51.7896 89.8453 54.4164 91.0328C57.0675 92.2204 59.2442 93.8467 60.9468 95.9119C62.6494 97.9513 63.9506 100.313 64.8505 102.998C65.7504 105.657 66.2004 108.51 66.2004 111.556C66.2004 114.034 65.8721 116.383 65.2154 118.604C64.5586 120.823 63.5614 122.863 62.2237 124.721C60.9103 126.581 59.3173 128.194 57.4445 129.562C55.596 130.905 53.3827 131.95 50.8045 132.699C48.2508 133.473 45.478 133.86 42.4865 133.86C37.7924 133.86 33.3901 133.099 29.2796 131.576C25.1935 130.079 21.7885 127.975 19.0645 125.264L21.1805 123.599C23.6613 125.974 26.7624 127.82 30.4836 129.136C34.2292 130.427 38.2301 131.072 42.4865 131.072C45.8185 131.072 48.8224 130.569 51.4977 129.562C54.1975 128.529 56.4108 127.122 58.1376 125.341C59.8888 123.56 61.2265 121.495 62.1507 119.146C63.0993 116.796 63.5736 114.266 63.5736 111.556C63.5736 107.968 62.8926 104.728 61.5306 101.836C60.1685 98.9194 58.089 96.5573 55.2919 94.7502C52.5193 92.9431 49.2358 92.0396 45.4416 92.0396ZM41.0272 94.8277H45.1862C50.1236 94.8277 53.9786 96.4282 56.7513 99.6293C59.5483 102.83 60.9468 106.806 60.9468 111.556C60.9468 116.383 59.3294 120.385 56.0946 123.56C52.8598 126.709 48.3237 128.284 42.4865 128.284C38.595 128.284 34.9588 127.716 31.5781 126.581C28.1974 125.445 25.3881 123.845 23.1505 121.778L25.1935 120.036C27.188 121.766 29.6932 123.109 32.709 124.064C35.7493 125.019 39.0084 125.497 42.4865 125.497C47.6184 125.497 51.5343 124.193 54.2339 121.585C56.958 118.978 58.32 115.634 58.32 111.556C58.32 107.529 57.177 104.199 54.8906 101.565C52.6287 98.9323 49.3817 97.6157 45.1497 97.6157H41.0272C37.4762 97.6157 34.8129 96.5831 33.0374 94.5179C31.2619 92.4527 30.3741 89.7679 30.3741 86.4635C30.3741 83.1592 31.4686 80.4744 33.6576 78.4092C35.8709 76.344 39.1787 75.3114 43.581 75.3114C46.6699 75.3114 49.5399 75.6986 52.191 76.4731C54.8421 77.2217 57.031 78.306 58.7579 79.7257L56.6783 81.4296C53.6381 79.2095 49.2723 78.0993 43.581 78.0993C39.9083 78.0993 37.2208 78.8739 35.5183 80.4227C33.84 81.9458 33.0009 83.9595 33.0009 86.4635C33.0009 88.9934 33.6211 91.0199 34.8616 92.543C36.1263 94.0661 38.1815 94.8277 41.0272 94.8277ZM41.0272 100.404H45.0402C48.5913 100.404 51.2545 101.449 53.0301 103.54C54.8055 105.631 55.6933 108.303 55.6933 111.556C55.6933 114.86 54.5867 117.545 52.3734 119.611C50.1844 121.676 46.8887 122.708 42.4865 122.708C39.3975 122.708 36.5154 122.333 33.8401 121.585C31.1889 120.811 28.9999 119.714 27.273 118.293L29.3527 116.59C32.3928 118.81 36.7708 119.92 42.4865 119.92C46.1591 119.92 48.8345 119.159 50.5127 117.636C52.2152 116.087 53.0665 114.06 53.0665 111.556C53.0665 109.052 52.4341 107.038 51.1694 105.515C49.9046 103.966 47.8495 103.192 45.0038 103.192H41.0272C36.0412 103.192 32.1375 101.617 29.3161 98.4676C26.5191 95.2923 25.1206 91.291 25.1206 86.4635C25.1206 81.6361 26.738 77.6476 29.9728 74.4982C33.2077 71.3229 37.7437 69.7353 43.581 69.7353C47.4725 69.7353 51.0965 70.3032 54.4529 71.4391C57.8336 72.5749 60.6428 74.1755 62.8805 76.2408L60.8374 77.9832C58.8429 76.2536 56.3379 74.9112 53.3219 73.956C50.306 73.0008 47.059 72.5234 43.581 72.5234C38.4491 72.5234 34.521 73.8269 31.797 76.4343C29.0973 79.0416 27.7474 82.3847 27.7474 86.4635C27.7474 90.5165 28.8905 93.8595 31.1768 96.4928C33.463 99.1001 36.7465 100.404 41.0272 100.404ZM41.0272 105.98H45.0402C46.913 105.98 48.2629 106.496 49.0899 107.529C49.9169 108.561 50.3303 109.904 50.3303 111.556C50.3303 115.273 47.7157 117.132 42.4865 117.132C37.5491 117.132 33.84 116.358 31.3592 114.808L33.4752 113.105C35.1777 113.931 38.1815 114.343 42.4865 114.343C44.5781 114.343 45.9767 114.099 46.682 113.609C47.4117 113.117 47.7765 112.433 47.7765 111.556C47.7765 110.704 47.5697 110.033 47.1563 109.542C46.7671 109.026 46.0375 108.768 44.9673 108.768H41.0272C37.6707 108.768 34.6305 108.187 31.9064 107.025C29.2067 105.864 26.9812 104.263 25.2301 102.224C23.5032 100.184 22.1777 97.8222 21.2535 95.1374C20.3291 92.4527 19.867 89.5613 19.867 86.4635C19.867 83.9853 20.1954 81.6361 20.8522 79.416C21.5088 77.1958 22.4939 75.1565 23.8072 73.2978C25.145 71.4391 26.738 69.8385 28.5865 68.4961C30.4593 67.1279 32.6726 66.0695 35.2264 65.3209C37.8045 64.5464 40.5894 64.1592 43.581 64.1592C48.2751 64.1592 52.6652 64.9207 56.7513 66.4438C60.8374 67.9411 64.2424 70.0451 66.9664 72.7557L64.8505 74.4207C62.3697 72.0458 59.2686 70.2129 55.5473 68.9221C51.8261 67.6055 47.8373 66.9472 43.581 66.9472C40.2489 66.9472 37.2329 67.4635 34.5332 68.4961C31.8578 69.503 29.6445 70.897 27.8933 72.6782C26.1664 74.4595 24.8288 76.5247 23.8802 78.8739C22.956 81.223 22.4939 83.753 22.4939 86.4635C22.4939 90.1035 23.1871 93.382 24.5734 96.2991C25.9597 99.2162 28.0757 101.565 30.9214 103.347C33.7671 105.102 37.1357 105.98 41.0272 105.98Z" fill="url(#paint1_linear_1_4150)"/>
<path d="M73.5631 81.2783C75.2068 81.2783 77.4483 80.9611 79.7646 80.0095V70.6515C78.868 70.8895 77.9714 70.9688 77.3736 70.9688C75.954 70.9688 75.2068 70.7309 75.2068 68.9069V25.1309H63.9246V70.4929C63.9246 78.0269 68.1834 81.2783 73.5631 81.2783ZM99.8944 40.4366C93.4687 40.4366 86.6695 42.6571 82.037 47.8119L90.1811 55.0286C93.4687 51.6978 96.3079 50.8255 99.0725 50.8255C103.182 50.8255 105.424 52.8081 105.424 55.5837V56.2182H95.2619C91.9744 56.2182 89.0604 56.8526 86.7442 58.2008C83.6061 60.0248 81.6634 63.2762 81.6634 67.7966C81.6634 75.8063 87.6408 81.2783 95.9344 81.2783C98.6242 81.2783 102.584 80.7232 105.573 76.5201L106.32 80.406H116.631V55.5837C116.631 46.3051 110.355 40.4366 99.8944 40.4366ZM97.7276 71.6825C94.5147 71.6825 92.9457 70.0171 92.9457 68.0345C92.9457 67.0829 93.3193 66.2898 94.0664 65.7347C94.7389 65.2589 95.7102 65.0209 96.9057 65.0209H105.424C105.199 68.9069 101.762 71.6825 97.7276 71.6825ZM124.382 96.5841H136.561L157.93 41.3089H145.602L137.233 65.4175L129.911 41.3089H117.508L131.181 79.0578L124.382 96.5841Z" fill="#F7F7F7"/>
<defs>
<linearGradient id="paint0_linear_1_4150" x1="10.2568" y1="24.2318" x2="39.6958" y2="24.752" gradientUnits="userSpaceOnUse">
<stop stop-color="#DC3E88"/>
<stop offset="0.418735" stop-color="#B840AE"/>
<stop offset="1" stop-color="#843FE8"/>
</linearGradient>
<linearGradient id="paint1_linear_1_4150" x1="27.8985" y1="71.594" x2="57.3375" y2="72.1142" gradientUnits="userSpaceOnUse">
<stop stop-color="#DC3E88"/>
<stop offset="0.418735" stop-color="#B840AE"/>
<stop offset="1" stop-color="#843FE8"/>
</linearGradient>
</defs>
</svg>
